<svg width="165" height="48" viewBox="0 0 165 48" fill="none" xmlns="http://www.w3.org/2000/svg">
<path d="M14.2841 44.0214C14.3551 44.0923 14.426 44.0657 14.4615 44.0923C14.8782 44.4204 15.295 44.7574 15.7117 45.0943C16.1285 44.6332 16.5453 44.1633 16.9797 43.711C17.1039 43.5869 17.2901 43.4539 17.4497 43.4361C17.6004 43.4184 17.7689 43.5603 17.9285 43.6312C17.8842 43.445 17.831 43.2499 17.7955 43.0637C17.6448 42.3544 16.9265 41.8667 16.9797 41.0775C16.4832 41.0509 16.696 40.6607 16.6428 40.4125C16.1196 40.2794 15.9245 39.9248 15.9778 39.4105C15.4812 39.3839 15.694 38.9937 15.6408 38.7454C15.1176 38.6124 14.9226 38.2577 14.9758 37.7434C14.4526 37.6104 14.2575 37.2558 14.3107 36.7415C13.8142 36.7149 14.027 36.3247 13.9738 36.0764C13.0693 35.5621 12.9452 34.5956 12.6348 33.7355C12.4664 33.6202 12.2003 33.5404 12.1383 33.3808C11.7659 32.4852 11.092 31.7315 10.9678 30.6497C10.9678 30.6231 10.9678 30.6763 10.9678 30.7207C10.8791 30.6941 10.7816 30.6763 10.7107 30.6231C10.6929 30.6054 10.7461 30.4901 10.7639 30.4192C10.8259 30.4724 10.8969 30.5256 10.959 30.6497C12.5107 31.3502 13.9383 32.2015 15.2861 33.1946C15.6497 33.4606 16.1374 33.567 16.5364 33.7976C18.4074 34.9148 20.3049 35.9611 22.2823 36.8656C24.5257 37.8942 26.7691 38.9228 29.0923 39.7918C31.0253 40.5189 32.8785 41.4233 34.918 41.8667C35.5564 42.0085 36.186 42.2923 36.8333 42.4874C37.4362 42.6647 38.0481 43.0371 38.6865 43.2233C40.185 43.6578 41.7368 43.915 43.191 44.447C44.8226 45.05 46.596 44.9081 48.201 45.6707C48.9813 46.0431 49.9832 46.1052 50.8611 46.0342C51.3399 45.9899 51.668 46.6283 52.138 46.1938C52.6256 45.7505 52.8119 46.5485 53.2996 46.4687C53.7961 46.3889 54.3991 46.8323 54.869 46.717C55.4897 46.5662 56.0306 47.3111 56.607 46.7613C57.2898 47.1958 58.0701 47.1692 58.8061 47.0717C59.409 46.9919 59.879 47.0362 60.4731 47.249C61.5371 47.6126 62.7165 47.6303 63.816 47.2047C64.1175 47.0894 64.3746 46.983 64.4189 47.3732C64.4633 47.7722 64.6761 47.7988 64.9687 47.7722C66.6003 47.6303 68.2673 48.0737 69.8722 47.515C70.4397 47.8875 71.087 47.7633 71.7077 47.7722C72.488 47.781 73.3216 47.9495 74.0309 47.7278C74.7314 47.5062 75.2989 47.9141 75.9462 47.7899C76.7265 47.6392 77.5157 47.515 78.3138 47.4618C79.1473 47.4086 80.0695 47.6658 80.7966 47.3909C81.6744 47.0628 82.5079 47.2136 83.3503 47.1071C83.9178 47.0362 84.4764 46.8677 85.0528 46.7879C85.6291 46.7081 86.2587 46.9564 86.7464 46.4421C87.7395 46.6815 88.6351 46.0963 89.6105 46.0874C90.2312 46.0874 90.8608 45.9012 91.4726 45.7682C93.3081 45.3603 95.1525 45.0588 96.9702 44.5357C98.4156 44.1189 99.9053 43.8263 101.359 43.4361C103.355 42.8953 105.288 42.1415 107.274 41.6007C108.223 41.3346 109.118 40.9179 110.085 40.6785C110.971 40.4657 111.734 39.7474 112.621 39.5789C114.119 39.2863 115.449 38.577 116.841 38.0449C118.127 37.5572 119.413 36.9809 120.61 36.2449C121.568 35.6508 122.694 35.3937 123.705 34.835C126.835 33.1059 130.071 31.5808 133.051 29.5502C134.851 28.3265 136.837 27.3512 138.593 26.0388C139.994 24.9925 141.474 24.0703 142.858 23.0063C143.576 22.4565 144.259 21.8535 145.039 21.4013C145.846 20.9313 146.156 19.8762 147.167 19.6988C147.141 19.0515 147.788 19.0781 148.098 18.7855C149.765 17.1894 151.432 15.5845 153.17 14.077C153.8 13.5273 154.146 12.7558 154.882 12.277C155.564 11.8337 156.096 11.1332 156.673 10.5302C157.143 10.0425 157.568 9.51933 158.029 9.02277C158.464 8.56168 158.916 8.11832 159.351 7.65723C159.838 7.14294 160.415 6.67298 160.769 6.07001C161.567 4.6956 162.587 3.52514 163.74 2.46109C164.121 2.1064 164.192 1.75172 163.855 1.31723C163.633 1.03348 163.474 0.696526 163.252 0.395043C162.951 -0.0217128 162.64 -0.190189 162.197 0.297504C161.922 0.590119 161.514 0.758592 161.168 0.980271C160.805 0.395039 160.459 0.749725 160.095 0.980271C160.033 1.02461 159.883 0.971406 159.794 0.92707C159.377 0.731993 158.907 0.2975 158.553 0.377305C158.136 0.474843 157.861 1.06008 157.462 1.3527C156.69 1.91133 156.105 2.65616 155.493 3.36553C154.917 4.03944 154.456 4.81975 153.942 5.55572C153.88 5.64439 153.782 5.71533 153.711 5.79513C152.408 7.20501 151.113 8.61488 149.81 10.0248C149.428 10.4326 149.029 10.8228 148.63 11.2041C148.276 11.541 148.001 11.9489 147.69 12.3036C147.344 12.6938 146.75 12.809 146.564 13.2967C146.36 13.8288 145.837 13.9706 145.509 14.3342C145.163 14.6977 144.826 15.0702 144.445 15.3894C144.037 15.7263 143.815 16.2761 143.186 16.4002C143.008 16.4357 143.407 17.2071 142.609 17.083C142.335 17.0387 141.971 17.6062 141.625 17.8722C141.253 18.1648 140.836 18.4042 140.472 18.7057C140.135 18.9894 139.878 19.3885 139.515 19.6279C138.823 20.0978 138.318 20.754 137.484 21.091C136.784 21.3747 136.323 22.155 135.604 22.5895C134.39 23.3255 133.272 24.2211 132.102 25.0457C130.949 25.8526 129.725 26.6152 128.484 27.2181C127.083 27.9009 125.975 29.1157 124.387 29.4261C124.299 29.4438 124.228 29.5768 124.148 29.6566C123.474 30.2596 122.685 30.6497 121.843 30.9512C121.151 31.2084 120.548 31.6074 119.954 32.0507C119.369 32.4852 118.624 32.5296 117.994 33.0084C117.294 33.5493 116.309 33.7355 115.423 34.0192C112.967 34.8084 110.723 36.1562 108.196 36.7326C107.309 37.442 106.139 37.3799 105.163 37.8853C104.357 38.3021 103.39 38.506 102.503 38.6922C101.377 38.9228 100.331 39.4991 99.187 39.5612C97.8569 39.6233 96.7042 40.4302 95.3564 40.4302C95.0106 40.4302 94.6736 40.6519 94.3278 40.7494C92.8736 41.1573 91.2953 41.0509 89.8943 41.7425C89.7169 41.8312 89.4509 41.7425 89.2292 41.7603C87.8814 41.8667 86.4893 41.7957 85.2124 42.1504C84.2282 42.4253 83.2616 42.2302 82.3306 42.4519C80.1581 42.9751 77.9236 42.4519 75.7955 42.8243C73.7028 43.1879 71.6457 42.9396 69.5796 43.1169C68.7905 43.179 68.1077 42.78 67.3806 42.7888C66.5382 42.7888 65.6249 42.4785 64.8446 43.0992C64.2682 42.5406 63.4968 42.9041 62.8495 42.6824C62.5569 42.5849 62.2554 42.4696 61.9539 42.443C60.6061 42.31 59.2671 42.1859 57.9193 42.1149C57.3873 42.0883 56.8908 41.2726 56.3321 42.0263C55.871 41.8401 55.4188 41.6273 54.9488 41.4676C54.7538 41.3967 54.5143 41.4588 54.3015 41.4233C53.6631 41.3346 52.9803 41.6539 52.3774 41.2194C51.8365 40.8292 51.0296 41.441 50.5685 40.7583C49.1231 41.0952 47.9083 40.0844 46.5073 40.0489C45.6472 40.0312 44.7428 39.7474 43.9624 39.375C43.4836 39.1445 42.9427 39.2686 42.6058 39.038C42.189 38.7454 41.79 38.8341 41.3821 38.7277C40.6373 38.5415 39.857 38.3553 39.1831 38.0006C38.4382 37.6193 37.4894 37.8144 36.8687 37.0961C36.7712 36.9897 36.3367 37.0873 36.115 37.1937C35.92 37.2912 35.7249 37.5129 35.7337 37.1227C35.7515 36.5109 35.0155 36.9011 34.9446 36.4666C34.2086 36.3956 33.4638 36.3424 32.8874 35.7749C32.8165 35.7129 32.5238 35.8991 32.3288 35.9345C32.0184 35.9966 31.6992 36.041 31.38 36.0498C31.2913 36.0498 31.1938 35.9079 31.0962 35.8281C31.9918 34.968 30.8036 34.9326 30.5819 34.8262C29.376 34.2498 28.0903 33.8596 26.9287 33.1503C26.6183 32.9641 26.042 32.7335 26.0065 33.5316C26.0065 33.5316 25.7937 33.5316 25.6873 33.5316C25.6873 32.1483 24.6587 32.1305 23.6035 32.0419C23.5769 32.0419 23.6301 32.0419 23.6744 32.0419C23.6478 32.1305 23.6301 32.2281 23.5769 32.299C23.5592 32.3168 23.4439 32.2636 23.373 32.2458C23.4262 32.1837 23.4794 32.1128 23.6035 32.0507C22.8498 31.2704 21.901 30.6941 20.7926 30.3837C20.6951 30.3571 20.5355 30.4015 20.4734 30.3482C18.8862 28.8497 16.7581 28.2024 15.0644 26.9078C14.293 26.3226 13.4152 26.0211 12.6348 25.5068C12.5284 25.4359 12.4398 25.161 12.493 25.0546C12.555 24.9304 12.8388 24.7974 12.9363 24.8418C13.4152 25.0989 13.7344 24.5137 14.2309 24.6644C14.692 24.8063 15.224 24.691 15.7206 24.691C16.2172 24.691 16.7581 24.8063 17.2192 24.6733C18.833 24.2033 20.4911 24.558 22.0872 24.3009C23.1069 24.1324 24.2065 24.3009 25.102 23.9639C26.5119 23.4407 28.0016 24.0792 29.3671 23.3875C29.7662 23.1836 30.3603 23.3964 30.848 23.3432C31.2558 23.2989 31.646 23.0506 32.045 23.0417C32.5504 23.0417 32.9583 22.8023 33.4106 22.7048C34.5633 22.4565 35.1929 21.419 36.2126 20.9934C36.2835 20.9579 36.3367 20.8249 36.3633 20.7274C36.5141 20.1688 35.8135 19.0249 35.2638 19.016C33.5436 18.9894 31.779 18.8032 30.1031 19.0781C29.0745 19.2466 28.0725 19.2466 27.0617 19.3441C26.3789 19.4151 25.705 19.5481 25.0311 19.6722C24.4104 19.7875 23.8074 19.6545 23.1335 19.9294C22.3178 20.2574 21.2714 20.0446 20.3315 20.0003C19.3473 19.9471 18.4073 20.0712 17.4763 20.3727C17.432 20.3904 17.3965 20.4525 17.3522 20.488C17.2724 20.5412 17.1748 20.6565 17.1216 20.6387C15.5255 20.0358 13.9028 20.4437 12.289 20.488C11.8634 20.4969 11.4378 20.3638 11.0122 20.3638C9.34514 20.3461 7.66925 20.4437 6.01109 20.3284C4.84063 20.2486 3.78544 20.7274 2.64158 20.7097C2.23369 20.7097 1.99427 21.02 1.94994 21.4722C1.92334 21.7826 1.86127 22.1018 1.746 22.3856C1.71053 22.4831 1.45337 22.4831 1.29377 22.5274V22.0309C-0.257984 22.8821 -0.14271 22.8555 0.256312 24.558C0.610997 26.0566 1.47998 27.2802 2.08294 28.6458C3.09379 30.9246 4.4682 33.0173 5.83374 35.101C6.95987 36.8124 8.13034 38.4794 9.23873 40.1996C10.0988 41.5386 11.358 42.576 12.094 44.0214C12.2358 44.3051 12.5196 44.5534 12.7944 44.7219C13.2289 44.9968 13.7078 45.1918 14.16 45.4224C13.9827 44.9524 14.3639 44.5534 14.3019 44.0302C14.2221 44.0302 14.1068 44.1101 14.0358 44.2165C13.8496 44.4913 13.6989 44.3672 13.5659 44.1721C12.9275 43.2765 12.2802 42.381 11.6506 41.4676C11.0565 40.6075 10.5511 39.6853 9.90377 38.8696C9.40721 38.2489 8.95498 37.637 8.57369 36.9277C8.18354 36.2183 7.47417 35.6597 7.21702 34.8173C7.14609 34.5779 7.03081 34.3207 6.86233 34.1345C6.44557 33.6557 6.05543 33.2301 5.86035 32.5384C5.71848 32.0153 5.22191 31.5098 4.9559 30.9246C4.53914 30.0379 3.94504 29.231 3.46621 28.3709C2.94305 27.4221 2.45537 26.4556 1.97654 25.4891C1.91447 25.356 1.9056 25.1166 1.97654 25.0014C2.07408 24.8595 2.31349 24.691 2.42876 24.7265C2.61497 24.7885 2.84551 24.9836 2.89872 25.161C3.21793 26.3226 4.05144 27.2181 4.47707 28.3443C5.0091 29.7364 5.82488 31.0133 6.62293 32.2902C7.51851 33.7355 8.22787 35.305 9.16779 36.7237C10.5954 38.8873 12.0673 41.0154 13.7344 43.0017C13.9649 43.2765 14.1068 43.6224 14.3107 44.0214H14.2841ZM16.5009 41.7248C16.4389 41.6716 16.3679 41.6184 16.3058 41.5652C16.359 41.512 16.4034 41.4676 16.4566 41.4144C16.5098 41.4765 16.563 41.5474 16.6073 41.6184C16.6073 41.6273 16.5453 41.6893 16.3058 41.2726V41.4233C16.2172 41.3967 16.1196 41.379 16.0487 41.3258C16.031 41.308 16.0842 41.1928 16.1019 41.1218C16.164 41.175 16.2349 41.2282 16.492 41.7337L16.5009 41.7248ZM10.1609 31.5276C10.0545 31.2704 9.99243 31.1552 9.96583 31.031C9.93923 30.9335 9.96583 30.8271 9.96583 30.7207C10.0811 30.8005 10.2496 30.8537 10.285 30.9601C10.3205 31.0754 10.2407 31.235 9.96583 30.5788V30.7295C9.87716 30.7029 9.77962 30.6852 9.70869 30.632C9.69095 30.6143 9.74415 30.499 9.76189 30.4281C9.82396 30.4813 9.89489 30.5345 10.1609 31.5364V31.5276ZM12.6969 35.438C12.6082 35.5533 12.5462 35.6508 12.4752 35.7395C12.4132 35.6597 12.3068 35.5799 12.3068 35.5089C12.3068 35.367 12.3866 35.234 12.4309 35.101C12.5107 35.1986 12.5816 35.305 12.821 36.0498C12.759 35.9966 12.688 35.9434 12.626 35.8902L12.7767 35.7395C12.8299 35.8015 12.8831 35.8725 12.9275 35.9434C12.9275 35.9523 12.8654 36.0144 12.6969 35.438ZM11.6683 33.8951C11.5796 33.966 11.4998 34.0724 11.4644 34.0636C11.1452 33.966 10.8792 33.3542 10.959 32.9552C10.9678 32.9109 11.0122 32.831 11.0388 32.831C11.1186 32.831 11.2427 32.8488 11.2693 32.8931C11.4112 33.2212 11.5353 33.5582 11.8191 34.3828C11.757 34.3296 11.6861 34.2764 11.624 34.2232C11.6772 34.17 11.7215 34.1256 11.7747 34.0724C11.8279 34.1345 11.8811 34.2055 11.9255 34.2764C11.9255 34.2853 11.8634 34.3473 11.6683 33.904V33.8951ZM55.2415 46.0254C55.4986 46.1318 55.5873 46.1672 55.676 46.2116C55.5784 46.2825 55.4897 46.3889 55.3833 46.4244C55.3035 46.4421 55.206 46.3623 55.1085 46.318C55.1617 46.2027 55.206 46.0786 55.2326 46.0254H55.2415ZM8.30768 31.6872C8.24561 31.8025 8.18354 31.9266 8.1126 32.0596C8.0594 31.9709 7.94413 31.8823 7.953 31.8113C7.97073 31.6695 8.05053 31.5364 8.1126 31.3946C8.1658 31.4832 8.22787 31.563 8.30768 31.6872ZM15.6851 43.8795L15.8004 43.7642C15.8359 43.8352 15.8891 43.9061 15.9068 43.9859C15.9068 44.0125 15.8359 44.0568 15.8004 44.0923C15.7561 44.0214 15.7206 43.9504 15.6851 43.8795ZM16.8556 42.3721C16.7847 42.3366 16.7137 42.2923 16.6428 42.2568C16.6783 42.2213 16.7226 42.1504 16.7492 42.1504C16.829 42.1681 16.8999 42.2213 16.9709 42.2568C16.9354 42.2923 16.8999 42.3278 16.8556 42.3721ZM14.2575 41.2016C14.2221 41.2726 14.1777 41.3435 14.1423 41.4144C14.1068 41.379 14.0358 41.3346 14.0358 41.308C14.0536 41.2282 14.1068 41.1573 14.1423 41.0864C14.1777 41.1218 14.2132 41.1573 14.2575 41.2016ZM15.091 39.4637C15.162 39.4991 15.2329 39.5435 15.3039 39.5789C15.2684 39.6144 15.2241 39.6853 15.1975 39.6853C15.1176 39.6676 15.0467 39.6144 14.9758 39.5789C15.0112 39.5435 15.0467 39.508 15.091 39.4637ZM14.5235 38.4617C14.5679 38.506 14.6033 38.5415 14.6388 38.577C14.5679 38.6124 14.4969 38.6656 14.4171 38.6834C14.3905 38.6834 14.3462 38.6124 14.3107 38.577C14.3817 38.5326 14.4526 38.4972 14.5235 38.4617ZM13.761 37.4597C13.8319 37.4952 13.9028 37.5395 13.9738 37.575C13.9383 37.6104 13.894 37.6814 13.8674 37.6814C13.7876 37.6636 13.7166 37.6104 13.6457 37.575C13.6812 37.5395 13.7166 37.504 13.761 37.4597ZM13.5216 37.0252C13.4506 36.9897 13.3797 36.9454 13.3087 36.9099C13.3442 36.8745 13.3885 36.8035 13.4151 36.8035C13.495 36.8213 13.5659 36.8745 13.6368 36.9099C13.6014 36.9454 13.5659 36.9809 13.5216 37.0252ZM9.84169 34.7818C9.88603 34.8262 9.9215 34.8616 9.95697 34.8971C9.88603 34.9326 9.81509 34.9858 9.73529 35.0035C9.70869 35.0035 9.66436 34.9326 9.62889 34.8971C9.69982 34.8528 9.77075 34.8173 9.84169 34.7818ZM10.6309 31.8911C10.6309 31.8911 10.5511 31.9975 10.5245 31.9975C10.4447 31.9798 10.3737 31.9266 10.3028 31.8911C10.3383 31.8557 10.3826 31.7847 10.4092 31.7847C10.489 31.8025 10.5599 31.8557 10.6309 31.8911ZM21.8212 31.7227C21.8212 31.7227 21.7148 31.6429 21.7148 31.6162C21.7325 31.5364 21.7857 31.4655 21.8212 31.3946C21.8567 31.43 21.9276 31.4744 21.9276 31.501C21.9099 31.5808 21.8567 31.6517 21.8212 31.7227ZM9.33627 29.834C9.38061 29.7896 9.41606 29.7542 9.45153 29.7187C9.487 29.7896 9.54021 29.8606 9.55795 29.9404C9.55795 29.967 9.487 30.0113 9.45153 30.0468C9.4072 29.9758 9.37174 29.9049 9.33627 29.834ZM9.07025 29.098C9.14119 29.1334 9.21213 29.1778 9.28307 29.2133C9.2476 29.2487 9.20326 29.3197 9.17665 29.3197C9.09685 29.3019 9.02591 29.2487 8.95498 29.2133C8.99044 29.1778 9.02592 29.1423 9.07025 29.098ZM17.1837 28.761C17.228 28.8054 17.2635 28.8408 17.299 28.8763C17.228 28.9118 17.1571 28.965 17.0773 28.9827C17.0507 28.9827 17.0063 28.9118 16.9709 28.8763C17.0418 28.832 17.1127 28.7965 17.1837 28.761ZM6.22389 28.1669C6.18843 28.2379 6.1441 28.3088 6.10863 28.3797C6.07316 28.3443 6.00222 28.2999 6.00222 28.2733C6.01995 28.1935 6.07316 28.1226 6.10863 28.0517L6.22389 28.1669ZM15.5787 27.9275C15.5344 27.9719 15.4989 28.0073 15.4635 28.0428C15.428 27.9719 15.3748 27.9009 15.3571 27.8211C15.3571 27.7945 15.428 27.7502 15.4635 27.7147C15.5078 27.7856 15.5433 27.8566 15.5787 27.9275ZM5.05344 26.3314C5.0091 26.2871 4.97363 26.2516 4.93816 26.2162C5.0091 26.1807 5.08004 26.1275 5.15984 26.1098C5.18644 26.1098 5.23077 26.1807 5.26624 26.2162C5.1953 26.2605 5.12438 26.296 5.05344 26.3314ZM3.147 21.9865C3.07606 21.9511 3.00513 21.9067 2.93419 21.8713C2.96966 21.8358 3.01399 21.7649 3.04059 21.7649C3.1204 21.7826 3.19134 21.8358 3.26227 21.8713C3.2268 21.9067 3.19133 21.9422 3.147 21.9865ZM149.845 12.3923L149.96 12.5076C149.889 12.543 149.818 12.5962 149.739 12.614C149.712 12.614 149.668 12.543 149.632 12.5076C149.703 12.4632 149.774 12.4278 149.845 12.3923Z" fill="#283570"/>
<path d="M14.6416 36.7412C14.5884 36.4841 14.8101 36.1028 14.3047 36.0762V36.7412H14.6416Z" fill="#283570"/>
<path d="M14.9688 37.7432H15.3057C15.2525 37.486 15.4742 37.1047 14.9688 37.0781V37.7432Z" fill="#283570"/>
<path d="M17.8095 42.0879C17.845 42.017 17.8982 41.946 17.9159 41.8662C17.9159 41.8396 17.845 41.7953 17.8095 41.7598C17.7741 41.8307 17.7209 41.9017 17.7031 41.9815C17.7031 42.0081 17.7741 42.0524 17.8095 42.0879Z" fill="#283570"/>
<path d="M17.4998 41.3877C17.4998 41.3877 17.6062 41.2902 17.6062 41.2813C17.5707 41.2104 17.5086 41.1483 17.4554 41.0773L17.3047 41.2281C17.3668 41.2813 17.4377 41.3345 17.4998 41.3877Z" fill="#283570"/>
<path d="M17.3046 41.0864C17.2337 40.9978 17.1539 40.9002 17.083 40.8115C17.0475 40.9002 17.012 40.9978 16.9766 41.0864H17.3135H17.3046Z" fill="#283570"/>
<path d="M16.951 40.2173C16.951 40.2173 16.8534 40.1109 16.8446 40.1109C16.7736 40.1463 16.7116 40.2084 16.6406 40.2616L16.7914 40.4124C16.8446 40.3503 16.8978 40.2793 16.951 40.2173Z" fill="#283570"/>
<path d="M16.2791 39.2151C16.2791 39.2151 16.1816 39.1087 16.1727 39.1087C16.1018 39.1441 16.0397 39.2062 15.9688 39.2594C16.022 39.3126 16.0663 39.357 16.1195 39.4102C16.1727 39.3481 16.2259 39.2771 16.2791 39.2151Z" fill="#283570"/>
<path d="M15.9432 38.5503C15.9432 38.5503 15.8456 38.4439 15.8368 38.4439C15.7658 38.4793 15.7037 38.5414 15.6328 38.5946C15.686 38.6478 15.7303 38.6922 15.7836 38.7454C15.8368 38.6833 15.89 38.6124 15.9432 38.5503Z" fill="#283570"/>
<path d="M15.4998 38.0447C15.4998 38.0447 15.6062 37.9471 15.6062 37.9383C15.5707 37.8673 15.5086 37.8053 15.4554 37.7343C15.4022 37.7875 15.3579 37.8319 15.3047 37.8851C15.3668 37.9383 15.4377 37.9915 15.4998 38.0447Z" fill="#283570"/>
<path d="M14.3046 36.0674C14.2337 35.9787 14.1539 35.8812 14.083 35.7925C14.0475 35.8812 14.012 35.9787 13.9766 36.0674H14.3135H14.3046Z" fill="#283570"/>
<path d="M31.9639 35.5177C31.9195 35.4733 31.8841 35.4379 31.8486 35.4024C31.8131 35.4733 31.7599 35.5443 31.7422 35.6241C31.7422 35.6507 31.8131 35.695 31.8486 35.7305C31.8929 35.6595 31.9284 35.5886 31.9639 35.5177Z" fill="#283570"/>
<path d="M13.8534 35.3491C13.8978 35.3048 13.9332 35.2693 13.9687 35.2338C13.8978 35.1984 13.8268 35.1452 13.747 35.1274C13.7204 35.1274 13.6761 35.1984 13.6406 35.2338C13.7116 35.2782 13.7825 35.3137 13.8534 35.3491Z" fill="#283570"/>
<path d="M13.5811 34.5159C13.5367 34.4716 13.5012 34.4361 13.4658 34.4007C13.4303 34.4716 13.3771 34.5425 13.3594 34.6224C13.3594 34.649 13.4303 34.6933 13.4658 34.7288C13.5101 34.6578 13.5456 34.5869 13.5811 34.5159Z" fill="#283570"/>
<path d="M12.9354 33.5403C12.9354 33.5403 12.8378 33.4339 12.829 33.4339C12.758 33.4693 12.6959 33.5314 12.625 33.5846C12.6782 33.6378 12.7225 33.6821 12.7757 33.7354C12.8289 33.6733 12.8822 33.6023 12.9354 33.5403Z" fill="#283570"/>
<path d="M12.6328 32.8931C12.5618 32.8576 12.4909 32.8044 12.4111 32.7867C12.3845 32.7867 12.3402 32.8576 12.3047 32.8931C12.3756 32.9286 12.4466 32.9818 12.5264 32.9995C12.553 32.9995 12.5973 32.9286 12.6328 32.8931Z" fill="#283570"/>
<path d="M12.1816 32.1038C12.1106 32.1392 12.0397 32.1836 11.9688 32.219C12.0042 32.2545 12.0485 32.3254 12.0752 32.3254C12.155 32.3077 12.2259 32.2545 12.2968 32.219L12.1816 32.1038Z" fill="#283570"/>
<path d="M1.57598 21.8445C1.57598 21.8445 1.47843 21.7381 1.46957 21.7381C1.39863 21.7735 1.33656 21.8356 1.26562 21.8888C1.31883 21.942 1.36316 21.9863 1.41636 22.0396C1.46957 21.9775 1.52278 21.9065 1.57598 21.8445Z" fill="#283570"/>
</svg>
