<svg width="89" height="171" viewBox="0 0 89 171" fill="none" xmlns="http://www.w3.org/2000/svg">
<path d="M81.2924 145.672C81.3426 145.585 81.2985 145.524 81.3151 145.482C81.5241 144.995 81.7417 144.505 81.9593 144.015C81.4061 143.732 80.8443 143.451 80.295 143.149C80.143 143.061 79.9663 142.915 79.9078 142.766C79.8517 142.625 79.9451 142.425 79.9723 142.253C79.804 142.344 79.6293 142.446 79.4586 142.528C78.8124 142.857 78.5272 143.677 77.7512 143.83C77.854 144.317 77.4221 144.212 77.196 144.328C77.203 144.868 76.9108 145.148 76.4003 145.23C76.5031 145.716 76.0712 145.612 75.8451 145.727C75.8521 146.267 75.56 146.547 75.0494 146.629C75.0563 147.169 74.7642 147.449 74.2537 147.531C74.3565 148.017 73.9246 147.913 73.6985 148.028C73.4358 149.035 72.5344 149.405 71.7839 149.927C71.7162 150.12 71.7079 150.398 71.5698 150.499C70.8012 151.09 70.2475 151.936 69.2347 152.336C69.2091 152.343 69.2604 152.329 69.3033 152.318C69.3005 152.41 69.3086 152.509 69.2756 152.592C69.2631 152.613 69.1379 152.592 69.0648 152.593C69.1002 152.519 69.1332 152.437 69.237 152.345C69.5121 150.665 69.9648 149.065 70.5752 147.506C70.7381 147.086 70.7147 146.588 70.8341 146.143C71.429 144.046 71.9486 141.943 72.3104 139.799C72.7233 137.365 73.1362 134.932 73.3743 132.463C73.5763 130.408 73.9703 128.384 73.8707 126.299C73.8425 125.646 73.9537 124.964 73.9746 124.288C73.9898 123.66 74.1912 122.973 74.2058 122.308C74.2376 120.748 74.0844 119.182 74.2219 117.64C74.3821 115.908 73.786 114.232 74.1072 112.484C74.265 111.634 74.0656 110.65 73.7699 109.82C73.6031 109.369 74.1349 108.887 73.5936 108.546C73.0391 108.19 73.7618 107.803 73.5585 107.353C73.3528 106.894 73.625 106.197 73.3921 105.772C73.0858 105.212 73.6653 104.497 72.9851 104.082C73.228 103.31 73.0004 102.563 72.7157 101.878C72.4825 101.316 72.4037 100.851 72.4555 100.222C72.5313 99.0997 72.2432 97.956 71.5475 97.0041C71.3581 96.7427 71.1888 96.5219 71.5542 96.3781C71.9281 96.232 71.8987 96.0195 71.7973 95.7438C71.238 94.2045 71.2348 92.4796 70.2798 91.0739C70.4926 90.4293 70.2052 89.8362 70.0531 89.2344C69.8597 88.4784 69.8067 87.6296 69.409 87.0018C69.0136 86.3826 69.2607 85.7288 68.9732 85.1357C68.6257 84.421 68.3015 83.6908 68.0436 82.9338C67.7765 82.1424 67.7862 81.1851 67.3325 80.5539C66.7884 79.7909 66.7182 78.9468 66.3974 78.1606C66.182 77.6308 65.8747 77.1349 65.6485 76.5988C65.4222 76.0627 65.4991 75.3904 64.8761 75.0524C64.8503 74.0311 64.0532 73.3175 63.7922 72.3777C63.6315 71.7781 63.2887 71.2182 63.0019 70.6616C62.1329 68.9943 61.3643 67.2908 60.3885 65.6704C59.6118 64.3821 58.9436 63.0189 58.1904 61.7153C57.1516 59.9281 55.9232 58.256 54.8867 56.4775C54.3842 55.6299 53.7498 54.8727 53.2684 54.001C52.8334 53.1996 51.9422 52.6489 51.55 51.836C50.8795 50.4643 49.8501 49.3631 48.9758 48.1561C48.172 47.0404 47.2825 45.9477 46.2618 44.9819C45.4401 44.2106 44.9002 43.1894 44.099 42.3576C41.6187 39.7817 39.3078 37.0502 36.5753 34.6979C34.9275 33.2759 33.4713 31.6098 31.7492 30.2536C30.376 29.1711 29.1019 27.9794 27.7161 26.9187C26.9992 26.3672 26.2401 25.8638 25.6013 25.2271C24.9385 24.5693 23.8389 24.5426 23.406 23.6121C22.7876 23.8053 22.6458 23.1732 22.2828 22.9492C20.3097 21.7521 18.328 20.5572 16.4221 19.2686C15.7281 18.8028 14.8935 18.6685 14.2405 18.0815C13.6355 17.5367 12.8212 17.2041 12.0896 16.8034C11.4969 16.4757 10.8814 16.2 10.2824 15.8832C9.72455 15.5828 9.17926 15.2608 8.62142 14.9604C7.99843 14.6224 7.39531 14.1873 6.72109 14.0008C5.18696 13.5857 3.79246 12.9036 2.46631 12.0656C2.02503 11.7891 1.66407 11.8124 1.33159 12.2503C1.11489 12.5378 0.830731 12.7792 0.596896 13.0714C0.27237 13.4705 0.18996 13.8139 0.775784 14.1159C1.12957 14.3057 1.39788 14.6561 1.70151 14.9327C1.23031 15.4353 1.66241 15.6776 1.9792 15.9691C2.03809 16.0176 2.02571 16.1769 2.00584 16.274C1.92527 16.7271 1.62722 17.2935 1.7961 17.6154C1.99818 17.9927 2.63462 18.1068 3.02054 18.4165C3.7598 19.0171 4.63073 19.3896 5.47428 19.797C6.2744 20.1793 7.14746 20.4227 7.99146 20.729C8.09318 20.766 8.18694 20.8418 8.28238 20.8897C9.98158 21.7838 11.6785 22.6694 13.3777 23.5636C13.8704 23.8263 14.3505 24.1108 14.8221 24.3975C15.2393 24.6529 15.7045 24.8128 16.1274 25.0208C16.5938 25.2539 16.8589 25.7979 17.3781 25.8515C17.9448 25.9108 18.2173 26.3794 18.6533 26.6022C19.094 26.8422 19.5409 27.0713 19.948 27.3569C20.379 27.6637 20.9674 27.7356 21.2503 28.3116C21.3304 28.4737 21.9723 27.8886 22.059 28.6916C22.0873 28.9686 22.7295 29.1728 23.076 29.438C23.455 29.722 23.7941 30.0626 24.1794 30.3357C24.5407 30.5878 24.9927 30.7329 25.3181 31.0221C25.951 31.5685 26.7156 31.8869 27.2568 32.6048C27.7122 33.208 28.5853 33.4514 29.1909 34.0327C30.2162 35.0156 31.3704 35.8631 32.4699 36.7802C33.5476 37.6848 34.6009 38.6694 35.5047 39.7124C36.5268 40.889 37.987 41.6452 38.6976 43.098C38.7377 43.1791 38.8845 43.2132 38.9823 43.2696C39.7391 43.7645 40.3202 44.4258 40.8295 45.1614C41.2569 45.7629 41.7983 46.2421 42.3804 46.7012C42.9515 47.154 43.1871 47.862 43.8126 48.3462C44.5163 48.8828 44.951 49.7854 45.4545 50.5684C46.8525 52.7367 48.735 54.5548 49.9458 56.8467C50.8605 57.5196 51.1035 58.6662 51.8442 59.4775C52.4556 60.1491 52.9027 61.0299 53.3121 61.8382C53.8262 62.8663 54.6538 63.7278 55.0098 64.8166C55.414 66.0853 56.4917 66.9899 56.8406 68.2917C56.9301 68.6258 57.2314 68.8939 57.4151 69.2027C58.1855 70.5018 58.4912 72.0539 59.5219 73.2281C59.6535 73.3765 59.6367 73.6564 59.7112 73.8659C60.1628 75.1403 60.4546 76.5033 61.1276 77.6449C61.6479 78.5245 61.7096 79.5085 62.1647 80.3505C63.2323 82.3135 63.3053 84.6073 64.2159 86.5665C65.1086 88.4938 65.4013 90.5451 66.1073 92.4948C66.3715 93.2411 66.1628 94.0038 66.3595 94.7039C66.5776 95.5176 66.5142 96.4801 67.3157 97.0731C66.9253 97.7744 67.4761 98.4255 67.4295 99.1081C67.411 99.416 67.3777 99.7371 67.43 100.035C67.6504 101.371 67.877 102.697 68.1573 104.017C68.2694 104.538 67.6099 105.229 68.4825 105.573C68.422 106.067 68.3335 106.559 68.3009 107.054C68.2829 107.261 68.4048 107.476 68.4256 107.691C68.5052 108.33 68.9903 108.907 68.7266 109.602C68.4898 110.226 69.2896 110.847 68.7494 111.469C69.449 112.778 68.787 114.213 69.1153 115.575C69.3208 116.41 69.2808 117.358 69.1231 118.208C69.0243 118.73 69.2842 119.22 69.1487 119.605C68.974 120.084 69.1629 120.446 69.1657 120.868C69.1786 121.635 69.2007 122.437 69.0325 123.18C68.857 123.998 69.291 124.864 68.7579 125.649C68.6803 125.771 68.887 126.166 69.0471 126.352C69.1918 126.515 69.4565 126.646 69.0773 126.739C68.4817 126.88 69.0491 127.49 68.6478 127.671C68.7697 128.4 68.9111 129.133 68.5121 129.837C68.4705 129.922 68.7261 130.156 68.8109 130.335C68.9511 130.619 69.0766 130.916 69.1678 131.222C69.1907 131.308 69.0789 131.439 69.0271 131.553C67.9645 130.911 68.2378 132.068 68.1924 132.31C67.9477 133.624 67.9037 134.966 67.5191 136.272C67.4196 136.62 67.346 137.236 68.1261 137.064C68.1261 137.064 68.1812 137.27 68.2087 137.372C66.8726 137.73 67.1216 138.729 67.3091 139.771C67.316 139.796 67.3022 139.745 67.2907 139.702C67.3833 139.705 67.4821 139.697 67.5644 139.73C67.5861 139.742 67.5645 139.868 67.5658 139.941C67.492 139.905 67.4097 139.872 67.3177 139.769C66.759 140.698 66.4479 141.764 66.435 142.915C66.4345 143.016 66.5186 143.159 66.4833 143.233C65.4466 145.154 65.3722 147.377 64.56 149.348C64.1944 150.244 64.1304 151.17 63.8356 152.057C63.7946 152.178 63.552 152.335 63.4355 152.311C63.2995 152.283 63.0976 152.044 63.1152 151.938C63.2396 151.409 62.5917 151.252 62.6088 150.733C62.6265 150.251 62.3775 149.767 62.249 149.288C62.1204 148.808 62.0918 148.256 61.844 147.845C60.9723 146.408 60.8858 144.714 60.2243 143.239C59.7976 142.298 59.6758 141.192 59.1185 140.414C58.2483 139.188 58.4794 137.583 57.4579 136.443C57.1576 136.111 57.2094 135.482 57.0318 135.025C56.8834 134.642 56.5426 134.329 56.4308 133.946C56.3 133.458 55.9632 133.126 55.7519 132.715C55.2137 131.665 54.0487 131.326 53.3736 130.451C53.321 130.392 53.1788 130.375 53.0777 130.374C52.4991 130.373 51.5755 131.346 51.7092 131.879C52.1287 133.548 52.4056 135.3 53.1048 136.848C53.5338 137.798 53.7931 138.766 54.149 139.717C54.3942 140.358 54.6971 140.975 54.9914 141.593C55.2634 142.163 55.291 142.78 55.7309 143.36C56.259 144.063 56.3242 145.129 56.5247 146.048C56.728 147.012 57.0912 147.888 57.6234 148.709C57.652 148.748 57.7211 148.766 57.7669 148.799C57.8389 148.863 57.9755 148.927 57.9721 148.983C57.8028 150.681 58.6168 152.143 59.0773 153.69C59.196 154.099 59.1777 154.544 59.2879 154.956C59.7022 156.57 60.2302 158.164 60.548 159.795C60.7738 160.947 61.5094 161.842 61.7884 162.951C61.8939 163.345 62.2557 163.496 62.704 163.422C63.0106 163.368 63.335 163.345 63.6389 163.383C63.7423 163.392 63.8089 163.64 63.893 163.783L63.4134 163.911C64.6373 165.19 64.5817 165.085 66.1229 164.259C67.4786 163.529 68.4357 162.373 69.5986 161.437C71.5382 159.871 73.2038 158.002 74.8632 156.143C76.2248 154.613 77.532 153.051 78.9068 151.535C79.9775 150.357 80.6537 148.873 81.8593 147.788C82.0967 147.577 82.263 147.239 82.3546 146.93C82.5077 146.439 82.5722 145.926 82.6778 145.429C82.2698 145.722 81.7857 145.457 81.2964 145.653C81.3171 145.73 81.424 145.82 81.5451 145.861C81.8588 145.97 81.7779 146.148 81.6239 146.327C80.9241 147.175 80.2266 148.032 79.5073 148.877C78.8303 149.673 78.0703 150.4 77.4499 151.237C76.9789 151.877 76.5049 152.472 75.9184 153.024C75.3342 153.584 74.9782 154.414 74.2311 154.881C74.0182 155.011 73.7996 155.189 73.6634 155.4C73.3087 155.926 72.9986 156.413 72.381 156.781C71.9124 157.053 71.5527 157.664 71.0563 158.072C70.3076 158.704 69.682 159.487 68.9751 160.172C68.194 160.923 67.3867 161.644 66.577 162.357C66.4646 162.451 66.2357 162.522 66.106 162.483C65.9437 162.426 65.719 162.238 65.7234 162.117C65.7352 161.921 65.8639 161.648 66.0214 161.551C67.0608 160.942 67.7102 159.905 68.6878 159.203C69.8948 158.328 70.917 157.21 71.9438 156.109C73.1081 154.869 74.4405 153.778 75.5677 152.503C77.288 150.564 78.9627 148.591 80.4498 146.467C80.6556 146.173 80.9529 145.947 81.2856 145.646L81.2924 145.672ZM78.5004 144.125C78.465 144.199 78.432 144.281 78.3967 144.355C78.3315 144.317 78.2772 144.286 78.2121 144.248C78.2582 144.181 78.313 144.111 78.37 144.05C78.3786 144.048 78.4546 144.092 78.114 144.431L78.2596 144.392C78.2569 144.484 78.265 144.583 78.232 144.665C78.2194 144.687 78.0943 144.666 78.0212 144.667C78.0565 144.593 78.0896 144.511 78.5112 144.132L78.5004 144.125ZM70.2915 152.888C70.0707 153.058 69.9754 153.148 69.8624 153.205C69.775 153.256 69.6654 153.258 69.5626 153.286C69.6099 153.154 69.6176 152.977 69.7112 152.915C69.8134 152.851 69.9882 152.887 69.4256 153.322L69.5712 153.283C69.5684 153.376 69.5765 153.475 69.5435 153.557C69.531 153.579 69.4058 153.557 69.3327 153.558C69.3681 153.485 69.4011 153.402 70.3001 152.886L70.2915 152.888ZM73.4123 149.427C73.5466 149.483 73.6569 149.517 73.7609 149.563C73.6999 149.643 73.6503 149.767 73.5818 149.785C73.4448 149.822 73.2957 149.779 73.1557 149.771C73.2293 149.669 73.3137 149.573 73.9712 149.149C73.9359 149.222 73.9028 149.305 73.8675 149.378L73.6829 149.272C73.7291 149.204 73.7838 149.134 73.8409 149.073C73.8494 149.071 73.9254 149.115 73.4123 149.427ZM72.1882 150.82C72.2797 150.887 72.4031 150.936 72.4038 150.973C72.3922 151.307 71.87 151.722 71.4639 151.748C71.4188 151.751 71.3303 151.729 71.3234 151.703C71.3027 151.626 71.2877 151.502 71.3237 151.464C71.6038 151.242 71.8972 151.035 72.6203 150.548C72.585 150.622 72.5519 150.704 72.5166 150.778C72.4515 150.74 72.3972 150.709 72.332 150.671C72.3782 150.604 72.4329 150.534 72.49 150.473C72.4985 150.47 72.5746 150.514 72.1968 150.817L72.1882 150.82ZM72.6276 105.592C72.6638 105.316 72.6751 105.221 72.695 105.124C72.7888 105.2 72.9145 105.258 72.9763 105.351C73.0141 105.424 72.9622 105.539 72.9447 105.644C72.8196 105.623 72.6882 105.612 72.6299 105.6L72.6276 105.592ZM70.9253 154.637C71.0528 154.667 71.1887 154.695 71.3356 154.729C71.2637 154.804 71.2079 154.938 71.1371 154.948C70.9954 154.967 70.8463 154.925 70.6932 154.901C70.7651 154.827 70.8261 154.746 70.9253 154.637ZM80.7928 144.356L80.6516 144.274C80.711 144.221 80.7657 144.152 80.8382 144.114C80.8639 144.107 80.9251 144.164 80.9685 144.189C80.9115 144.25 80.8521 144.303 80.7928 144.356ZM79.0338 143.615C79.0179 143.693 78.9934 143.773 78.9775 143.851C78.9341 143.825 78.8541 143.801 78.8472 143.775C78.8437 143.694 78.8767 143.611 78.8926 143.534C78.9361 143.559 78.9795 143.584 79.0338 143.615ZM78.5757 146.428C78.6534 146.444 78.7334 146.468 78.8111 146.484C78.786 146.527 78.7615 146.607 78.7358 146.614C78.6541 146.618 78.5718 146.585 78.4941 146.569C78.5192 146.525 78.5443 146.482 78.5757 146.428ZM76.6812 146.072C76.6971 145.995 76.7216 145.915 76.7375 145.837C76.7809 145.862 76.8609 145.886 76.8678 145.912C76.8713 145.994 76.8383 146.076 76.8224 146.154C76.7789 146.129 76.7355 146.104 76.6812 146.072ZM75.8602 146.88C75.8916 146.826 75.9167 146.782 75.9417 146.739C75.9944 146.798 76.0641 146.853 76.1019 146.925C76.1088 146.951 76.0517 147.012 76.0266 147.056C75.9655 146.998 75.9128 146.939 75.8602 146.88ZM75.0897 147.876C75.1056 147.798 75.1301 147.718 75.146 147.64C75.1895 147.665 75.2694 147.69 75.2763 147.716C75.2799 147.797 75.2468 147.88 75.2309 147.957C75.1875 147.932 75.144 147.907 75.0897 147.876ZM74.732 148.219C74.7161 148.297 74.6917 148.377 74.6758 148.455C74.6323 148.43 74.5523 148.405 74.5454 148.38C74.5419 148.298 74.5749 148.216 74.5908 148.138C74.6343 148.163 74.6777 148.188 74.732 148.219ZM73.5175 152.355C73.5488 152.3 73.5739 152.257 73.599 152.213C73.6516 152.273 73.7214 152.327 73.7592 152.4C73.766 152.426 73.709 152.487 73.6839 152.53C73.6227 152.473 73.5701 152.414 73.5175 152.355ZM70.5211 152.34C70.5211 152.34 70.6445 152.39 70.6514 152.416C70.6549 152.497 70.6219 152.58 70.606 152.657C70.5625 152.632 70.4825 152.608 70.4757 152.582C70.4721 152.5 70.5052 152.418 70.5211 152.34ZM67.462 141.575C67.462 141.575 67.4125 141.698 67.3868 141.705C67.3051 141.709 67.2228 141.676 67.1451 141.66C67.1702 141.616 67.1947 141.536 67.2204 141.53C67.3021 141.526 67.3843 141.559 67.462 141.575ZM68.869 154.123C68.8147 154.092 68.7713 154.067 68.7279 154.042C68.7872 153.989 68.842 153.919 68.9144 153.882C68.9401 153.875 69.0013 153.932 69.0448 153.957C68.9877 154.018 68.9284 154.071 68.869 154.123ZM68.227 154.571C68.2429 154.493 68.2674 154.413 68.2833 154.335C68.3267 154.36 68.4067 154.385 68.4136 154.411C68.4171 154.492 68.3841 154.575 68.3682 154.652C68.3247 154.627 68.2813 154.602 68.227 154.571ZM65.8016 146.821C65.833 146.767 65.858 146.723 65.8831 146.68C65.9357 146.739 66.0055 146.794 66.0433 146.866C66.0502 146.892 65.9931 146.953 65.968 146.997C65.9069 146.94 65.8542 146.88 65.8016 146.821ZM68.0644 157.561C68.1421 157.577 68.2221 157.601 68.2998 157.617C68.2747 157.661 68.2502 157.741 68.2245 157.748C68.1428 157.751 68.0606 157.718 67.9829 157.702L68.0644 157.561ZM65.4119 148.587C65.4662 148.618 65.5096 148.643 65.5531 148.669C65.4937 148.721 65.439 148.791 65.3665 148.829C65.3408 148.836 65.2796 148.779 65.2362 148.753C65.2932 148.692 65.3526 148.64 65.4119 148.587ZM66.5943 159.167C66.563 159.221 66.5379 159.265 66.5128 159.308C66.4602 159.249 66.3905 159.194 66.3527 159.121C66.3458 159.096 66.4028 159.034 66.4279 158.991C66.4891 159.048 66.5417 159.107 66.5943 159.167ZM62.8909 162.133C62.875 162.21 62.8506 162.29 62.8347 162.368C62.7912 162.343 62.7112 162.319 62.7043 162.293C62.7008 162.211 62.7338 162.129 62.7497 162.051C62.7932 162.076 62.8366 162.101 62.8909 162.133ZM15.6554 22.9166L15.7369 22.7754C15.7895 22.8347 15.8592 22.8895 15.897 22.962C15.9039 22.9877 15.8469 23.0488 15.8218 23.0923C15.7606 23.0352 15.708 22.9759 15.6554 22.9166Z" fill="#283570"/>
<path d="M74.1706 147.214C73.936 147.332 73.5103 147.216 73.6154 147.711L74.2578 147.539L74.1706 147.214Z" fill="#283570"/>
<path d="M75.0547 146.637L74.9675 146.312C74.7329 146.43 74.3072 146.314 74.4123 146.81L75.0547 146.637Z" fill="#283570"/>
<path d="M78.5115 142.763C78.4338 142.748 78.3515 142.715 78.2699 142.718C78.2442 142.725 78.2197 142.805 78.1946 142.848C78.2723 142.864 78.3546 142.897 78.4363 142.894C78.462 142.887 78.4864 142.807 78.5115 142.763Z" fill="#283570"/>
<path d="M77.9183 143.245C77.9183 143.245 77.7965 143.167 77.7879 143.169C77.7286 143.222 77.6847 143.298 77.63 143.368L77.8146 143.474C77.8499 143.401 77.8829 143.318 77.9183 143.245Z" fill="#283570"/>
<path d="M77.6729 143.511C77.6056 143.602 77.532 143.705 77.4648 143.796C77.5596 143.808 77.663 143.817 77.7578 143.828L77.6706 143.502L77.6729 143.511Z" fill="#283570"/>
<path d="M76.9266 144.078C76.9266 144.078 76.849 144.2 76.8513 144.209C76.9039 144.268 76.98 144.312 77.0497 144.367L77.1563 144.182C77.0826 144.147 77.0003 144.114 76.9266 144.078Z" fill="#283570"/>
<path d="M76.1375 144.989C76.1375 144.989 76.06 145.111 76.0623 145.119C76.1149 145.178 76.1909 145.222 76.2606 145.277C76.2983 145.212 76.3296 145.158 76.3672 145.092C76.2935 145.057 76.2112 145.024 76.1375 144.989Z" fill="#283570"/>
<path d="M75.575 145.486C75.575 145.486 75.4975 145.608 75.4998 145.617C75.5524 145.676 75.6284 145.72 75.6981 145.775C75.7358 145.709 75.7671 145.655 75.8047 145.59C75.731 145.555 75.6487 145.522 75.575 145.486Z" fill="#283570"/>
<path d="M75.2073 146.045C75.2073 146.045 75.0856 145.968 75.077 145.97C75.0177 146.023 74.9738 146.099 74.919 146.169C74.9842 146.206 75.0385 146.238 75.1036 146.275C75.139 146.201 75.172 146.119 75.2073 146.045Z" fill="#283570"/>
<path d="M73.6026 147.713C73.5353 147.805 73.4617 147.907 73.3944 147.999C73.4893 148.01 73.5927 148.019 73.6875 148.03L73.6003 147.705L73.6026 147.713Z" fill="#283570"/>
<path d="M68.5027 130.794C68.4713 130.849 68.4463 130.892 68.4212 130.935C68.4989 130.951 68.5812 130.984 68.6628 130.981C68.6885 130.974 68.713 130.894 68.7381 130.851C68.6581 130.826 68.5804 130.81 68.5027 130.794Z" fill="#283570"/>
<path d="M73.0309 148.336C72.9766 148.305 72.9331 148.28 72.8897 148.255C72.8738 148.332 72.8407 148.415 72.8443 148.496C72.8512 148.522 72.9312 148.547 72.9746 148.572C72.9991 148.492 73.015 148.414 73.0309 148.336Z" fill="#283570"/>
<path d="M72.2918 148.809C72.2604 148.863 72.2353 148.907 72.2102 148.95C72.2879 148.966 72.3702 148.999 72.4519 148.996C72.4776 148.989 72.5021 148.909 72.5271 148.865C72.4472 148.841 72.3695 148.825 72.2918 148.809Z" fill="#283570"/>
<path d="M71.5203 149.687C71.5203 149.687 71.4428 149.808 71.4451 149.817C71.4977 149.876 71.5737 149.92 71.6435 149.975C71.6811 149.91 71.7124 149.855 71.75 149.79C71.6763 149.755 71.594 149.722 71.5203 149.687Z" fill="#283570"/>
<path d="M70.9686 150.145C70.9527 150.223 70.9196 150.305 70.9231 150.387C70.93 150.413 71.01 150.437 71.0535 150.462C71.0694 150.385 71.1024 150.302 71.0989 150.221C71.092 150.195 71.012 150.171 70.9686 150.145Z" fill="#283570"/>
<path d="M70.3245 150.786C70.3772 150.846 70.4383 150.903 70.491 150.962C70.516 150.919 70.5731 150.857 70.5662 150.832C70.5284 150.759 70.4587 150.705 70.4061 150.645L70.3245 150.786Z" fill="#283570"/>
<path d="M63.1609 163.686C63.1609 163.686 63.0834 163.807 63.0857 163.816C63.1383 163.875 63.2143 163.919 63.2841 163.974C63.3217 163.909 63.3531 163.854 63.3907 163.789C63.3169 163.754 63.2347 163.721 63.1609 163.686Z" fill="#283570"/>
</svg>
