<svg width="1769" height="632" viewBox="0 0 1769 632" fill="none" xmlns="http://www.w3.org/2000/svg">
<g opacity="0.2">
<mask id="mask0_673_300" style="mask-type:alpha" maskUnits="userSpaceOnUse" x="28" y="91" width="1720" height="478">
<path d="M166.722 417.629C164.748 418.102 162.844 418.888 161.081 420.23C158.299 422.323 155.573 424.526 152.887 426.748C152.638 426.939 152.733 427.633 152.656 428.252C153.159 428.556 153.679 429.041 154.28 429.259C154.945 429.49 155.673 429.514 156.391 429.602C156.503 429.778 156.618 429.95 156.729 430.118C162.268 426.49 165.726 425.981 170.8 428.621C167.872 428.936 165.323 429.21 162.461 429.542C163.609 431.236 164.567 432.672 165.484 434.087C162.695 436.492 160.192 438.166 157.116 434.448C156.779 437.014 156.569 438.917 156.308 440.989C150.389 439.475 153.633 433.031 149.97 430.603C148.254 433.194 147.236 436.472 143.206 436.613C142.195 436.664 140.343 439.197 140.552 440.204C141.346 443.844 139.022 446.189 137.08 449.619C139.346 449.602 140.603 449.579 141.859 449.583C141.992 448.346 142.129 447.143 142.445 444.239C144.153 446.321 145.015 447.398 145.908 448.477C147.67 448.314 149.531 447.631 151.172 448.035C154.553 448.859 155.921 447.081 156.905 444.484C156.905 444.484 156.907 444.488 156.912 444.491C158.748 442.466 160.583 440.437 162.431 438.44C165.532 439.299 167.526 438.348 168.412 435.585C171.473 435.767 174.526 435.918 178.133 436.11C173.429 439.811 178.774 443.67 177.208 447.158C175.076 448.419 172.915 449.686 170.726 450.962C172.05 452.643 173.14 454.009 173.82 454.86C167.924 459.165 159.95 460.203 158.257 470.425C161.697 465.056 165.848 468.171 169.806 466.642C167.915 469.78 164.618 471.792 159.915 472.676C157.782 479.102 161.892 484.105 164.282 489.978C162.111 492.002 159.956 493.957 157.834 495.934C157.772 496.045 157.73 496.211 157.685 496.382C159.348 498.881 161.789 501.137 159.805 504.863C158.169 504.832 156.444 504.795 154.133 504.722C153.736 507.178 153.41 509.332 152.932 512.276C155.781 511.667 157.567 511.253 159.765 510.789C159.609 512.458 159.521 513.36 159.419 514.326C157.18 515.3 153.826 512.57 152.799 516.384C151.573 520.91 153.132 524.59 156.317 527.715C159.584 527.433 162.687 527.2 167.227 526.827C164.777 530.269 163.116 532.626 161.34 535.103C162.197 536.501 163.142 538.004 164.389 539.952C162.192 540.291 160.654 540.514 158.659 540.829C158.989 537.232 159.518 533.68 155.891 530.61C155.323 536.023 154.471 540.603 159.064 544.478C160.351 544.228 161.899 543.813 163.472 543.611C167.165 543.121 170.311 542.937 173.533 546.521C175.77 549.021 178.25 551.426 180.392 554.137C181.226 555.226 182.401 556.353 183.622 556.745C186.39 557.631 189.292 558.45 192.136 558.502C195.251 558.545 198.373 557.834 201.465 557.225C204.582 556.609 204.194 554.707 202.205 552.11C205.34 550.771 208.257 549.52 210.58 548.519C213.41 545.474 215.968 542.658 218.598 539.887C219.398 539.048 220.686 538.574 221.18 537.598C225.865 528.546 230.405 519.409 238.172 513.32L236.388 506.66C239.824 504.646 242.744 502.955 245.895 501.108C246.044 499.41 245.561 496.376 246.426 495.894C251.899 492.831 253.474 486.898 256.663 482.161C262.325 473.725 268.32 465.511 274.126 457.162C276.499 453.771 277.93 453.263 280.809 455.341C281.604 455.942 282.219 456.78 282.792 457.345C284.114 455.863 285.061 454.796 285.755 454.016C287.181 457.767 288.152 461.389 289.922 464.514C290.961 466.367 292.846 470.713 292.132 472.876C291.71 474.117 291.234 475.373 290.753 476.72C289.241 476.247 287.601 475.748 286.481 475.389C284.446 471.957 289.106 468.207 284.731 465.716L284.882 465.486C284.815 465.478 284.749 465.474 284.683 465.47C284.7 465.534 284.718 465.633 284.731 465.698C281.257 470.426 282.075 475.145 284.854 479.428C287.149 480.346 289.061 481.745 290.876 481.668C292.905 481.593 294.877 480.187 297.806 478.967C297.249 482.625 296.815 485.621 296.364 488.652C294.652 487.544 293.048 486.501 291.658 485.591C291.739 489.827 291.809 493.347 291.9 497.395C296.05 497.816 299.473 499.688 299.163 505.157C299.195 505.148 299.233 505.142 299.27 505.137C300.259 506.641 300.989 508.796 302.306 509.356C307.146 511.348 312.221 512.743 317.238 514.374C317.253 515.433 317.279 516.554 317.302 517.206C319.816 518.599 322.711 519.296 324.085 521.149C332.559 532.654 343.633 534.633 356.209 531.862C357.314 531.596 358.758 530.585 359.469 530.988C362.915 532.945 364.543 530.257 366.561 528.554C368.527 526.9 370.429 525.232 372.456 523.466C373.74 524.435 374.8 525.249 375.675 525.923C380.348 523.013 385.232 520.667 389.219 517.223C394.569 512.565 398.958 506.911 405.196 503.203C408.889 501.026 411.96 497.633 414.998 494.473C416.948 492.418 418.324 489.793 420.424 486.725C426.419 487.844 425.693 477.831 432.015 477.48C432.868 477.407 433.638 475.323 434.372 474.124C434.786 473.419 435.09 471.865 435.369 471.885C440.404 472.352 440.22 467.955 441.781 465.001C442.841 462.995 444.556 461.312 446.216 459.744C447.972 458.085 450.973 457.152 451.71 455.172C454.077 448.713 460.078 445.478 463.435 440.007C464.48 438.285 465.642 435.657 467.107 435.39C471.944 434.438 470.228 431.079 470.135 428.254C476.288 427.045 479.552 423.82 479.269 419.168C482.435 419.853 484.347 418.776 485.793 415.634C487.992 410.912 490.917 411.476 495.935 412.447C500.416 413.313 500.097 416.967 502.166 419.293C503.01 417.5 503.694 416.003 504.904 413.423C506.418 418.183 507.571 421.693 508.673 425.126C507.269 427.758 505.877 430.322 504.513 432.879C504.747 433.41 504.952 433.949 505.154 434.494C508.132 432.568 511.277 430.128 513.679 434.151C514.321 435.202 514.275 436.716 514.789 439.299C510.74 437.001 507.676 434.347 505.963 439.408C508.892 440.44 511.712 441.407 514.902 442.524C513.413 444.27 512.567 445.28 511.35 446.7C516.885 448.127 522.36 444.159 526.452 449.322C526.164 449.933 525.868 450.511 525.753 450.762C529.269 452.984 533.442 454.496 536.022 457.498C537.991 459.791 539.102 461.12 542.314 461.637C544.59 462.03 546.574 465.287 549.899 464.426C550.826 464.178 552.02 464.921 553.083 465.295C560.362 467.947 567.842 468.323 575.363 467.716C577.34 467.56 579.528 466.849 581.111 465.676C584.421 463.192 587.894 462.106 592.013 462.411C594.443 462.603 596.921 462.064 599.514 461.843C598.732 460.61 598.078 459.627 597.416 458.616C602.588 457.231 607.09 455.71 611.717 454.879C617.2 453.879 622.697 453.25 624.751 448.881C629.289 447.945 632.551 447.291 636.803 446.405C634.494 445.207 633.404 444.625 632.177 443.981C635.324 443.138 638.338 441.233 640.502 442C644.844 443.592 644.077 437.913 647.061 438.146C651.769 438.512 652.212 433.197 655.387 431.438C658.541 429.715 661.593 427.739 664.672 425.851C664.977 425.644 665.19 425.303 665.52 424.965C668.211 427.813 670.726 427.642 673.232 424.745C672.414 423.492 671.708 422.429 670.959 421.316C674.153 420.65 676.992 419.889 679.876 419.521C682.76 419.157 685.056 418.508 686.686 415.6C687.749 413.718 689.453 412.542 692.322 412.462C696.445 412.326 700.189 410.229 701.749 405.489C702.4 403.528 703.343 400.99 704.903 400.167C708.597 398.209 712.76 397.218 716.688 395.696C718.188 395.105 719.614 394.254 720.987 393.416C722.73 392.386 724.405 391.218 726.173 390.055L724.857 385.147C732.729 390.24 737.256 381.166 743.97 381.937C744.48 376.195 749.061 377.883 752.333 376.941C753.528 376.621 754.305 374.824 755.223 373.584C755.235 373.594 755.252 373.61 755.268 373.619C757.407 372.387 759.72 371.458 761.603 369.95C763.809 368.171 765.61 365.901 768.228 363.198L769.653 368.516C777.5 362.5 784.88 356.765 792.356 351.163C793.759 350.098 795.422 349.338 797.089 348.706C801.496 347.056 806.209 345.983 810.365 343.836C813.43 342.231 815.684 339.061 819.736 339.228C820.075 339.262 820.462 336.998 820.949 335.429C823.714 337.099 825.61 336.527 828.208 334.298C831.945 331.041 836.553 328.458 841.239 326.828C846.394 325.038 850.677 322.702 853.636 317.901C854.288 316.849 855.591 315.75 856.727 315.601C860.684 315.075 867.583 313.506 869.732 311.742C871.36 310.397 872.552 308.545 874.042 306.799C876.511 306.796 879.356 307.191 882.019 306.663C886.071 305.827 882.099 300.662 885.358 299.005C886.03 299.828 886.702 300.651 887.461 301.571C894.517 297.205 901.457 292.875 908.452 288.62C910.215 287.553 912.606 287.257 913.878 285.818C917.841 281.377 919.39 279.739 922.383 280.345C929.507 281.755 935.556 278.912 940.353 274.557C943.534 271.703 946.038 271.376 948.838 272.378C953.523 268.837 956.909 264.171 963.301 265.653C964.297 265.886 965.523 265.182 966.606 264.832C970.423 263.56 974.221 262.228 978.164 260.857C978.47 267.508 976.877 272.692 971.398 276.416C969.46 277.719 968.534 280.567 967.189 282.74C966.402 284.078 965.883 285.625 964.932 286.788C963.184 288.918 961.166 290.832 959.342 292.918C956.044 296.682 953.288 301.024 948.825 303.468C945.28 305.421 943.873 308.269 945.041 312.059C943.324 312.958 942.051 313.829 940.641 314.301C936.118 315.857 935.719 321.789 930.928 323.477C927.041 324.833 923.124 327.29 922.517 332.559C922.423 333.212 921.194 333.697 920.466 334.236C914.162 338.93 908.773 344.447 905.568 351.944C905.234 352.722 904.4 353.32 903.693 353.824C900.212 356.354 898.768 359.84 898.793 363.872C900.394 367.042 905.905 363.877 905.996 369.174C903.64 369.146 901.552 369.112 899.471 369.106C904.305 372.193 909.022 372.935 913.446 368.869C916.004 371.223 918.169 374.023 920.948 375.499C924.448 377.317 926.404 380.112 928.344 383.32C929.38 385.049 931.959 387.707 932.624 387.369C935.022 386.193 935.492 387.948 937.008 388.89C938.936 390.125 941.71 389.916 944.462 390.401C944.136 387.953 943.964 386.402 943.676 384.098C946.965 384.125 949.778 384.155 952.771 384.197C955.663 378.351 960.533 380.115 964.126 381.374C968.516 378.755 971.954 376.521 975.571 374.613C977.288 373.714 979.304 373.363 981.18 372.831C986.551 371.297 990.948 368.022 995.209 364.469C996.54 363.36 998.575 363.098 1000.29 362.418C1005.58 360.343 1011.02 358.577 1016.11 356.115C1022.97 352.805 1029.42 348.57 1036.53 350.047C1037.64 348.094 1038.03 346.297 1039.02 345.842C1043.02 344.017 1047.22 342.707 1051.3 341.051C1053.64 340.11 1056.53 339.458 1057.94 337.642C1061.21 333.514 1065.29 332.793 1069.96 333.578C1072.95 327.642 1076.66 323.613 1083.62 326.095C1086.72 327.206 1088.05 324.189 1090.22 323.074C1087.96 319.921 1091.31 319.713 1092.51 318.453C1092.96 317.988 1093.76 317.834 1094.44 317.685C1097.13 317.03 1099.87 316.451 1102.57 315.756C1106.09 314.843 1109.63 313.866 1112.78 313.022C1113.31 310.748 1113.67 309.183 1113.92 308.179C1117.87 306.621 1121.2 305.349 1124.42 304.082C1124.81 305.2 1125.05 305.884 1125.37 306.833C1131.23 302.507 1136.44 298.542 1141.81 294.785C1143.7 293.497 1145.9 292.158 1148.09 291.882C1154.64 291.063 1160.96 290.028 1166 285.081C1166.64 284.44 1168.08 284.647 1169.17 284.546C1174.74 284.086 1178.75 281.538 1180.55 275.861C1180.96 274.593 1181.57 273.366 1182.03 272.175C1187 272.63 1191.72 273.712 1195.08 269.149C1195.4 268.686 1196.37 268.802 1197.02 268.533C1199.63 267.489 1202.25 266.349 1204.86 265.303C1206.28 264.735 1207.73 264.067 1209.2 263.732C1215.43 262.376 1222.1 262.092 1227.76 259.477C1232.18 257.415 1236.13 254.825 1241.15 254.917C1241.33 254.899 1241.49 254.607 1241.93 254.21C1242.34 252.942 1242.86 251.394 1243.07 250.71C1247.54 246.381 1252.92 252.077 1256.95 248.089C1265.96 248.21 1273.29 243.301 1280.89 239.512C1283.55 238.205 1286.39 239.227 1288.91 237.862C1292.08 236.171 1295.38 234.687 1298.72 233.322C1305.07 230.712 1313.21 233.762 1318.34 227.062C1318.85 226.362 1320.69 226.933 1321.67 226.449C1325.95 224.333 1331.54 225.621 1334.94 221.203C1335.11 220.966 1335.82 221.122 1336.26 221.097C1338 222.29 1339.73 223.458 1340.46 223.95C1343.83 222.263 1346.37 220.925 1348.94 219.736C1349.91 219.288 1351.02 219.179 1352.05 218.844C1356.66 217.389 1361.48 214.126 1365.74 214.86C1370.8 215.76 1372.2 213.1 1373.26 211.438C1377.57 211.126 1381.74 212.075 1383.46 210.396C1386.58 207.304 1390.27 208.009 1393.58 206.872C1396.28 205.93 1399.24 204.854 1401.93 205.228C1404.12 205.52 1404.86 205.725 1406.21 203.643C1408.41 200.172 1410.16 203.209 1411.64 205.257C1414.87 202.451 1417.84 202.657 1420.82 206.804C1421.34 204.129 1421.63 202.611 1422.03 200.53C1427.22 204.119 1429.46 196.755 1434.12 197.512C1434.13 199.011 1434.12 200.236 1434.13 203.05C1437.31 198.753 1441 200.241 1444.18 199.542C1449.5 198.367 1455.04 197.131 1460.43 197.445C1469.48 197.963 1478.39 196.795 1487.33 196.187C1492.8 195.818 1498.19 194.464 1503.66 193.847C1510.32 193.066 1517.11 193.122 1523.65 191.779C1528.05 190.88 1532.24 192.138 1536.45 191.544C1542.14 190.739 1547.91 189.911 1553.31 188.12C1559.86 185.925 1567.14 187.798 1573.37 184.278C1573.5 184.212 1573.97 184.74 1574.21 184.931C1574.02 185.824 1573.84 186.692 1573.51 188.311C1575.44 187.639 1576.67 187.056 1577.99 186.798C1579.51 186.484 1581.11 186.425 1582.68 186.255C1582.64 186.344 1582.56 186.499 1582.51 186.589C1584.97 185.087 1587.72 183.88 1589.83 181.968C1591.86 180.11 1598.07 177.662 1600.72 178.769C1601.23 178.977 1601.32 180.331 1601.66 181.244C1602.83 180.584 1604.17 180.291 1604.79 179.436C1608.02 174.876 1612.97 173.769 1617.83 172.559C1621.19 171.723 1624.66 171.292 1628.08 170.689C1628.83 170.554 1629.77 170.705 1630.29 170.287C1635.54 166.279 1635.78 166.843 1642.86 165.353C1646.54 164.586 1650.61 161.803 1652.62 158.633C1654.1 156.266 1655.55 155.375 1657.67 154.87C1662 153.834 1666.36 152.982 1671.15 151.978C1669.43 149.402 1668.21 147.535 1666.96 145.678C1667.25 145.319 1667.52 144.963 1667.79 144.612C1670.27 146.328 1672.72 148.049 1674.79 149.47C1676.45 148.022 1677.75 146.389 1679.45 145.496C1682.09 144.1 1684.99 143.257 1687.71 142.03C1688.17 141.842 1688.32 140.929 1688.75 140.06C1686.89 139.209 1685.27 138.426 1683.62 137.675C1683.81 137.251 1683.97 136.833 1684.15 136.405C1686.46 137.163 1688.81 137.913 1689.86 138.258C1700.33 136.297 1708.03 130.854 1715.82 125.633C1715.49 125.097 1715.02 124.345 1714.96 124.236C1722.2 119.665 1729.21 115.098 1736.41 110.848C1739.22 109.187 1743.54 109.346 1742.46 104.09C1746.53 102.751 1746.32 98.4846 1747.69 95.3918C1748.2 94.253 1747.74 92.654 1747.73 91.1534C1741.96 91.4172 1736.24 90.6637 1731.19 92.1714C1723.91 94.3416 1717.07 98.0517 1710.11 101.295C1699.29 106.354 1689.47 113.524 1677.68 116.404C1677.05 116.542 1676.12 117.106 1676.09 117.549C1675.9 120.229 1675.49 121.966 1672.05 121.261C1670.49 120.959 1668.65 122.392 1666.92 123.011C1663 124.375 1659.08 125.58 1655.24 127.112C1652.5 128.222 1649.92 129.855 1647.17 130.937C1642.46 132.827 1637.65 134.426 1632.91 136.199C1631.66 136.69 1630.53 137.526 1629.26 137.866C1622.23 139.721 1615.15 141.399 1608.11 143.254C1597.33 146.078 1586.58 149.147 1575.77 151.855C1567.76 153.877 1559.7 155.723 1551.58 157.244C1545.7 158.35 1539.68 158.834 1533.71 159.495C1527.69 160.171 1522.28 162.717 1515.66 162.267C1505.47 161.582 1495.19 164.243 1484.9 165.216C1475.3 166.132 1465.63 166.592 1456 167.419C1451.17 167.835 1446.36 168.311 1441.6 169.184C1434.53 170.454 1427.91 174.103 1420.38 172.867C1419.69 172.772 1418.97 172.775 1418.27 172.868C1414.16 173.376 1409.67 175.297 1406.01 174.212C1400.02 172.438 1395.3 174.731 1390.28 176.484C1387.28 177.537 1383.65 176.474 1381.14 179.811C1380.44 180.783 1376.88 178.981 1374.8 179.318C1365.86 180.777 1356.88 182.024 1348.1 184.658C1341.4 186.671 1334.28 187.732 1327.66 189.666C1313.36 193.871 1298.88 197.283 1284.56 201.432C1279.03 203.039 1273.68 205.226 1268.24 207.183C1260.27 210.038 1252.38 213.089 1244.36 215.772C1238.84 217.628 1232.97 218.575 1227.55 220.716C1217.75 224.596 1208.22 229.281 1198.43 233.245C1189.74 236.764 1180.85 239.68 1172.11 243.025C1165.04 245.762 1158.03 248.642 1151.09 251.601C1143.43 254.841 1135.84 258.222 1128.24 261.575C1127.62 261.837 1127.03 262.214 1126.38 262.484C1117.62 266.018 1108.72 269.092 1100.23 273.154C1087.49 279.257 1075.1 286.086 1062.52 292.526C1060.48 293.572 1058.23 294.175 1056.07 295.007C1054.14 295.775 1052.14 296.405 1050.29 297.37C1045.47 299.849 1040.93 302.885 1035.95 304.905C1025.8 309.068 1016.81 315.545 1006.6 319.69C999.64 322.523 993.375 327.021 986.741 330.71C983.805 332.341 980.777 332.623 977.662 330.672C980.15 326.686 980.126 326.598 984.888 324.134C986.422 323.348 988.093 323.055 987.056 320.643C986.897 320.276 987.137 319.713 987.197 319.257C991.887 320.351 991.294 314.995 993.724 313.595C997.452 311.438 999.422 307.871 1001.91 304.702C1003.36 302.907 1004.6 300.787 1006.39 299.494C1008.74 297.802 1010.58 296.681 1010.41 292.907C1010.34 291.519 1014.67 290.015 1016.99 288.545C1017.14 288.439 1017.07 288.082 1017.16 287.869C1020.53 281.206 1023.82 274.5 1027.26 267.879C1030.01 262.601 1030.82 257.093 1029.1 251.259C1028.24 248.362 1027.1 245.567 1026.1 242.764C1024.57 243.019 1023.27 243.209 1021.54 243.488C1022.01 241.764 1022.36 240.482 1022.72 239.229C1020.78 237.401 1017.65 235.858 1017.25 233.804C1015.85 226.663 1009.85 226.079 1005.21 223.911C996.589 219.861 988.036 224.035 979.547 224.837C972.765 225.496 966.169 227.982 959.555 229.819C954.111 231.308 948.888 232.957 943.782 235.268C940.606 236.683 937.287 237.792 934.066 239.154C930.931 240.494 927.811 241.894 924.701 243.326C921.455 244.82 917.48 245.605 915.212 248.059C912.92 250.52 908.254 246.26 907.431 251.616C907.308 252.274 902.677 251.418 901.195 252.629C899.095 254.349 897.052 255.147 894.497 255.737C891.598 256.388 888.858 257.747 886.124 259.013C881.385 261.221 876.742 263.688 871.967 265.876C861.744 270.557 851.401 275.02 841.209 279.817C833.751 283.348 826.472 287.335 819.097 291.063C815.408 292.93 811.2 294.088 808.098 296.671C800.404 303.145 791.576 307.297 782.535 311.222C781.485 311.693 779.746 312.284 779.695 312.986C779.334 316.807 776.476 316.604 774.032 317.478C770.595 318.713 767.256 320.297 764.06 322.092C761.076 323.77 758.445 326.102 755.452 327.748C751.12 330.131 746.526 331.986 742.178 334.309C738.54 336.253 735.046 338.506 731.547 340.727C721.341 347.155 711.039 353.454 701.037 360.207C696.724 363.114 691.082 364.316 688.564 369.873C688.316 370.408 686.082 369.944 685.868 369.937C682.302 372.489 679.45 374.661 676.479 376.615C675.354 377.356 673.467 377.297 672.727 378.245C670.557 381.048 667.732 382.089 664.547 383.131C661.548 384.09 658.971 386.378 656.145 387.983C651.906 390.372 647.539 392.51 643.392 395.033C636.502 399.226 629.956 404.019 622.924 407.91C613.219 413.295 603.154 417.998 593.323 423.138C582.497 428.824 571.988 434.804 559.449 436.692C553.283 437.625 547.866 437.32 542.103 435.704C538.911 434.808 536.733 432.981 535.824 429.59C534.502 424.654 532.411 420.109 531.564 414.825C530.663 409.212 528.624 403.4 526.85 397.801C525.174 392.55 524.145 386.472 517.369 383.995C514.662 382.998 513.024 378.68 510.186 374.959C507.595 374.62 503.359 374.658 499.508 373.438C496.768 372.545 495.172 373.003 492.581 374.011C486.341 376.467 479.33 377.062 474.353 382.434C473.982 382.848 472.862 382.489 472.361 382.873C467.915 386.286 462.803 389.128 461.169 395.296C460.475 397.987 459.237 399.666 456.252 400.337C453.98 400.851 451.868 402.639 450.007 404.232C447.727 406.19 445.731 408.507 443.687 410.777C439.505 415.406 435.375 420.112 431.204 424.798C432.368 426.113 433.346 427.169 434.473 428.459C423.214 430.848 418.303 435.233 417.859 442.24C415.244 443.724 412.536 444.635 410.573 446.414C405.409 451.086 400.18 455.742 395.738 461.1C389.477 468.662 382.286 475.1 374.746 481.129C367.202 487.158 360.285 494.052 351.735 498.69C348.869 500.241 346.133 502.068 343.121 503.189C336.752 505.615 331.22 504.312 328.102 499.417C325.559 495.432 322.888 491.201 321.655 486.71C318.968 476.909 317.799 466.7 314.764 457.057C313.368 452.64 314.355 446.426 309.117 444.635C309.107 442.571 309.525 440.987 309.059 439.704C308.019 436.728 305.66 434.665 305.049 431.04C304.438 427.416 301.718 423.323 298.751 421.143C296.082 419.168 293.768 417.158 291.559 414.65C289.395 412.195 286.879 411.018 283.08 411.002C276.988 410.978 271.306 411.807 265.876 414.14C257.589 417.738 249.326 421.519 246.611 431.735C246.44 432.439 245.332 432.921 244.589 433.405C243.74 433.946 242.424 434.204 241.997 434.977C240.244 438.107 238.761 441.449 236.934 445.194C233.101 445.502 230.355 448.179 228.852 452.245C226.639 458.159 223.635 463.571 219.457 468.229C218.441 469.379 217.749 470.847 216.849 472.217C224.107 473.561 224.465 466.796 227.511 463.44C230.801 465.594 232.399 468.3 231.55 471.093C227.127 473.591 223.384 475.692 218.828 478.26C219.09 478.345 218.221 478.018 217.325 477.819C216.487 477.604 215.618 477.523 215.243 477.468C211.04 483.7 207.135 489.474 203.357 495.058C204.588 497.513 205.866 500.146 207.244 502.94C204.791 503.912 202.991 504.614 200.891 505.426C201.658 506.379 202.18 506.867 202.494 507.472C202.816 508.105 202.983 508.843 203.617 510.77C200.466 509.139 198.548 508.151 196.138 506.919C192.807 512.259 189.631 517.368 185.844 523.484C184.563 520.727 182.303 517.575 182.883 516.825C186.074 512.776 182.718 508.449 183.819 504.456C184.369 502.461 185.66 499.86 184.941 498.52C183.462 495.817 184.661 493.993 185.235 491.743C185.957 489.044 186.224 486.217 186.984 483.542C187.683 481.099 188.61 479.163 187.33 476.183C186.727 474.842 188.355 471.586 188.572 468.897C188.946 464.445 187.623 460.072 189.568 455.294C191.492 450.551 191.467 444.173 187.348 439.138C186.553 438.193 186.558 436.53 186.52 436.385C187.973 433.271 188.987 431.092 190.102 428.727C186.003 426.695 184.703 421.843 180.118 421.599C179.7 421.578 179.353 420.427 178.989 419.556C179.095 419.514 179.201 419.473 179.307 419.432C179.158 419.377 179.01 419.326 178.861 419.272C178.84 419.225 178.818 419.175 178.798 419.133L178.822 419.256C178.769 419.236 178.717 419.22 178.664 419.199C178.664 419.199 178.669 419.22 178.67 419.224C178.074 418.199 177.445 416.693 176.919 416.722C173.51 416.93 170.014 416.859 166.722 417.647L166.722 417.629ZM179.306 419.41C180.19 419.729 181.079 420.05 181.97 420.393C181.939 419.712 181.941 419.053 181.918 418.401C181.041 418.739 180.175 419.074 179.306 419.41ZM284.683 465.47C284.459 464.411 284.258 463.35 283.91 461.743C282.282 462.523 280.992 463.118 279.743 463.737C279.803 464.19 279.856 464.615 279.917 465.068C281.518 465.212 283.084 465.335 284.68 465.475L284.683 465.47ZM145.908 448.464C145.908 448.464 145.904 448.465 145.9 448.466L146.076 448.668C146.032 448.616 145.953 448.516 145.908 448.464ZM141.856 449.571C141.852 449.606 141.842 449.682 141.841 449.713C141.823 449.692 141.81 449.678 141.792 449.657L141.733 449.892L141.948 449.835C141.916 449.796 141.881 449.762 141.849 449.724L141.886 449.572C141.886 449.572 141.865 449.573 141.856 449.571ZM141.948 449.835C143.89 452.044 144.954 450.975 145.702 448.829L141.948 449.835ZM145.702 448.829L145.978 448.755L145.802 448.552C145.772 448.651 145.734 448.734 145.702 448.829ZM156.725 430.106C156.108 430.508 155.473 430.941 154.799 431.423C155.585 431.212 156.367 430.973 157.153 430.762C157.01 430.538 156.866 430.322 156.725 430.106ZM153.037 443.187C154.391 442.764 155.585 443.072 156.78 444.341C155.138 445.857 153.44 446.829 151.003 444.244C151.725 443.749 152.396 443.385 153.033 443.188L153.037 443.187ZM133.578 448.569C131.444 458.035 122.569 457.623 117.082 461.883C118.32 463.588 119.223 464.818 119.841 465.651C116.355 468.277 111.159 467.758 109.514 473.429C108.391 473.855 106.689 474.47 104.987 475.082C104.902 478.703 106.128 483.166 100.177 481.756C99.8215 481.662 99.0504 483.061 98.6313 483.862C98.2538 484.591 98.0861 486.104 97.7349 486.138C90.371 486.764 90.2058 493.227 88.3453 498.547C82.3582 497.895 82.3604 505.097 78.7268 506.165C79.9513 508.937 80.93 511.245 82.003 513.678C80.5165 514.545 79.3748 515.226 78.1567 515.961C76.7476 511.707 76.2294 511.247 73.4477 511.429C74.0607 517.653 73.82 517.872 68.195 520.727C65.0212 522.361 61.6178 523.802 60.1351 527.601C60.1106 527.59 60.0863 527.596 60.066 527.602C60.0814 527.611 60.0979 527.624 60.1132 527.632C60.1032 527.644 60.0943 527.659 60.0897 527.69C60.1132 527.697 60.1407 527.702 60.1631 527.705C60.2779 531.325 62.7246 533.571 64.7634 536.077C64.3159 532.641 63.201 529.646 60.2468 527.726C63.1727 528.358 66.1189 528.985 69.3579 529.684C70.2492 528.507 72.3224 524.223 72.395 523.36C74.8875 522.537 77.6323 522.331 79.5113 520.919C83.176 518.185 86.4817 514.889 89.7307 511.607C95.4497 505.847 100.509 499.326 106.755 494.303C111.386 490.557 114.57 485.915 118.109 481.368C120.537 478.276 118.888 477.306 116.36 476.296C116.369 476.281 116.373 476.266 116.382 476.251C122.857 478.869 125.625 477.404 128.261 469.973C126.611 470.019 124.887 469.758 123.426 470.3C121.454 471.009 119.708 472.364 117.869 473.455C119.254 472.046 120.512 470.521 122.057 469.354C124.172 467.72 126.452 467.238 128.375 469.8C129.717 468.911 131.002 467.921 132.415 467.202C137.688 464.507 138.05 463.721 137.704 457.486C137.642 456.688 139.003 455.824 140.023 454.673C138.043 452.792 136.064 450.912 133.571 448.575L133.578 448.569ZM128.383 469.794C128.383 469.794 128.364 469.808 128.353 469.815L128.331 469.795C128.308 469.857 128.288 469.91 128.268 469.967C128.345 469.963 128.424 469.964 128.501 469.96L128.535 469.99C128.535 469.99 128.521 469.972 128.514 469.961C128.518 469.96 128.522 469.959 128.526 469.958L128.486 469.921C128.452 469.875 128.419 469.832 128.385 469.789L128.383 469.794ZM64.7675 536.076C64.7753 536.121 64.782 536.162 64.7887 536.204C61.4818 535.105 58.1673 533.978 54.8563 532.881C54.7364 533.227 54.6119 533.541 54.4845 533.859C55.1791 534.426 55.8443 534.997 56.5389 535.564C56.5389 535.564 56.3584 535.458 56.3139 535.405C57.842 536.717 59.3869 537.995 60.9867 539.349C62.1226 538.42 63.4531 537.31 64.7922 536.233C64.8281 536.253 64.9207 536.259 64.9207 536.259C64.87 536.199 64.8182 536.135 64.7675 536.076ZM236.629 450.893C236.95 451.182 237.23 451.451 237.552 451.744C236.825 452.627 236.106 453.539 235.379 454.423C235.066 454.162 234.778 453.865 234.493 453.597C235.184 452.692 235.904 451.781 236.629 450.893ZM95.6211 490.837C100.011 490.94 98.2235 493.227 97.984 494.828C97.2772 493.648 96.5559 492.447 95.6211 490.837ZM929.887 268.644C932.096 269.24 934.306 269.841 936.978 270.597C934.723 271.847 932.359 271.196 929.887 268.644ZM97.4272 495.261C97.6216 495.209 97.8304 495.162 98.0463 495.125C99.6793 498.093 97.6129 498.449 95.2678 499.417C95.0581 496.869 95.846 495.711 97.4272 495.261ZM284.892 448.642C285.764 449.192 286.612 449.778 287.484 450.328C287.131 450.922 286.807 451.512 286.483 452.099C285.746 451.263 285.018 450.455 284.338 449.604C284.519 449.276 284.711 448.97 284.892 448.642ZM919.549 281.905C919.089 282.438 918.843 282.753 918.59 283.04C919.072 283.38 919.542 283.788 920.068 284.052C920.141 284.097 920.791 283.264 920.715 283.095C920.468 282.628 919.958 282.295 919.554 281.904L919.549 281.905ZM155.656 490.253C154.834 494.606 154.076 498.533 153.275 502.85C158.271 502.265 158.056 499.438 157.546 496.415C157.621 496.24 157.646 496.109 157.695 495.966C158.764 493.769 159.381 491.696 155.651 490.25L155.656 490.253ZM504.089 404.468C505.287 406.024 506.09 406.657 506.294 407.416C506.422 408.006 505.846 409.227 505.396 409.348C504.777 409.514 503.641 409.099 503.282 408.537C502.979 408.084 503.522 407.065 504.089 404.468ZM56.3625 535.456C56.3667 535.537 56.375 535.617 56.3803 535.701C56.4276 535.667 56.4719 535.638 56.5192 535.604L56.3584 535.458L56.3625 535.456ZM56.3803 535.701C54.5752 536.951 52.8107 538.272 50.9344 539.386C48.9814 540.538 46.9482 541.488 44.9386 542.525C46.3411 543.936 47.4028 543.962 48.4278 544.191C49.5171 544.433 50.5676 544.87 51.6361 545.148C54.7848 545.996 56.6574 544.771 56.7382 541.589C56.7958 539.65 56.5206 537.683 56.3803 535.701ZM211.264 494.467C211.711 494.339 212.192 494.236 212.661 494.11C213.416 497.038 212.989 498.814 210.192 498.844C209.74 498.841 208.919 498.027 208.886 497.567C208.818 495.45 209.917 494.85 211.264 494.467ZM43.157 546.795C42.1263 547.08 40.9471 548.171 39.0808 549.89C37.6421 551.244 35.5527 551.838 33.7613 552.783C33.7317 552.769 33.7063 552.772 33.7063 552.772C33.7279 552.787 33.7454 552.804 33.7659 552.816C33.7638 552.808 33.7697 552.798 33.7716 552.789C38.6636 552.188 43.3532 549.601 49.5456 552.85C46.179 548.078 44.8751 546.322 43.157 546.795ZM33.7659 552.816C33.554 554.083 33.3126 555.353 33.0723 556.627C35.24 557.2 37.4309 557.762 39.5946 558.336C39.638 558.044 39.7047 557.742 39.7481 557.451C37.7541 555.906 35.7611 554.365 33.7629 552.821L33.7659 552.816ZM33.0723 556.627C33.0019 556.607 32.9274 556.588 32.8569 556.568C32.8621 556.571 32.8796 556.588 32.8909 556.598C32.8654 556.729 32.8523 556.875 32.833 557.014C32.926 556.907 32.989 556.834 33.0819 556.727C33.0819 556.727 33.0655 556.715 33.0563 556.713C33.062 556.685 33.0666 556.654 33.0723 556.627ZM32.8341 557.018C31.7597 558.257 30.6934 559.494 29.956 560.355C30.3327 560.189 31.5315 559.932 32.2688 559.201C32.7157 558.763 32.7314 557.833 32.8341 557.018ZM955.013 303.282C956.122 304.393 957.068 305.332 958.142 306.422C955.505 307.002 954.462 305.956 955.013 303.282ZM211.706 504.267C213.085 504.587 214.505 504.925 215.912 505.237L215.275 506.91C213.961 506.509 212.673 506.075 211.394 505.694C211.504 505.196 211.588 504.734 211.705 504.263L211.706 504.267ZM451.014 440.584C452.442 440.86 453.845 441.139 455.245 441.422C455.171 441.941 455.094 442.431 455.022 442.954C453.61 442.739 452.193 442.524 450.772 442.276C450.866 441.717 450.92 441.143 451.014 440.584ZM718.108 376.499L720.947 375.738L721.213 376.73L718.374 377.491L718.108 376.499ZM193.119 517.763C193.522 517.81 193.934 517.889 194.378 517.96C194.237 518.342 194.13 519.059 194.009 519.062C193.492 519.045 192.948 518.812 192.429 518.671C192.646 518.363 192.903 518.075 193.12 517.767L193.119 517.763ZM749.783 369.139C752.428 371.332 753.805 372.453 755.152 373.529C754.299 374.137 753.454 374.742 752.09 375.723C751.415 373.773 750.887 372.257 749.783 369.139ZM31.3098 565.537C30.2861 566.22 29.2295 566.878 28.1972 567.529C28.3475 567.863 28.5187 568.162 28.669 568.496C29.7637 568.078 30.862 567.689 31.9567 567.27C31.7429 566.699 31.5226 566.104 31.3087 565.533L31.3098 565.537ZM1679.44 129.558C1680.39 129.962 1681.35 130.393 1682.31 130.825C1682.12 131.25 1681.93 131.675 1681.75 132.103C1680.89 131.49 1680.03 130.871 1679.14 130.265C1679.26 130.014 1679.35 129.801 1679.44 129.558ZM299.346 505.129C300.142 504.972 300.939 504.819 301.771 504.686C301.64 505.315 301.477 505.953 301.346 506.582C300.69 506.095 300.01 505.614 299.346 505.129ZM1659.32 145.439C1660.64 145.525 1661.93 145.618 1663.25 145.7C1663.22 146.272 1663.22 146.835 1663.22 147.399C1661.95 147.395 1660.67 147.457 1659.44 147.348C1659.35 147.343 1659.35 146.09 1659.32 145.439ZM943.768 337.231C944.718 337.635 945.644 338.046 946.565 338.453C946.481 338.82 946.373 339.193 946.289 339.56C945.344 339.405 944.404 339.282 943.432 339.138C943.526 338.484 943.661 337.854 943.764 337.232L943.768 337.231ZM696.808 405.065C697.362 406.015 697.955 406.979 698.509 407.929C698.183 408.171 697.894 408.438 697.565 408.681C696.836 407.873 696.137 407.062 695.415 406.282C695.88 405.878 696.344 405.47 696.808 405.065ZM1578.45 183.294C1580.23 182.972 1582.01 182.654 1584.75 182.171C1583.81 184.038 1583.25 185.135 1582.68 186.243C1581.28 185.685 1579.84 185.11 1578.43 184.553C1578.44 184.141 1578.44 183.705 1578.45 183.294ZM999.814 347.389C1001.43 350.649 1000.08 352.252 995.767 352.197C997.515 350.071 998.597 348.809 999.814 347.389ZM1027.37 341.948C1026.46 344.288 1025.81 345.933 1025.02 348.027C1023.42 345.367 1024.21 343.34 1027.37 341.948Z" fill="white"/>
</mask>
<g mask="url(#mask0_673_300)">
<rect x="-63" y="465.759" width="802.717" height="266.304" transform="rotate(-15 -63 465.759)" fill="white"/>
</g>
</g>
</svg>
