<svg width="144" height="181" viewBox="0 0 144 181" fill="none" xmlns="http://www.w3.org/2000/svg">
<path fill-rule="evenodd" clip-rule="evenodd" d="M119.194 180.005H122.409C122.287 178.921 122.246 179.623 122.014 179.136C121.872 178.84 121.892 178.492 121.897 178.173C122.578 178.226 122.786 178.6 123.538 178.6C123.427 177.897 123.591 178.425 123.225 178.041C122.257 177.014 122.465 177.125 121.64 176.101C121.576 176.021 121.518 175.957 121.46 175.885L120.417 174.549C119.75 173.86 119.626 173.384 119.081 172.75L116.582 169.09C116.566 169.062 116.549 169.029 116.532 169.001L114.139 164.566C114.056 164.322 114.084 164.156 114.001 163.885L113.511 162.95C113.397 162.756 113.48 162.933 113.359 162.707L112.935 161.935C112.061 160.886 111.488 158.553 111.001 157.58C110.918 157.413 110.813 157.151 110.75 157.026L109.936 154.979C109.922 154.951 109.903 154.921 109.889 154.893C109.875 154.865 109.856 154.835 109.845 154.807L109.554 154.179C109.54 154.151 109.521 154.121 109.507 154.096L108.948 152.793C108.934 152.768 108.912 152.735 108.898 152.71L107.85 150.494C107.534 149.876 107.51 149.558 107.313 148.905C106.909 147.555 106.292 148.313 106.616 145.895C107.93 145.956 106.785 146.199 107.866 146.285C108.741 146.354 108.279 146.053 109.081 145.934C109.859 145.817 111.486 145.917 112.152 146.083C112.78 146.241 112.653 146.149 113.323 145.981C114.482 145.687 116.626 146.011 117.982 145.983C119.349 145.956 119.902 146.274 121.001 146.277L130.857 146.299C131.952 146.293 133.004 146.313 134.002 146.434C135.082 146.565 135.118 146.744 136.216 146.266L136.744 145.842C136.764 145.823 136.789 145.795 136.811 145.776C136.83 145.757 136.858 145.729 136.88 145.712L137.854 145.115C138.247 144.788 138.615 144.788 138.986 144.412C139.37 144.016 139.503 143.535 139.99 143.039L141.216 140.984C141.462 139.492 141.279 137.544 141.29 136.003C141.29 135.776 141.268 135.433 141.296 135.226C141.396 134.443 141.304 135.212 141.487 134.717C141.927 133.513 141.592 126.239 141.371 125.387C141.149 124.532 141.1 122.365 141.385 121.419C141.531 120.938 141.357 120.852 141.279 120.246C141.252 120.03 141.263 119.69 141.257 119.46L141.144 93.3655C140.942 92.7235 140.983 93.5204 140.878 92.7761L140.853 90.4243C140.806 89.2898 140.947 88.2246 140.92 87.14C140.9 86.3791 140.682 82.1291 140.875 81.5315C141.005 81.1303 140.92 81.4319 141.005 81.2437C141.238 80.7457 140.953 80.7042 140.837 80.1702C140.762 79.8298 140.787 79.4757 140.781 79.127C140.751 77.4254 141.102 69.916 140.759 69.0887C140.748 69.0638 140.726 69.0334 140.712 69.0085L140.571 68.7844C140.416 68.397 140.452 66.7314 140.541 66.2997C140.679 65.6301 140.632 66.593 140.804 65.5969C140.651 64.5234 140.701 65.5859 140.53 64.8886C140.46 64.6064 140.496 64.4431 140.496 64.1609C140.502 63.5107 140.438 63.104 140.488 62.4427L140.532 59.59C140.66 58.8678 140.718 59.7837 140.715 58.8983C140.709 58.0488 140.69 58.8568 140.546 58.3089C140.4 57.7445 140.433 53.9953 140.469 53.4281C140.956 53.442 141.686 53.4586 142.162 53.4171C142.505 53.3866 143.042 53.204 143.213 52.8554C143.454 52.3684 143.269 43.1464 143.175 41.4143C143.139 40.7807 143.13 41.0352 142.967 40.7419C142.953 40.7198 142.931 40.6894 142.917 40.6645C142.904 40.6396 142.884 40.6064 142.87 40.5815C142.857 40.5566 142.843 40.5206 142.829 40.4929L142.682 40.1166C142.671 40.0889 142.652 40.0557 142.641 40.0308L142.336 38.5339C141.755 38.1023 141.263 37.9944 140.535 37.9169C140.35 36.8019 140.311 32.4136 140.491 31.3373L141.697 31.5116C142.367 31.6416 141.783 31.5918 142.123 31.4507C143.222 30.9914 143.255 30.4712 143.261 29.0767C143.263 28.2743 143.338 21.9409 142.995 21.0361C142.61 20.0262 143.313 18.2858 142.497 17.4309L142.093 17.0352C141.501 16.4957 140.46 16.9605 139.918 16.4708C139.553 16.1415 139.583 15.5494 139.713 15.0624C139.915 14.3153 139.86 15.3391 139.971 14.3651C139.957 14.0663 139.652 13.5932 139.603 12.7908C139.569 12.2761 139.686 11.5872 139.586 11.1417C139.401 10.2923 139.484 11.1915 139.334 10.5219C138.977 8.9282 139.747 5.90675 139.041 4.58695C139.027 4.56204 139.002 4.53437 138.988 4.50947L138.742 3.94503C138.612 3.61577 138.726 3.91459 138.59 3.61577L138.432 3.23394C138.418 3.2035 138.405 3.16753 138.388 3.13709C138.374 3.10942 138.355 3.07622 138.341 3.04855L137.945 2.22402L135.137 1.24731C134.642 1.07576 135.228 1.2058 134.738 1.04255C133.341 0.583251 131.094 1.36905 129.689 0.937414C128.806 0.666258 129.872 0.837805 127.962 0.500244C127.935 0.525146 127.91 0.566651 127.89 0.586019C127.348 1.13386 126.053 0.984451 125.334 0.929113C124.725 0.884843 124.468 0.992751 123.878 1.01489C123.248 1.03702 123.3 1.25284 122.777 1.16983C122.777 1.16983 122.528 1.04532 122.185 1.00105L119.949 0.959549C117.479 0.862708 118.173 1.39395 117.454 1.31648C116.737 1.12556 117.611 1.07022 116.283 1.00659L111.674 1.00105C110.844 0.976151 109.823 0.909745 109.029 1.13663C108.445 1.30264 108.257 1.01212 107.476 1.00935C104.156 1.00105 107.106 1.34415 104.444 1.30541C103.384 1.28881 103.37 0.918045 102.872 0.98445C102.183 1.20027 102.941 1.06746 102.399 1.26391C101.793 1.48526 97.6566 1.34138 96.9593 1.33031L90.7836 1.35798C88.88 1.48802 86.5724 1.32755 84.6079 1.30264C83.5593 1.28881 82.4885 1.42992 81.4537 1.41055C77.1262 1.32478 78.9828 1.75365 75.6736 1.73428L64.8993 1.75365C63.17 1.79515 63.8341 2.10781 62.9432 2.16591C62.4728 2.19635 61.8834 2.06907 61.4241 2.23785L61.1198 2.42047C59.8857 3.02642 59.5067 2.07461 58.7817 3.41102L58.5189 3.79285C58.5023 3.81775 58.4746 3.84542 58.458 3.87032C58.0319 4.56481 58.5493 5.06839 58.6904 5.56643L58.0319 5.82928C58.0209 6.24431 57.9572 6.89453 58.0458 7.27636C58.09 7.46728 58.6794 8.31672 58.2145 9.25746C57.924 9.84404 58.0458 11.1528 58.0402 11.8777C58.0236 13.477 57.6916 11.6232 58.0568 14.3956C58.245 15.8261 57.7303 15.3087 58.624 16.2881L60.0573 17.7657C60.6826 18.2111 61.1474 17.9261 61.5984 17.3728C62.553 16.1968 61.6787 9.01397 62.0661 6.15301C62.351 6.1281 62.6582 6.12257 62.9321 6.09767C63.1645 6.07553 63.1783 6.0866 63.372 6.02296C64.5812 5.63006 65.5883 5.83481 66.1472 5.61346C66.7338 5.38381 65.9425 5.51939 66.7421 5.31741C68.1587 4.96048 74.0882 5.72414 74.9432 5.10159C74.9708 5.08222 75.0649 5.02135 75.0788 4.96324C75.1286 4.76956 81.1133 4.93557 81.7248 4.9162C82.9091 4.883 82.0651 4.62568 83.017 4.55928C84.0601 4.48734 84.5111 4.91344 85.9139 4.8913L100.495 4.82766C100.523 4.85533 100.551 4.8996 100.57 4.91897C100.589 4.93834 100.623 4.98261 100.645 5.00474L100.794 5.14032C100.814 5.15416 100.85 5.17629 100.869 5.18459C100.955 5.22333 101.104 5.20673 101.173 5.18183C101.674 4.99368 100.847 4.8996 102.056 4.85533C102.809 4.82766 103.73 4.99091 104.435 4.94941C105.999 4.8581 107.587 4.98261 109.164 4.96048C112.241 4.91897 115.553 5.06562 118.621 4.86917C119.449 4.8166 120.218 4.94111 120.987 4.92727L125.718 4.83043C127.237 4.86917 127.254 4.57864 127.694 4.57588C128.765 4.56758 127.495 4.883 128.532 4.73636L129.468 4.47904C131.233 3.70707 129.744 4.39603 131.086 4.55928C131.617 4.62291 132.329 4.41263 132.827 4.64228L133.319 5.04902C133.347 5.07669 133.427 5.15692 133.455 5.18459C133.474 5.20396 133.502 5.23163 133.521 5.251C133.856 5.58856 133.906 5.63283 134.448 5.77118L135.4 7.97085C135.699 8.5685 135.569 9.16892 135.676 9.91321C135.801 10.7626 135.97 10.2286 135.939 11.3437C135.851 14.6916 136.357 18.3771 135.939 21.7417C135.765 23.1445 136.022 23.9414 136.028 25.1422C136.031 25.7979 135.84 26.1217 135.873 26.8577C135.898 27.4193 136.031 27.7403 136.058 28.4237C136.116 29.8265 136.011 29.1625 136.313 30.0175C136.468 30.4546 136.404 31.0301 136.404 31.5171C135.809 31.578 135.956 31.4396 135.544 31.3234C134.891 31.138 134.16 31.3234 133.463 31.3456C132.63 31.3705 131.8 31.1685 130.964 31.3013C130.121 31.4341 130.84 31.3732 130.37 31.5143C130.179 31.5724 127.522 31.5586 127.154 31.5337C126.587 31.495 126.46 31.3179 125.854 31.2847C123.53 31.1546 123.516 31.614 122.954 31.6472C122.415 31.6804 121.942 31.5365 121.51 31.5392L111.92 31.6223C107.595 31.5946 103.21 31.7357 98.9155 31.6721C96.7491 31.6389 94.8897 31.5973 92.7398 31.6859C92.203 31.708 91.5501 31.78 91.0326 31.7606C90.4488 31.7385 90.0864 31.625 89.4555 31.6776C87.9282 31.8049 87.5132 31.4203 86.6969 32.0207C86.1574 31.8906 86.7799 31.7219 85.6566 31.6638L81.7027 31.6804C80.0426 31.8519 78.0476 31.6444 76.3156 31.661C75.3886 31.6693 68.903 31.9986 68.4161 31.4618L67.8129 30.6179C67.7935 30.5985 67.7686 30.5681 67.7492 30.5487C67.7299 30.5266 67.705 30.4989 67.6884 30.4768L66.7974 29.2704C66.7808 29.2483 66.7532 29.2178 66.7366 29.1957L66.2413 28.5233C66.2164 28.4929 66.1444 28.4071 66.1223 28.3767C65.6658 27.768 65.5191 27.1786 65.0156 26.5837L64.8163 26.2738C64.3958 25.1505 64.8827 25.928 64.1191 24.9734L63.6376 24.1461C63.5519 24.0465 63.3886 23.886 63.3222 23.8113L62.3593 22.6465C62.0633 22.0433 61.7285 22.2231 61.355 21.7112C61.0755 21.3294 60.9316 20.9171 60.5083 20.5657L56.369 17.6356C56.3441 17.6218 56.3081 17.6024 56.2832 17.5886L54.5401 16.5621C54.0116 16.1498 52.4843 16.1138 51.8811 15.8067L49.9222 15.2118C48.1237 15.1122 46.3307 15.0873 44.524 15.1094C42.6701 15.1316 43.265 15.2644 42.114 15.4442C41.6962 15.5106 41.2618 15.4581 40.8412 15.5383C40.4511 15.613 40.5147 15.6434 40.357 15.7182C40.0665 15.8593 40.3791 15.7486 39.9088 15.9035C39.7428 15.9589 39.7926 15.9257 39.5933 16.0059C39.5767 16.0142 39.419 16.0945 39.3305 16.136L34.5106 18.4103C33.8188 18.7949 34.9256 18.1088 34.3473 18.5155C34.3141 18.5376 34.1619 18.6704 34.1343 18.6953C33.3429 19.3566 32.5101 19.7218 31.7437 20.6349L30.5567 21.8164C30.5373 21.8385 30.5124 21.8662 30.4958 21.8883L28.4981 24.622C28.1716 25.2916 28.404 24.7355 27.9724 25.3137L26.2901 24.4449C26.268 24.4311 26.2376 24.409 26.2154 24.3951L25.117 24.1212C24.2758 23.9995 24.998 23.9109 24.1707 23.7726C23.6809 23.6923 23.4402 23.8473 22.9588 23.6813C22.4054 23.4876 22.9201 23.3935 21.9406 23.4046L19.7575 23.6564C19.3618 23.7892 19.0326 23.7449 18.6286 23.9441C18.0891 24.2097 18.0531 24.0769 17.4748 24.2264L16.3598 24.6912C16.3321 24.705 16.3016 24.7272 16.274 24.741L15.2143 25.394C15.1949 25.4133 15.17 25.441 15.1506 25.4604C15.1313 25.4798 15.1063 25.5074 15.0842 25.524L14.5115 25.8754C14.2486 26.0055 14.517 25.8616 14.2403 26.011L11.9272 28.2771C11.3821 28.7613 10.6212 29.987 10.4026 30.6981C10.3916 30.7341 10.3833 30.77 10.3722 30.8088L9.63344 32.8203C9.29034 33.7472 9.56426 35.1722 9.41762 35.6647C9.27097 36.1627 9.10219 35.9524 9.15476 36.6967C9.2101 37.4715 9.76071 37.4272 9.89629 38.5478C9.94333 38.9379 9.90183 38.7802 10.0125 39.1261C10.3418 40.1471 9.92949 40.0115 10.743 41.0325L10.9975 41.4309C11.2687 42.0479 10.9809 42.1475 11.4568 42.2831V42.6705L9.81052 43.4563C9.48402 43.5337 9.60023 43.4563 9.25991 43.6057L8.47134 44.0013C8.22232 44.1258 8.47964 44.0235 8.13655 44.1812L7.30924 44.5464C7.15707 44.6211 7.03532 44.6626 6.86931 44.7678L5.86493 45.465C5.84003 45.4816 5.80682 45.4982 5.78192 45.5148C4.6558 46.248 3.76486 47.4323 2.97629 48.492L1.4628 51.1953C1.45173 51.2202 1.43237 51.2534 1.41853 51.2783C1.4047 51.3032 1.38533 51.3364 1.37426 51.3613C0.654869 52.7641 0.973062 53.1182 0.621666 54.0424L0.436285 54.3772C-0.177965 55.3982 -0.106027 59.5319 0.353277 60.5114C0.364345 60.5363 0.38648 60.5667 0.397548 60.5944L1.85293 64.504C2.48655 65.6938 2.82135 65.4364 2.89052 66.6456L4.47871 67.9322C4.49532 67.9515 4.51745 67.9848 4.53405 68.0041L5.23131 68.7678C5.49693 68.9532 5.4997 69.1192 5.70998 69.3405C5.88153 69.5204 5.70445 69.3682 5.94793 69.5176L9.09666 71.471C9.1769 71.507 9.25714 71.5374 9.36781 71.59L10.6544 72.2596C11.1718 72.5059 10.8232 72.2762 11.2493 72.5723L14.2237 74.4759C14.4921 74.6115 14.7301 74.6502 14.968 74.7775C15.87 75.2617 15.3913 75.198 16.7388 75.6601C16.772 75.6712 16.8052 75.685 16.8384 75.6961L19.8488 76.4929C20.867 76.753 42.9441 76.4653 46.8869 76.468C48.796 76.468 50.7661 76.5898 52.6669 76.4846C53.0266 76.4653 54.1334 76.2882 54.4294 76.5649C54.7199 76.836 54.5263 77.1874 54.4294 78.1918C54.3824 78.6899 54.2496 79.21 54.2883 79.7855C54.3713 80.9947 54.5539 81.5868 54.2357 82.8125C54.1444 83.1639 54.2108 82.5303 54.1361 83.2082C53.9425 84.9596 54.4571 86.7526 53.8013 88.4183C53.663 88.7724 53.699 88.6451 53.699 89.0795C53.3254 89.0906 53.3835 89.038 53.1041 88.9163C53.0819 88.908 53.0266 88.9108 53.01 88.8665C52.9934 88.8222 52.9491 88.8278 52.9159 88.8167C52.7001 89.561 52.7555 88.7088 52.5396 89.525C52.3211 90.3578 52.5147 90.0148 52.1523 90.9666L51.0704 93.952C51.0566 93.9825 51.0372 94.0129 51.0234 94.0461L50.5862 95.7146C50.4894 96.0493 50.4811 96.3205 50.4396 96.6249C50.2653 97.9364 49.9249 98.0166 49.9858 99.8815L50.3178 101.044C50.4783 101.359 50.5198 102.181 50.8989 102.695C50.9155 102.718 50.9404 102.745 50.957 102.77L51.0621 102.928C51.2918 103.332 51.2254 103.761 51.3443 104.217C51.538 104.953 51.574 104.309 51.7096 105.269C51.8424 106.204 51.7621 105.49 51.978 106.06C52.1744 106.586 52.0693 107.277 52.2906 107.739C52.5701 108.326 52.4124 109.015 52.6199 109.535C52.7306 109.812 53.0183 110.028 53.0985 110.324C53.1068 110.354 53.1124 110.39 53.1207 110.426C53.129 110.462 53.129 110.498 53.1345 110.537C53.4306 112.64 53.7986 110.7 53.6409 114.311L52.5977 114.402C52.4981 114.884 52.476 114.895 52.1993 115.191C52.1052 115.29 52.0388 115.218 51.8064 115.866L51.6902 116.433C51.6155 117.332 51.6874 116.856 51.4356 117.57C51.2558 118.082 51.3388 118.422 51.2807 118.937C51.1534 120.08 51.0372 118.705 50.8878 119.977C50.8574 120.24 50.921 120.459 50.8629 120.738C50.7301 121.391 50.921 120.553 50.672 121.142C50.3787 121.837 50.5281 122.977 50.5143 123.796L50.5447 129.839C50.553 129.88 50.5613 129.911 50.5724 129.949C50.5807 129.985 50.5945 130.018 50.6056 130.052C50.6166 130.085 50.6332 130.115 50.6443 130.146L50.9376 131.947C50.9487 132.105 51.0068 132.528 51.0538 132.669L51.3028 134.307C51.3416 135.179 51.2696 136.424 51.5076 137.027C51.8119 137.799 51.538 138.842 51.9171 139.656C52.6863 141.31 52.2685 141.1 52.5535 142.027L53.4527 143.496C53.7405 143.87 53.4776 143.399 53.7017 144.022L54.7587 146.399C54.9856 146.805 54.9717 146.996 55.3314 147.276C55.3536 147.292 55.3868 147.314 55.4089 147.331C55.4338 147.348 55.467 147.367 55.4919 147.384C55.7935 147.58 55.9069 147.646 56.0204 148.014C56.2417 148.725 56.4935 148.85 56.8117 149.475C57.0967 150.034 57.4343 150.051 57.6169 150.629C57.7027 150.9 57.6861 151.014 57.7884 151.268C57.8548 151.431 57.8576 151.387 57.9793 151.694L61.2277 157.004C61.4131 157.386 61.2498 157.087 61.4739 157.416L61.936 158.028C62.5143 158.65 62.6941 159.331 63.2005 160.025C63.444 160.357 63.2364 160.023 63.4384 160.435C63.491 160.546 63.5104 160.604 63.5629 160.712L66.4931 165.144C66.9801 165.803 66.3243 165.258 67.6911 166.843L72.4419 173.907C72.8348 174.629 72.547 174.286 73.0866 174.72L73.687 175.559C74.0744 175.988 74.221 176.452 74.6139 176.865C74.6333 176.884 74.661 176.912 74.6803 176.931C75.1258 177.379 75.3416 177.504 76.0499 177.36C76.1772 176.937 76.2215 176.472 76.429 176.209C76.4456 176.19 76.4733 176.162 76.4899 176.143C76.5065 176.123 76.5369 176.096 76.5535 176.076C77.3697 175.16 76.9713 174.875 76.2464 174.51C76.2076 174.275 76.1717 173.885 76.0693 173.675C75.9476 173.425 76.108 173.683 75.8479 173.392C75.812 173.354 75.6847 173.218 75.6598 173.193L74.9017 172.133C74.7329 171.835 74.8795 172.064 74.6859 171.807L73.604 170.255C73.3301 169.848 73.2913 169.593 72.9482 169.206L72.3285 168.26C72.3119 168.238 72.2842 168.21 72.2648 168.188L70.3197 165.39C70.2588 165.28 70.2367 165.194 70.1896 165.111L68.4631 162.914C68.0896 162.455 67.7105 162.084 67.4615 161.542L65.7294 158.556C65.7156 158.534 65.6907 158.504 65.6741 158.484L62.8684 154.066C62.8546 154.041 62.8325 154.007 62.8186 153.983C62.8048 153.958 62.7882 153.922 62.7744 153.897L62.5973 153.534C62.3427 153.114 62.1629 153.061 61.9554 152.591L60.096 149.351C60.0047 149.204 60.0462 149.276 59.9521 149.093L59.6921 148.568C59.6782 148.54 59.6589 148.51 59.645 148.482L59.2798 147.793C59.2577 147.76 59.1885 147.674 59.1663 147.641L58.3252 146.017C58.3114 145.992 58.2892 145.959 58.2754 145.934C58.2616 145.909 58.2394 145.876 58.2228 145.851L57.343 144.473C57.0829 143.991 57.0386 143.618 56.8864 143.225C56.6485 142.605 56.3552 142.575 56.1532 142.121C55.8156 141.366 55.8101 140.939 55.3591 140.165L54.9911 139.484C54.9773 139.456 54.9634 139.42 54.9496 139.393C54.933 139.354 54.886 139.241 54.8694 139.205C54.6812 138.806 54.5041 138.978 54.5401 138.383C54.6923 137.508 54.7947 138.693 54.9413 137.478C55.0741 136.385 54.8887 134.736 54.6286 133.784C54.4405 133.101 54.482 132.138 54.4128 131.421C54.1334 128.516 54.2219 130.583 54.4101 129.31C54.5401 128.436 54.1942 128.732 54.2108 128.292C54.2302 127.802 54.2385 128.569 54.3437 127.844C54.4322 127.229 54.0476 126.906 54.1444 126.175C54.244 125.423 54.518 126.031 54.3243 125.19C54.1832 124.582 54.28 125.47 54.1666 124.703C54.0144 123.685 54.1112 121.322 54.2108 120.357L54.7199 120.321C55.5085 121.903 54.9579 120.653 55.6884 121.936C55.8848 122.279 56.1421 122.257 56.3856 122.564L56.9639 123.433C57.2849 123.876 57.5422 124.313 58.0956 124.562C58.3252 124.665 58.3999 124.695 58.7015 124.676L59.9604 124.061C60.1265 123.442 60.1901 122.634 59.9383 122.019L59.4043 121.023C59.2964 120.766 59.3794 121.043 59.2798 120.633C59.23 120.431 59.2577 120.423 59.1802 120.193L59.0557 119.919C58.7347 119.222 58.7596 118.541 58.256 117.54L57.1659 113.356C56.9445 112.778 57.0026 113.528 56.8975 112.637L56.5627 110.988C56.4188 110.581 56.4991 110.567 56.3109 110.172C56.1394 109.812 56.1338 109.889 56.0176 109.433L55.5832 107.756C55.3895 107.117 55.4476 107.662 55.2733 106.981C55.1876 106.649 55.2097 106.411 55.1239 106.093C55.0354 105.758 54.9496 105.728 54.8694 105.282C54.6342 103.99 54.7808 96.6913 55.0243 96.2264C55.301 96.3426 55.1239 96.2403 55.3121 96.445L55.4255 96.5917C55.4393 96.6166 55.4587 96.6498 55.4725 96.6747L56.0287 98.0553C56.2085 98.8107 56.0121 98.3182 56.322 98.7277C56.8615 99.4443 57.0552 100.446 57.6363 101.218L58.8537 103.409C58.9533 103.658 58.9395 103.595 58.9865 103.678C59.0086 103.716 59.1608 103.941 59.1885 103.985C60.1375 105.451 59.6173 104.721 60.0684 105.872L60.8652 107.438C61.0174 107.737 60.8403 107.438 61.0672 107.767C61.0672 107.767 61.1972 107.947 61.2332 107.997C61.8115 108.785 61.9111 109.358 62.2431 109.754L63.5685 111.829C63.5823 111.857 63.6017 111.887 63.6155 111.915L65.1318 114.61C65.7294 115.495 65.6353 116.112 67.2291 115.517L68.2611 114.994C68.7177 114.145 67.8073 113.093 67.4975 112.366L66.7476 109.878C66.5705 107.759 65.9757 107.632 65.8705 106.561C65.7377 105.235 65.3005 104.71 65.1677 103.957C65.1235 103.711 65.1207 103.456 65.0709 103.196L64.8108 102.452C64.5507 101.73 63.9863 100.133 63.9199 99.4997L63.4689 97.881C62.9238 96.7355 63.0234 95.4572 62.5862 94.3283C62.4672 94.0212 62.47 93.9769 62.3538 93.6173C62.268 93.3544 62.34 93.5453 62.2431 93.3295C61.9886 92.7623 62.0522 92.1951 61.8309 91.6389L61.7506 91.4784C61.6123 91.1021 61.6676 90.7148 61.6316 90.297C61.5984 89.8709 61.5071 89.193 61.4297 88.8527C61.3356 88.4404 61.1115 88.0779 60.9399 87.6823C60.4972 86.664 60.9095 85.2751 60.2344 83.7892L59.9494 82.8651C59.4098 81.0445 59.7585 81.1358 59.5648 80.0456C59.4154 79.2128 59.479 79.9101 59.349 79.4452C59.1912 78.8863 59.3656 78.7341 59.0833 78.1088C58.8371 77.5554 58.8675 77.2926 58.8122 76.6368C58.7181 75.5135 58.2256 74.9186 58.5936 73.8672C58.7292 73.4798 58.815 73.0814 58.9201 72.647C60.2095 72.4671 59.1331 71.9857 60.7213 72.3786C60.749 72.528 60.8126 72.9209 60.8569 73.0482L61.5763 74.4178C61.5929 74.4399 61.6178 74.4703 61.6344 74.4925L61.7423 74.6419C62.221 75.389 62.3649 76.1914 62.8214 76.9716L63.8728 79.0247C63.9503 79.3622 63.8645 79.2211 64.025 79.5753C64.0969 79.733 64.1385 79.7247 64.2574 79.9931L64.4041 80.3804C64.4151 80.4109 64.4317 80.4441 64.4428 80.4745L65.5523 83.0449C65.5634 83.0782 65.5772 83.1114 65.5883 83.1446C66.0116 84.2624 66.0393 84.9071 66.7836 85.9004C67.1571 86.3984 67.5722 87.0071 67.7465 87.6657C67.9014 88.2578 68.1504 88.5621 68.3663 89.1487L68.5461 89.7519C68.7509 90.5903 69.141 90.6788 69.5311 91.5448C69.6722 91.8603 69.794 92.2808 69.9489 92.5741C69.9489 92.5797 70.2256 92.9587 70.2284 92.9615L70.6323 93.9769C70.8205 94.5718 70.649 94.0682 70.8537 94.4307L71.3213 95.2469C71.4043 95.4849 71.36 95.662 71.4237 95.9359C71.598 96.7023 72.013 96.5308 72.2205 97.2612L73.0146 99.2313C73.1613 99.7514 73.0229 99.4499 73.2388 99.8068L73.8475 100.529C74.2404 100.781 74.5696 100.698 74.9238 100.49L75.8009 100.039C75.8341 100.02 76.1274 99.8179 76.1772 99.7902C76.2381 98.5036 76.0333 98.2241 75.646 97.2668L73.5708 91.4812C73.5293 91.3761 73.521 91.3899 73.4878 91.199C73.4601 91.0274 73.4629 90.7535 73.449 90.5626C73.3605 89.4088 72.8763 88.6507 72.6218 87.5439C72.4557 86.8245 72.2731 86.4814 72.2122 85.7012L71.515 83.4212C71.2106 82.5967 71.0751 81.1939 70.7901 80.4579C70.6379 80.065 70.6794 79.5227 70.5134 79.1436C70.1094 78.2112 70.1398 76.6977 69.6695 75.5328C69.5284 75.187 69.5616 75.519 69.5118 74.9241L69.2434 73.7427C68.9611 73.0703 69.1133 71.8639 68.9916 71.0532C68.8809 70.3172 68.7675 70.4611 68.6513 69.8718C68.5129 69.1856 68.6679 68.4247 68.5129 67.7496L68.2833 65.857C68.2833 65.0767 68.4188 65.0103 68.5378 64.5206C68.9086 62.9794 68.5101 62.9186 69.2185 60.9568C69.8382 61.1727 69.6446 62.2545 70.3059 63.1925L70.4995 63.5052C70.6683 63.9119 70.5576 64.2079 70.6905 64.6396L71.966 67.9682C72.3478 68.8868 72.1348 69.4429 72.9289 70.937L73.1032 71.294C73.117 71.3189 73.1364 71.3521 73.1502 71.3797L73.5736 72.2762C73.8281 72.7936 73.6759 72.8047 73.8752 73.2861L74.7357 75.0569C74.8021 75.187 74.8795 75.3502 74.957 75.4886L76.3488 78.5653C76.6614 79.1575 76.7583 79.9239 77.0847 80.5796L77.4306 81.5564C77.497 81.7002 77.5634 81.7611 77.6686 81.9686C78.1887 83.0117 77.9093 82.8679 78.1638 83.8446L83.7613 97.8229C83.7723 97.8506 83.7889 97.8838 83.8028 97.9115C83.8138 97.9391 83.8332 97.9723 83.8443 97.9972L85.0589 100.731C85.402 101.174 85.4048 101.561 85.6981 102.059C86.2598 103.008 85.7202 103.099 86.3926 103.993L86.5032 104.14C87.1894 105.155 87.0539 105.454 87.3997 106.267C87.7207 107.023 87.4717 106.984 88.0001 107.629C88.429 108.154 88.6116 108.81 88.7583 109.474C88.9741 110.451 88.9907 109.566 89.1844 110.404C89.2923 110.872 89.165 111.162 89.3587 111.538C89.8484 112.487 89.5966 111.519 89.9702 112.883C90.1223 113.436 90.565 113.522 90.8556 113.968C91.5943 115.102 91.1157 114.283 91.8793 114.925L92.0647 115.135C92.0813 115.158 92.1062 115.188 92.1228 115.21L92.4216 115.561C92.4382 115.581 92.4659 115.609 92.4797 115.631C92.9031 116.231 92.3857 116.582 93.1438 117.349L94.4442 119.479L96.1514 119.421C96.6799 118.746 96.4696 119.466 96.6688 118.544L98.1131 114.972C98.4396 114.244 98.672 114.192 98.9764 113.644C99.5658 112.587 99.3389 112.673 100.526 112.285C100.573 111.24 100.758 111.475 100.916 110.996C101.021 110.672 100.933 110.567 101.076 110.216C101.248 109.79 101.143 110.302 101.35 109.704L101.776 108.794C102.25 108.199 102.001 107.305 102.645 106.777C102.916 106.552 102.833 106.666 103.13 106.494L103.749 105.905C104.283 105.294 104.054 104.934 104.405 104.452C104.712 104.037 104.928 104.076 105.523 104.184C105.728 104.795 105.753 108.661 105.495 109.513L104.964 110.667C104.776 111.162 104.911 111.821 104.776 112.31C104.433 113.55 104.712 116.477 104.38 117.321L103.614 120.116C103.556 120.442 103.536 120.42 103.473 120.614L103.135 122.127C103.082 122.263 102.723 122.739 102.69 122.827L102.518 123.621C102.507 123.655 102.49 123.685 102.477 123.715C101.879 125.174 102.479 128.015 102.12 129.413C101.948 130.077 101.812 129.349 101.768 130.353C101.752 130.732 101.84 131.125 101.84 131.549C101.84 132.265 101.788 133.2 102.02 133.69C102.263 134.202 102.241 134.725 102.377 135.04C102.388 135.065 102.407 135.099 102.418 135.123C102.496 135.32 102.499 135.265 102.524 135.516C102.571 136.001 102.427 136.252 102.197 136.54L102.073 136.684C101.851 136.938 101.84 136.684 101.738 137.066C101.597 137.591 101.785 138.341 102.003 138.826C102.18 139.218 102.18 140.096 102.277 140.383C102.546 141.18 102.377 142.14 102.615 142.943L102.994 143.753C103.008 143.781 103.024 143.814 103.038 143.842L103.379 145.081C103.589 145.79 103.517 145.234 103.658 145.685C103.913 146.506 103.716 146.263 104.137 147.206C104.15 147.234 104.164 147.27 104.175 147.298C104.189 147.325 104.203 147.361 104.217 147.389L105.274 150.651C105.354 150.967 105.296 151.149 105.373 151.49C105.52 152.129 105.432 151.44 105.611 152.179L105.852 152.986C105.852 152.986 106.024 153.241 106.068 153.307C106.406 153.803 106.823 155.798 107.532 156.954C107.872 157.513 108.254 158.177 108.423 158.786C108.519 159.143 108.423 159.212 108.622 159.547C108.627 159.555 109.062 159.989 109.07 160.001C109.363 160.385 109.474 161.116 109.753 161.564C110.221 162.316 110.459 163.232 110.81 164.037L111.048 164.475C111.062 164.5 111.079 164.533 111.093 164.56C111.106 164.588 111.12 164.621 111.131 164.649L111.599 165.623C111.887 166.165 111.253 165.072 111.69 165.792C112.241 166.694 111.845 166.655 112.316 167.275C112.747 167.845 113.09 168.661 113.409 169.217C113.422 169.242 113.444 169.275 113.458 169.3L113.832 169.95C113.951 170.185 113.815 169.859 113.943 170.213C114.031 170.459 113.951 170.338 114.078 170.625L114.477 171.292C114.618 171.5 114.493 171.314 114.643 171.516C115.204 172.274 115.077 172.692 115.722 173.722L116.878 175.716C116.892 175.739 116.917 175.769 116.928 175.794L117.548 177.011C117.8 177.49 117.57 177.175 117.932 177.568L118.298 178.093C118.635 178.846 119.07 179.117 119.177 180.022M84.904 93.0307C83.9273 92.0982 84.0628 91.4563 84.013 90.4215L83.8083 89.7851C83.7889 89.7519 83.7336 89.6551 83.7142 89.6219C83.3933 89.0657 83.4403 89.3064 83.3158 88.825L82.6822 87.0984C82.3861 86.4842 82.6268 86.4676 82.3225 85.7482L82.0319 84.8794C82.0209 84.8462 82.0098 84.813 81.9987 84.7798C81.9877 84.7494 81.9738 84.7161 81.96 84.6857L81.6833 83.8833C81.3928 83.092 81.5477 84.1213 81.2462 82.6299C81.0801 81.8164 80.773 81.4817 80.5434 80.9504L80.1505 80.2919C80.1339 80.2698 80.109 80.2393 80.0924 80.2172C79.8765 79.9294 79.7631 79.7994 79.7133 79.3761C79.6386 78.7065 79.6663 78.914 79.4726 78.4851C79.4615 78.4602 79.4421 78.427 79.4311 78.3993C79.42 78.3689 79.4034 78.3357 79.3923 78.3053C79.2097 77.8128 79.4919 78.6428 79.3287 78.095L78.9884 77.2704C78.7504 76.825 78.5042 76.338 78.554 75.8455L79.6165 75.472C80.6153 75.0237 81.4066 74.047 82.1177 73.2308C82.9367 72.2928 83.7308 71.2967 84.0435 70.0461L84.4723 68.8895C85.1917 67.3152 84.6909 68.0512 85.0008 67.1658L85.7285 65.0214C85.8918 64.6368 85.7866 64.9937 85.9056 64.7032C86.0467 64.3546 85.9748 64.1775 86.0329 63.7625C86.1187 63.1565 86.1823 63.3613 86.2625 62.9435C86.423 62.1051 86.387 60.7327 86.3926 59.8169L86.2127 58.8844C85.9637 58.2066 86.174 57.7666 86.0633 57.0528C85.9333 56.2144 85.8973 56.7263 85.7479 56.314C85.6095 55.9349 85.7175 55.8326 85.5542 55.4452L85.1751 54.5238C85.1613 54.4962 85.1364 54.4685 85.1226 54.4408L84.9234 54.0175C84.8348 53.5831 85.0064 53.5471 84.7297 53.1044C84.7158 53.0795 84.6882 53.0518 84.6716 53.0325L84.4779 52.8415C84.4613 52.8222 84.4336 52.7945 84.4142 52.7751C84.3976 52.7558 84.3727 52.7253 84.3561 52.706C84.3395 52.6866 84.3174 52.6534 84.3008 52.6313L82.7098 50.2628C82.4664 49.9695 82.5134 49.7094 82.3723 49.2612L81.379 47.7837C80.975 47.3437 80.4437 46.9149 80.1726 46.3753L78.7781 44.6405C78.6231 44.4025 78.5014 44.1507 78.3658 43.9681L77.4832 43.3954C76.9436 43.0993 76.999 42.8171 75.978 42.2997L74.5088 41.6384C74.1491 41.4281 74.4949 41.6218 74.1325 41.4696C74.1048 41.4586 74.0688 41.4475 74.0412 41.4364L72.6218 40.9135C72.2814 40.7253 71.8415 40.7364 71.6091 40.3739C71.3462 39.9672 71.4292 39.0541 71.3711 38.498C71.313 37.9446 71.2189 37.8727 71.0612 37.4521L70.9035 36.9568C70.7043 36.4865 70.6821 36.7548 70.6185 36.0465C70.5244 34.973 70.2505 35.3244 69.96 34.6465C69.7995 34.2702 69.9074 34.154 69.9738 33.7749C70.5604 33.7528 70.53 33.8607 70.7181 33.8828C71.3739 33.963 70.6739 33.8109 71.5897 33.7251C71.9743 33.6891 72.2233 33.7085 72.5249 33.8164C72.9787 33.9796 73.9416 34.1346 74.6139 34.0101L75.04 33.8634C75.0953 33.8441 74.921 33.6781 75.4799 33.7777C75.9891 33.8662 75.3803 33.7362 75.812 33.9298C76.3294 34.1623 76.9104 34.082 77.4998 34.0543C78.9884 33.9852 85.7507 34.2121 86.4285 33.9188C86.9819 33.6808 87.7262 33.7085 88.4069 33.7196C88.7223 33.7251 89.0848 33.7251 89.3753 33.8053C90.7477 34.1789 90.0864 33.6504 91.1295 33.7638C91.6192 33.8164 91.7742 34.1982 92.6845 33.9105C92.7122 33.9022 92.7454 33.88 92.7675 33.8745L93.2794 33.9437C94.3336 34.2259 97.3052 33.9935 98.5171 33.952C99.9919 33.9022 102.488 34.1346 103.503 33.8441C104.693 33.5037 106.322 34.0737 106.942 33.869C108.207 33.4539 108.782 34.2176 109.911 33.9409C110.218 33.8662 110.379 33.6891 110.835 33.75C111.776 33.8745 110.564 33.9879 111.652 33.9824C112.476 33.9769 112 33.5397 113.395 33.9437C114.186 34.1733 114.601 33.8026 115.332 33.7445C115.658 33.7168 116.167 33.7445 116.513 33.75C117.111 33.7555 118.328 33.7002 118.845 33.7832C119.548 33.8966 118.638 34.0516 119.534 33.8496C120.495 33.6338 121.792 33.75 122.821 33.7417C124.285 33.7279 124.778 34.1927 125.954 33.9381C127.807 33.5369 129.603 33.8607 131.49 33.7251C132.727 33.6365 134.774 33.6504 136.02 33.7555C136.227 34.735 136.008 35.792 136.172 36.539C136.296 37.109 136.448 36.528 136.443 37.6181C136.435 39.0071 136.689 40.9328 136.468 42.2333C136.299 43.2183 136.197 42.2416 136.108 43.2681C135.887 45.8358 136.482 44.7041 136.426 45.7666C136.376 46.7738 136.177 45.7085 136.078 46.8263C136.003 47.6619 136.202 47.3271 136.357 47.9552C136.728 49.4521 136.13 50.4233 136.05 51.0292C135.892 52.2079 135.989 53.5277 136.031 54.7092C136.155 58.2979 136.086 62.6779 135.925 66.1531C135.895 66.8116 136.044 67.9183 136.044 68.765C136.044 69.7279 136.022 70.6935 136.031 71.6564L136.111 88.9965C136.119 89.6495 135.953 90.3163 136.108 90.9472L136.313 91.5172C136.343 91.7136 136.343 94.0683 136.324 94.3837C136.222 96.1185 136.388 98.166 136.412 100.034L136.476 108.705C136.415 109.613 136.374 110.689 136.412 111.597C136.664 117.354 136.504 123.173 136.471 128.937C136.462 130.619 136.437 133.09 136.573 134.717L137.234 134.941C137.323 135.779 137.309 137.14 137.334 138.001C137.364 139.152 137.467 140.511 136.692 141.36C136.567 141.498 136.686 141.366 136.468 141.534C136.285 141.673 136.374 141.556 136.235 141.703C135.726 142.243 136.224 142.082 135.275 142.547C134.498 142.929 133.369 142.707 132.547 142.688C131.637 142.669 128.61 143.037 127.893 142.658C127.45 142.422 128.134 142.403 126.64 142.411C126.086 142.414 125.575 142.256 125.129 142.431C124.664 142.611 125.107 142.652 123.878 142.688C123.646 142.696 123.325 142.713 123.095 142.68C122.561 142.605 121.85 142.027 121.38 142.071C120.851 142.251 121.289 142.149 121.037 142.251C120.824 142.337 120.871 142.342 120.597 142.378C120.19 142.434 119.806 142.315 119.443 142.4C118.643 142.588 119.695 142.649 118.751 142.696C118.143 142.727 117.847 142.204 116.845 142.505C116.455 142.622 116.416 142.674 115.868 142.699C115.063 142.738 113.846 142.771 113.038 142.594C112.578 142.494 113.22 142.528 112.673 142.503C111.707 142.461 112.952 142.785 111.978 142.519C111.474 142.384 110.987 142.533 110.664 142.622C109.825 142.851 108.683 142.741 107.842 142.666C107.045 142.597 107.557 142.284 105.874 142.334L105.492 141.554C105.404 141.313 105.315 140.862 105.285 140.499C105.232 139.869 105.432 139.26 105.102 138.754C105.039 138.657 104.673 138.549 105.036 137.697C105.183 137.351 105.044 137.943 105.232 137.306C105.47 136.504 105.011 136.416 104.939 136.205C104.812 135.821 105.064 135.846 105.183 135.583C105.553 134.761 105.008 134.567 105.194 133.898L105.285 133.272C105.307 132.824 105.326 132.661 105.163 132.282C104.892 131.659 104.842 131.994 104.92 130.5L105.23 129.352C105.332 129.105 105.293 129.288 105.326 128.937C105.415 127.982 105.324 128.06 105.6 127.188C105.836 126.452 105.564 125.661 105.957 124.526L106.461 122.185C106.533 121.591 106.461 120.877 106.641 120.345C106.652 120.318 106.668 120.285 106.677 120.257L106.973 119.656C106.987 119.634 107.009 119.601 107.023 119.579C107.042 119.546 107.106 119.466 107.122 119.432C107.54 118.611 107.244 116.735 107.833 115.664C108.03 115.31 108.002 115.805 108.055 115.014C108.077 114.682 108.005 114.25 108.066 113.948C108.251 113.035 108.168 113.904 108.367 113.34C108.439 113.135 108.42 112.731 108.489 112.416C109.07 112.385 110.05 112.438 110.47 112.393C111.369 112.297 110.495 112.297 111.165 112.189L114.02 112.053C115.304 112.031 115.315 112.435 115.724 112.377C116.325 112.294 115.307 111.934 118.09 112.034C119.789 112.095 121.892 111.793 123.582 112.02L125.992 112.128C126.454 112.142 126.703 112.014 127.152 111.981L133.327 112.014C134.066 111.909 133.496 111.94 133.931 111.832C134.376 111.721 134.708 111.796 135.129 111.583L135.995 111.11C136.017 111.098 136.064 111.082 136.094 111.06C136.094 109.92 136.036 111.06 135.56 110.08C134.426 109.942 133.518 109.613 132.262 109.743C131.321 109.84 131.817 110.127 130.881 110.039H120.237C119.28 110.307 120.24 110.21 119.615 110.315C118.807 110.451 119.424 110.232 118.978 110.202C118.682 110.183 118.386 110.468 116.51 110.346C115.636 110.288 116.281 110.293 115.796 110.16C114.988 109.939 115.315 110.249 114.421 110.324C112.639 110.476 110.774 110.412 108.981 110.315C108.486 108.777 109.208 104.878 108.644 103.83L108.077 101.993C108.204 101.558 109.397 101.428 109.867 101.005L111.098 100.139C111.123 100.125 111.156 100.103 111.181 100.089C111.925 99.6684 112.639 99.3143 113.281 98.7581L113.48 98.5727C113.5 98.5561 113.527 98.5285 113.547 98.5091C113.566 98.4925 113.594 98.4648 113.613 98.4482L114.366 97.8727C114.717 97.6458 114.709 97.549 114.936 97.2612C114.952 97.2391 114.977 97.2087 114.997 97.1865L116.579 95.5043C116.895 95.0643 116.848 94.8789 117.324 94.2619C117.573 93.9382 117.592 93.7556 117.775 93.3876L118.226 92.5271C118.563 91.8492 118.394 91.7911 118.851 91.1879L119.811 88.8499C119.927 88.4459 119.913 88.089 119.977 87.6823C120.127 86.7581 120.176 87.6712 120.362 86.7526C120.459 86.2628 120.284 86.0083 120.295 85.4438C120.351 83.009 120.586 80.2836 119.974 77.9317C119.698 76.872 119.468 75.8261 119.039 74.9158C119.025 74.8881 119.009 74.855 118.995 74.8273C118.981 74.7996 118.962 74.7692 118.948 74.7415L118.801 73.917C121.668 73.6929 121.175 74.1356 124.163 73.4051C124.725 73.2668 124.49 73.3083 124.855 73.0426C125.262 72.7466 125.871 72.6774 126.305 72.3758C126.338 72.3537 126.421 72.2817 126.452 72.2568L127.301 71.673C128.206 71.0643 129.1 69.833 129.717 68.9338C130.668 67.5448 130.184 68.1812 130.666 67.008C130.926 66.3744 131.308 65.6329 131.385 64.6949C131.44 64.0281 131.435 63.2561 131.404 62.5865C131.344 61.192 131.382 60.1738 130.876 59.1169C130.505 58.3477 130.519 58.1152 129.982 57.2741L128.696 55.257L126.418 53.204C126.385 53.1846 126.286 53.1238 126.25 53.1044C126.222 53.0906 126.189 53.0712 126.164 53.0574L125.716 52.8471C125.171 52.5704 124.91 52.338 124.379 52.1886L123.657 52.0087C121.468 51.0735 122.047 51.198 118.632 51.3613C118.024 51.3917 117.376 51.4304 116.892 51.6518L115.473 52.1886C114.739 52.3988 114.208 52.8498 113.575 53.1985C113.55 53.2123 113.516 53.2317 113.492 53.2455C113.386 53.3009 113.273 53.3368 113.135 53.4143L112.008 54.6594C111.989 54.676 111.961 54.7037 111.939 54.7203C110.578 55.8187 111.671 55.0108 110.982 55.7385C110.965 55.7579 110.932 55.78 110.916 55.7994L110.387 56.6211C110.066 57.4484 109.878 57.7113 110.097 58.9066C110.835 58.9259 111.073 58.5414 111.574 57.7666L112.23 56.8535C112.246 56.8286 112.266 56.7982 112.282 56.7733L114.939 54.3218C115.528 53.893 116.314 53.6052 116.983 53.3175L118.621 52.9495C119.476 52.9135 119.991 52.4514 120.89 52.7281C121.278 52.8471 120.691 52.8692 121.629 52.9329C122.725 53.0048 123.585 53.2317 124.482 53.691C125.101 54.0064 125.694 54.272 126.205 54.7313L126.684 55.1657C126.897 55.3318 126.67 55.1547 126.925 55.329C127.312 55.5918 127.343 55.7883 127.655 56.1646L127.849 56.3804C127.868 56.4025 127.893 56.433 127.91 56.4523L128.029 56.5962C128.541 57.2188 128.505 57.7279 128.853 58.1346L129.498 59.3271C130.3 61.1284 129.741 64.3989 129.29 66.2222C129.202 66.5792 128.878 66.9665 128.69 67.282C128.222 68.0622 127.763 68.4634 127.503 68.8729L126.886 69.5425C126.684 69.6809 126.764 69.62 126.593 69.786C126.46 69.916 126.272 70.1319 126.147 70.2536C126.114 70.2868 125.967 70.4252 125.948 70.4445L123.167 71.839C123.048 71.8805 123.001 71.8805 122.852 71.9331L122.655 72.0106C122.113 72.2347 121.543 72.279 120.851 72.3232C119.543 72.4062 118.392 72.2264 117.097 72.2375C117.069 73.1837 117.075 73.5877 117.443 74.2822L117.921 75.4775C117.955 75.6463 117.968 75.9451 118.002 76.1167L118.453 77.074C118.466 77.0989 118.486 77.1321 118.497 77.157C118.757 77.6772 118.934 79.1104 118.959 79.6804C119.023 81.122 119.056 82.5386 118.973 84.0106C118.904 85.228 118.774 86.2794 118.4 87.3447C118.389 87.3779 118.375 87.4111 118.364 87.4471C118.09 88.3989 118.179 88.7973 117.65 90.1337L117.008 91.8686C116.435 93.0417 117.008 92.2615 116.139 93.62L116.04 93.7888C116.026 93.8137 116.009 93.8497 115.993 93.8773L113.397 97.0482C113.375 97.0648 113.345 97.0897 113.326 97.1063L111.746 98.3127C110.899 99.0044 109.54 99.14 108.348 99.7653L107.368 100.338C106.607 100.875 106.361 100.518 105.526 100.734C105.29 100.795 105.008 100.936 104.557 100.985C103.813 101.066 104.173 100.98 103.641 101.226C102.941 101.553 102.507 101.262 101.754 101.572C101.237 101.785 100.241 101.713 99.5685 101.735C98.091 101.782 96.3008 101.835 94.8399 101.688C93.9683 101.6 94.7375 101.611 94.0375 101.481C93.6695 101.412 93.2766 101.464 92.9003 101.414C92.3027 101.334 92.2335 101.174 90.9358 101.033C90.1666 100.95 89.6547 100.861 89.0488 100.565L88.4124 100.045C87.931 99.5605 87.9199 99.0736 87.6736 98.5285C87.1203 97.3028 87.0649 97.0482 86.5088 96.149C85.9941 95.3161 86.0854 95.1833 85.4961 94.4169L85.2277 93.8995C85.1668 93.7418 85.1364 93.6726 85.0755 93.5287C84.9372 93.205 84.9953 93.7335 84.8957 93.05L84.904 93.0307ZM60.6356 25.8339C60.6522 25.8588 60.6771 25.8865 60.6909 25.9142C60.9593 26.4039 60.9067 27.1814 61.0146 27.447L61.8419 29.085C61.9111 29.2317 61.9056 29.2898 61.983 29.4502L62.4838 30.0368C62.9266 30.5183 62.6001 30.0811 62.7273 30.7867C62.921 31.8547 62.8629 30.9803 63.0621 31.5309C63.2171 31.9598 63.1119 33.061 63.1424 33.5591C63.1894 34.3172 63.2171 33.9105 63.3637 34.3891C63.4357 34.6299 63.4993 35.0228 63.5104 35.2663C63.5851 36.9264 63.6072 36.1904 63.7539 37.1311C63.8922 38.0193 63.9586 40.2992 63.8092 41.0048C63.6321 41.038 63.2586 41.0989 63.0538 41.157C62.1518 41.4088 61.3411 41.8708 60.5138 42.3163C60.0158 42.5847 59.966 42.8558 59.4901 43.1215L58.4774 43.9515C58.0651 44.3583 57.5339 44.5187 57.141 44.9836C57.141 44.9836 56.986 45.1966 56.975 45.216C56.7841 45.5508 56.8947 45.537 56.6789 45.8441L56.2251 46.3034C56.1532 46.3975 55.9761 46.4666 56.001 47.0836L56.2224 47.7864C56.986 47.7532 56.5821 47.8528 56.9169 47.3797L57.4509 46.735C57.8742 46.3172 58.1592 45.988 58.6683 45.714L58.9865 45.5148C59.2743 45.2852 59.0169 45.5093 59.2521 45.252C59.2687 45.2326 59.2936 45.2022 59.313 45.1828L61.6399 43.3013C61.6621 43.2875 61.6925 43.2653 61.7174 43.2515L62.5004 42.878C62.6277 42.8282 62.6111 42.8199 62.802 42.7839C63.3997 42.6677 64.1551 42.7701 64.7638 42.7784C67.3564 42.8171 65.0958 42.9195 68.1836 43.1574C69.0082 43.2211 69.0801 43.1464 69.7995 43.3511C70.7541 43.6223 71.5593 43.423 73.0312 43.9211C73.7672 44.1701 73.0257 44.0318 73.734 44.2946C74.1186 44.4385 74.0578 44.3251 74.4285 44.5215L75.8203 45.3626C75.8424 45.3792 75.8701 45.4069 75.8895 45.4235L76.5231 45.9797C76.5452 45.9963 76.5729 46.0239 76.595 46.0405C76.6171 46.0571 76.6476 46.082 76.6697 46.0986L77.5496 47.0311C77.5828 47.0726 77.7626 47.2524 77.818 47.3022C78.4959 47.9275 78.9441 48.5888 79.4283 49.3636L79.7769 50.0442C79.7908 50.0747 79.8074 50.1079 79.8184 50.1383L80.1394 51.281C80.1505 51.3115 80.1698 51.3447 80.1809 51.3723C80.4604 51.9838 80.4189 52.385 80.5932 52.7807C80.8145 53.2842 80.7315 52.5981 80.9197 53.3922C81.0912 54.1116 80.7647 54.5238 80.9612 55.1906C81.2572 56.2061 81.2849 55.7551 80.9805 56.7152C80.8533 57.1136 80.9197 57.7777 80.8948 58.2647C80.8505 59.1196 80.8173 58.6686 80.6457 59.0145C80.4216 59.4655 80.5683 60.1904 80.3718 60.6221L79.5999 61.7952C79.3315 62.2324 79.4781 61.7758 79.2927 62.4371C79.1654 62.8854 79.2927 62.6751 79.0631 63.1012L78.2745 64.1415C78.2579 64.1664 78.2385 64.1996 78.2219 64.2273L76.6808 65.9898C76.061 66.4298 75.2835 67.1353 74.6886 67.1159C74.5586 66.4325 74.3704 66.225 74.221 65.5914C74.1214 65.1653 74.2127 65.2289 74.0439 64.8499L73.4324 63.5356C73.2692 62.8909 73.0811 62.1383 72.7407 61.5877L72.5304 61.1561C72.5138 61.1173 72.4696 61.0039 72.4557 60.9651L71.8498 59.4959C71.6838 58.9232 71.5344 58.6742 71.0778 58.2453C71.0557 58.2259 71.028 58.1983 71.0059 58.1789C70.9838 58.1595 70.9533 58.1346 70.9312 58.1152L69.877 57.4844C69.4232 57.2824 69.3236 57.3322 69.0082 57.6283C68.5904 58.0156 68.369 58.1374 68.2224 58.8125C67.7991 58.901 67.5583 58.9619 67.3287 59.2331C67.1488 59.4461 67.3204 59.2109 67.171 59.4793L66.8998 59.9884C66.3464 60.9181 66.98 61.8838 66.1417 62.7692C65.6353 63.3059 66.0365 63.923 65.7847 64.5483C65.5606 65.1016 65.6962 64.2605 65.5551 65.074C65.3448 66.2804 65.6381 67.8519 65.5219 69.0223C65.1843 69.205 65.0737 69.1053 64.7361 69.2465C64.7057 69.2603 64.6725 69.2769 64.6448 69.288C63.8645 69.6587 64.2104 69.6892 63.8507 70.2564C63.0262 70.2923 62.6858 70.1374 62.304 69.656L62.102 69.3378C62.0107 69.1579 62.0439 69.1551 61.9471 68.9698L60.5802 67.1519C60.298 66.7922 60.4253 66.842 59.9798 66.7369C59.0723 66.5238 59.0833 66.8171 58.5244 67.2266C58.5023 67.2432 58.4691 67.2681 58.447 67.2847C58.4221 67.3013 58.3916 67.3235 58.3667 67.3373L57.1825 67.5116C56.2279 67.3428 56.2777 66.6566 55.135 66.7563C55.135 68.0622 55.3093 68.9698 55.1267 70.154L51.7732 70.2757C51.0898 70.2591 50.4755 70.2868 49.7976 70.3089C49.2111 70.3283 48.583 70.2591 47.9577 70.2923C47.1885 70.3338 46.7402 70.1955 46.1232 70.1927L44.7259 70.367C44.6927 70.3781 44.6623 70.4002 44.6291 70.4113C44.5987 70.4224 44.5682 70.4445 44.5378 70.4556C44.0729 70.6188 44.2915 70.5497 43.9318 70.4086C43.4144 70.2066 41.9812 70.1927 41.3891 70.1844C39.134 70.1457 36.6328 70.3975 34.2754 70.1595C33.2406 70.0544 32.5156 70.7046 31.8931 70.5109C31.4781 70.3809 32.0868 70.3754 31.1571 70.2702C29.7653 70.1125 27.8313 70.3532 25.6261 70.1623C24.7988 70.0904 24.5968 70.2813 23.9189 70.3062C20.1283 70.4418 21.5726 69.9714 20.5073 69.8607C19.6939 69.7777 19.514 70.1817 18.8887 70.2674L17.5467 70.4003C17.2562 70.486 16.3432 70.7544 15.6044 70.4943C15.3775 70.4141 14.4617 70.3698 14.0909 70.1817C13.5873 69.9271 13.0865 69.9299 12.6244 69.6698L10.3473 68.5381C9.94056 68.3417 9.03579 68.1148 8.59862 67.5199C8.41047 67.2626 8.57095 67.4812 8.416 67.1741C8.06184 66.4657 8.28043 66.9444 7.61914 66.5266L6.98829 65.8542C6.94678 65.8072 6.58709 65.4226 6.55942 65.3756C6.17482 64.753 6.12225 64.1 5.33092 63.8427C5.28388 63.0957 5.03209 62.7609 4.71943 62.1051L4.22693 61.0094C3.98621 60.5529 4.18266 60.005 4.07475 59.4378C3.91704 58.5994 3.9115 59.2386 3.76209 58.7323C3.4605 57.7002 3.69292 55.2017 4.00834 54.1282L4.49532 53.0076C4.61706 52.7281 4.6807 52.6091 4.75264 52.1083L6.98829 48.6774C7.00765 48.658 7.03532 48.6303 7.05469 48.611C7.5389 48.1544 8.20018 47.6702 8.81997 47.3991C10.422 46.7018 10.2172 46.4943 12.0821 46.284C12.9288 46.1872 13.0616 45.8634 13.9166 45.9769C14.6775 46.0765 13.8557 46.035 14.7107 46.2148C15.0565 46.2868 15.4024 46.248 15.7676 46.3227L17.1372 46.5054C17.4167 46.5054 17.2507 46.522 17.461 46.439C17.9341 46.248 17.2175 46.4113 17.8041 46.2591C17.7045 45.905 17.7294 46.0073 17.6076 45.7998C17.3005 45.2796 16.653 44.8342 16.274 44.3693L14.2348 42.4546C13.6261 41.7961 13.0533 40.6783 12.8098 40.1L12.5746 39.2948C12.5608 39.2644 12.5442 39.234 12.5304 39.2008C12.5165 39.1703 12.4972 39.1399 12.4861 39.1067C12.4723 39.0735 12.4557 39.0431 12.4446 39.0099C12.3837 38.8411 12.3948 38.8687 12.3588 38.6806C12.1264 37.3968 12.2592 38.1549 11.8193 37.3746C12.1181 36.7216 11.9134 36.1351 11.9825 35.3991L12.4003 33.7085C12.6244 32.8674 12.4474 33.8607 12.7351 32.9863C12.8458 32.6515 12.7545 32.8231 12.8154 32.5353L14.0439 30.1447C14.2624 29.857 14.351 29.4309 14.6526 29.1736C15.2834 28.6368 14.9874 29.1459 15.5352 28.4597C15.7732 28.1609 16.274 27.9672 16.6088 27.7071C16.6309 27.6905 16.6586 27.6656 16.6807 27.649C16.7028 27.6324 16.7333 27.6075 16.7554 27.5909C17.389 27.1482 18.1582 26.8549 18.9551 26.6557C19.6994 26.4703 19.835 26.2766 20.6069 26.1217C21.4287 25.9557 20.5129 26.0636 21.2987 25.8422C21.9876 25.6485 23.6173 25.7786 24.2675 26.011C25.3743 26.4067 25.0257 25.8893 26.0632 26.6972C26.0826 26.7138 26.113 26.7387 26.1324 26.7553C26.4949 27.0043 26.9404 26.8494 27.4384 27.0126C28.1522 27.245 27.3249 27.1261 28.1412 27.3446C28.8799 27.5439 28.7886 27.5826 29.3005 28.0308C29.3199 28.0474 29.3503 28.0723 29.3724 28.0917L30.8168 28.8996C30.8472 28.8581 30.9136 28.9273 30.9662 28.9301C30.9247 27.5411 30.6203 27.5909 31.2069 26.8079L32.8089 24.3536C33.0607 24.0382 33.0496 24.0714 33.3651 23.839C33.7995 23.5153 34.1647 23.2967 34.4829 22.8595C34.5963 22.7018 34.5465 22.7627 34.7098 22.5607C34.7347 22.5302 34.8066 22.4417 34.8343 22.414C34.8537 22.3919 34.8786 22.3615 34.8952 22.3421C35.2936 21.9049 35.8331 21.6006 36.3284 21.31L36.8846 21.0555C37.2581 20.8756 36.9427 21.0693 37.2111 20.859C38.3316 19.993 37.1419 20.7041 38.957 19.9875C39.6238 19.7246 40.2768 19.542 40.8827 19.1602L41.8152 18.5155C42.3741 18.2001 42.9828 18.3329 43.6634 18.2941C43.7686 18.2886 44.0591 18.2748 44.1477 18.2609L44.4797 18.1641C46.3003 17.4779 46.2643 18.355 47.2964 18.2637C47.9521 18.2056 48.2869 17.7325 49.0644 18.0313C49.5569 18.2194 48.7933 17.9317 49.3688 18.236L49.781 18.3661C51.2724 18.5432 50.9625 18.1447 52.44 18.8447C54.0393 19.6001 53.4831 19.4313 54.4792 20.0981L58.1786 22.6907C58.2588 22.7876 58.3556 22.901 58.4276 22.9702L58.7873 23.2579C58.8066 23.2745 58.8371 23.3022 58.8565 23.3188L59.562 24.0631C60.0158 24.6082 60.2786 25.2612 60.6466 25.8616L60.6356 25.8339ZM94.1094 112.886L94.1841 112.847C94.5992 113.085 94.6905 113.019 95.1304 113.149C95.7779 113.342 95.2632 113.301 95.9633 113.301C96.1154 113.301 96.1791 113.376 96.5305 113.376C96.6162 113.376 96.8708 113.425 96.8708 113.301C96.7463 113.301 96.572 113.223 96.4558 113.453L96.417 113.68C96.2621 113.757 96.1652 114.159 96.038 114.286C95.8304 114.493 96.1154 114.419 95.8498 114.552C95.8498 114.947 95.6506 114.825 95.5842 115.044C95.4984 115.329 95.3684 115.326 95.2826 115.537C95.1941 115.752 95.1138 115.653 94.981 115.537C94.6268 115.229 94.8648 115.312 94.6407 114.856C94.4498 114.466 94.3751 114.283 94.3751 113.835C94.3751 113.492 94.2616 113.774 94.2616 113.456C94.2616 113.259 94.1648 112.861 94.1094 112.889V112.886ZM89.2618 102.25C89.8816 101.923 90.4129 102.433 91.1627 102.552C91.752 102.646 91.9098 102.527 92.6125 102.781C92.6624 102.801 92.6319 102.903 93.3873 102.967C93.913 103.008 94.4193 103.05 94.9727 103.061C95.551 103.072 96.1127 103.105 96.6937 103.116C97.5183 103.135 97.7949 103.539 99.8341 103.293C100.418 103.224 100.484 102.994 101.325 103.124C101.406 103.844 101.453 103.714 101.14 104.217L100.7 104.962C100.468 105.476 100.667 105.343 100.307 105.758L99.8092 106.439C99.5685 106.92 99.7567 106.558 99.527 106.943L98.8353 107.944C98.5337 108.379 98.6582 108.456 98.5088 108.843C98.2708 109.452 98.2708 108.973 97.8364 109.574L97.402 110.199C96.9344 110.717 95.8387 110.387 94.4968 110.526C94.0707 110.57 94.2312 110.73 93.7968 110.47C93.3651 110.199 93.9822 110.811 93.6612 110.313C93.5561 110.152 93.581 110.16 93.5063 110.042C92.9197 109.095 92.7205 110.241 92.6734 108.558C91.9402 108.124 92.4853 108.633 92.1781 107.958L91.3868 106.248C91.373 106.223 91.3536 106.19 91.3398 106.165C91.2042 105.902 91.3785 106.342 91.2125 105.902C90.4599 103.932 91.2402 105.742 90.3741 104.237L90.1334 103.827C89.6907 103.058 90.3326 103.678 89.3504 102.386C89.3338 102.363 89.295 102.283 89.2618 102.253V102.25Z" fill="white"/>
<path fill-rule="evenodd" clip-rule="evenodd" d="M96.5723 83.3404L96.8324 83.974C97.2945 84.8013 97.0953 86.1543 97.0621 87.1282C97.0206 88.39 97.3581 92.128 96.7522 92.8253L95.947 93.5889C95.0893 94.2973 94.179 94.0759 93.205 94.289C92.4746 94.4467 92.9892 94.372 92.4607 94.6874L91.8133 95.1024C91.769 95.8412 91.8243 95.7277 91.9406 96.3669L93.573 96.1068C94.2288 95.8606 94.6521 95.9408 95.2996 95.8329C96.2929 95.6696 95.5624 95.44 96.6996 95.4455C98.3459 95.4511 97.4052 95.191 98.0997 94.8064C98.5341 94.5629 99.0708 95.1356 99.4278 95.3266C99.9203 95.5894 100.175 95.7637 100.775 95.8495C101.511 95.9546 101.583 95.8772 102.305 96.1234C102.889 96.3199 103.584 96.3254 104.212 96.2313V95.108L103.805 94.8838C103.783 94.87 103.75 94.8479 103.725 94.8313C101.921 93.7135 101.484 94.5131 100.211 93.7328C99.9812 93.5917 100.407 93.8601 100.059 93.6277L99.2037 92.7865C99.2037 92.7865 99.0376 92.5818 98.974 92.4905L98.8661 92.3438C98.7056 92.0589 98.8633 92.5431 98.7582 92.0838C98.5645 91.2482 98.7333 86.8626 98.7388 85.8195C98.7443 84.9507 98.7609 84.4084 99.0487 83.6724C99.1954 83.2961 99.0764 83.2574 99.7294 83.1771C100.421 83.0941 100.601 83.155 101.306 82.953L102.336 82.8119C103.144 82.621 104.333 82.2198 105.056 81.8213L105.769 81.4865C106.348 81.1877 107.582 79.5055 107.728 78.8525C107.966 77.8011 108.218 77.4137 108.207 76.7552C108.193 76.0413 108.008 75.867 107.621 75.4381C107.596 75.4105 107.524 75.3302 107.499 75.3026C107.482 75.2832 107.455 75.2527 107.438 75.2334L106.965 74.7658C106.943 74.7464 106.909 74.727 106.887 74.7077L105.872 74.027C104.895 73.3574 105.003 73.6037 104.131 73.125L103.869 72.9867C102.646 72.3752 100.878 71.8661 99.4693 71.7997C98.4843 71.7554 98.0056 71.8439 97.1064 71.8882C95.7838 71.9518 95.0007 71.7028 93.8525 72.3226C93.3876 72.5716 93.3683 72.4859 92.8287 72.6214C92.3003 72.7515 91.8825 73.0863 91.4204 73.3104L91.0524 73.4626C91.0247 73.4736 90.9887 73.4902 90.9638 73.5041C90.9362 73.5179 90.903 73.5345 90.8753 73.5483L89.6053 74.3839C88.7835 74.9678 89.4144 74.3646 88.5788 75.1946C88.2495 75.5211 88.0282 75.6761 87.8207 76.1437C87.4803 76.9046 87.8456 77.2062 87.9839 78.075C88.0973 78.7944 88.1333 78.5121 88.3159 79.0711C88.5179 79.6853 88.4543 79.5829 88.8527 80.0229L89.8405 81.2873C90.0563 81.4395 90.0452 81.3869 90.2804 81.4976L91.4868 82.1119C91.7635 82.2032 91.8382 82.1727 92.0678 82.2308L92.2615 82.289C92.2892 82.3 92.3224 82.3166 92.3473 82.3277C92.3722 82.3388 92.4054 82.3581 92.4275 82.372C93.0307 82.7123 92.5603 82.6818 93.2908 82.8091C93.6948 82.8783 94.1513 82.8202 94.5387 82.9281C95.0007 83.0554 94.5138 83.1135 95.3936 83.1716C96.0494 83.2159 95.9775 83.1661 96.5834 83.3542" fill="white"/>
<path fill-rule="evenodd" clip-rule="evenodd" d="M39.1535 37.1864C39.0788 38.5532 39.2282 40.8138 38.899 41.8043C38.7662 42.2055 38.7081 42.1225 38.7385 42.8474C38.7551 43.2403 38.7468 43.7301 38.8658 44.0898C39.0097 44.5214 39.0622 44.1064 39.101 44.942C39.1203 45.3598 39.1342 45.8495 39.1314 46.2673C39.1314 47.659 39.2587 47.4764 38.7911 47.9911C38.7717 48.0132 38.6527 48.1405 38.6334 48.1682C36.7546 48.1682 35.8914 47.6397 35.3408 48.0934C34.5605 48.7354 35.3712 48.9733 35.5593 49.3219C36.0685 50.2627 35.8803 49.7536 36.1681 50.1603C36.5222 50.6584 36.3064 51.0983 37.1946 52.0252L37.5377 52.4845C37.7507 53.0241 37.4685 52.8276 37.8393 53.2426C38.2654 53.7213 38.3733 53.6936 38.697 54.5984L38.8049 54.8889C39.2891 55.8214 38.9958 54.6787 39.6211 55.9182L40.8718 57.606C42.3189 57.6392 42.8307 57.8301 43.5972 56.1949C43.611 56.1672 43.6276 56.134 43.6387 56.1064L43.9154 55.6111C44.7316 54.2885 43.7078 55.5225 44.8561 53.9316L45.1632 53.4335C45.1798 53.4114 45.202 53.381 45.2158 53.3561C45.8301 52.4098 45.2352 53.0323 45.8439 52.4181C46.3447 51.9118 46.0957 51.9754 46.3613 51.4829L47.8278 49.1421C48.0519 48.846 48.0851 48.8184 48.0546 48.3646C47.8167 48.2318 47.4542 48.1598 47.1139 48.0077C46.7127 47.8251 47.4266 47.8278 46.6906 47.8942C46.6435 47.8998 46.317 48.0077 46.2257 48.0243C45.5949 48.1349 44.4189 48.265 43.943 47.9689C43.6746 47.0005 43.9984 43.6083 43.8545 42.1889L43.6082 37.6152C43.5999 37.5848 43.5861 37.5516 43.575 37.5211L43.3565 36.7935H40.6006C40.0722 36.8986 40.2133 36.9954 39.1452 37.1808" fill="white"/>
<path fill-rule="evenodd" clip-rule="evenodd" d="M107.477 81.0109C106.627 82.4082 107.086 81.0414 106.561 82.0209C106.364 82.3833 106.616 82.1205 106.348 82.4469C105.96 82.9173 106.218 82.3031 105.661 83.3296L105.352 84.1099C105.155 85.0755 104.729 85.3965 104.912 87.6681C104.945 88.0914 105.158 88.5009 105.377 88.9325C105.39 88.963 105.41 88.9962 105.426 89.0239C105.789 89.6685 105.753 89.7405 106.093 90.0753C106.743 90.7144 106.688 90.5318 107.275 90.8666L107.958 91.337C108.484 91.5168 110.318 91.6967 111.325 91.2318C111.541 91.1322 111.627 91.1129 111.793 91.0409C112.38 90.7808 113.06 89.8567 113.522 89.3669C114.424 88.4151 113.558 89.4666 114.181 88.3155C114.546 87.6376 114.969 87.3388 115.116 85.7838C115.188 85.0229 115.268 83.8442 114.942 83.3379C114.391 82.4912 113.708 82.1371 113.165 81.8244L111.295 81.0552C111.264 81.0441 111.231 81.0275 111.201 81.0165C110.462 80.7232 110.31 80.5599 109.848 80.5323C109.438 80.5074 108.973 80.5572 108.636 80.701C108.113 80.9252 108.348 80.9418 107.471 81.0165" fill="#EC5E81"/>
<path fill-rule="evenodd" clip-rule="evenodd" d="M79.7344 79.3588C79.7842 79.7822 79.8976 79.9122 80.1134 80.2C80.13 80.2221 80.1549 80.2525 80.1715 80.2747L80.5644 80.9332C80.7941 81.4617 81.1012 81.7965 81.2672 82.6127C81.5688 84.1041 81.4139 83.0748 81.7044 83.8661L81.9811 84.6685C81.9922 84.6989 82.0088 84.7321 82.0198 84.7626C82.0309 84.7958 82.042 84.829 82.053 84.8622L82.3436 85.731C82.6479 86.4504 82.4044 86.4642 82.7033 87.0812L83.3369 88.8078C83.4586 89.2865 83.4143 89.0485 83.7353 89.6046C83.7547 89.6378 83.81 89.7347 83.8294 89.7679L84.0341 90.4043C84.0839 91.4391 83.9484 92.081 84.9251 93.0135C84.7895 92.3466 84.6705 92.4905 84.5211 92.0893C84.3634 91.6604 84.4104 91.1762 84.4077 90.7225C85.2765 90.7225 86.5492 90.2881 86.9283 89.9726C86.9836 89.9284 87.1026 89.8177 87.1441 89.7817L87.3655 89.6019C87.7058 89.2615 87.5481 89.1564 88.2204 88.3789C88.237 88.3595 88.2647 88.3291 88.2813 88.3097L89.0505 87.1034C89.0643 87.0785 89.0892 87.0508 89.1003 87.0259C89.3134 86.6053 89.2774 85.9274 89.258 85.4183C89.2193 84.3448 89.2304 84.3033 88.9177 83.4926C88.9066 83.4621 88.8928 83.4262 88.8817 83.3957C88.8707 83.3625 88.8596 83.3266 88.8485 83.2934C88.7959 83.1467 88.8098 83.1412 88.7461 82.9918L88.1042 81.9348C87.371 80.9083 87.6394 81.4755 87.3074 81.0162C87.1164 80.7506 87.1939 80.6759 86.873 80.4103L85.6002 79.7241C85.0828 79.4916 85.1326 79.4308 84.8061 79.1762C84.2416 78.7418 82.042 78.7142 81.2866 79.2039C80.4178 79.7656 81.27 79.7241 80.4316 79.6743C79.4079 79.6134 80.6751 79.583 79.7399 79.3561" fill="#EC5E81"/>
<path fill-rule="evenodd" clip-rule="evenodd" d="M87.2399 60.3254C87.3063 61.3076 88.4573 61.6729 89.0246 60.7847C89.5973 59.891 88.8447 60.4582 89.8463 59.9242C91.6448 58.9641 90.5879 59.5977 92.0349 58.9336C92.2729 58.823 92.3559 58.8036 92.5938 58.7151L94.3536 58.1589C96.0027 57.9071 102.059 57.7826 103.39 58.2613C103.421 58.2723 103.451 58.289 103.482 58.3C104.671 58.7289 103.897 58.1091 105.313 58.9198C105.797 59.1965 105.789 59.0526 106.464 59.368C106.724 59.4898 106.403 59.4012 106.735 59.4898C106.962 59.5507 106.96 59.5341 107.209 59.5257C107.319 59.0996 107.466 58.9585 107.59 58.6154C106.962 57.9957 107.732 58.3637 106.628 57.885C106.6 57.8739 106.567 57.8573 106.539 57.8435C106.511 57.8324 106.478 57.813 106.448 57.802C106.351 57.7605 106.304 57.7383 106.154 57.6858L105.2 57.3205C105.014 57.2597 105.045 57.2818 104.871 57.2431L102.917 56.6067C102.389 56.4047 101.913 56.5154 101.321 56.4407C100.621 56.3494 100.778 56.1667 99.9953 56.1335L95.8256 56.211C95.1615 56.3687 96.0691 56.2553 95.2473 56.4185C94.5058 56.5679 94.5805 56.2774 93.8002 56.6371C93.2247 56.9027 91.7887 56.9166 90.1728 57.7356C89.1408 58.2585 89.5752 57.896 88.8668 58.5297C88.1364 59.1799 88.1917 58.549 87.5775 59.7471C87.1956 60.4914 87.4585 59.6807 87.2344 60.3254" fill="white"/>
<path fill-rule="evenodd" clip-rule="evenodd" d="M95.9767 11.5088C96.1981 11.531 96.5937 11.5642 96.7985 11.6306L97.7946 12.0788C98.1764 12.231 97.6424 12.1037 98.1875 12.231C98.608 12.3306 98.7436 12.2974 99.059 12.1258L99.297 11.9543C99.7286 11.6001 99.8697 11.2985 100.039 10.6953C100.047 10.6649 100.061 10.6289 100.066 10.5985C100.152 10.1752 99.8116 9.42258 99.6097 9.18463C99.2666 8.77513 99.3551 8.96328 98.8737 8.73086L98.7076 8.64232C98.1238 8.32412 96.7487 8.16918 96.1842 8.70042C95.5977 9.25103 95.8079 10.6483 95.974 11.5088" fill="white"/>
<path fill-rule="evenodd" clip-rule="evenodd" d="M105.416 65.7127L104.967 66.5179C104.821 66.9468 104.851 67.3563 105.042 67.7409C105.067 67.7907 105.119 67.846 105.2 67.9843L105.38 68.3247C105.626 68.7148 105.266 68.4132 105.808 68.6954C106.378 68.9915 107.037 69.2626 107.867 68.6124C108.207 68.344 107.892 68.701 108.249 68.0507C108.473 67.644 108.398 68.0314 108.473 67.5306C108.758 65.6546 106.019 64.9491 105.416 65.7155" fill="white"/>
<path fill-rule="evenodd" clip-rule="evenodd" d="M129.761 10.356L129.756 8.90336C129.08 8.73458 128.881 8.73458 128.225 8.72351C127.307 8.70968 123.909 7.53375 124.548 9.57018C124.689 10.0212 125.005 10.3366 125.467 10.4252C126.112 10.5524 126.327 10.3034 126.978 10.5912C127.608 10.8706 127.647 10.8374 128.261 10.5746C128.837 10.3255 129.014 10.5331 129.761 10.356Z" fill="white"/>
<path fill-rule="evenodd" clip-rule="evenodd" d="M89.6739 68.2089L90.8001 68.8536C90.8305 68.8674 90.8609 68.884 90.8914 68.8951C91.5859 69.1579 91.8349 68.8702 92.2084 68.7042C92.3966 68.6184 92.4325 68.6156 92.6815 68.5464C92.8808 67.5531 93.4258 67.4867 92.7867 66.4768C92.5072 66.0341 92.2859 65.8542 91.7131 65.7768C89.5826 65.489 89.5522 66.5487 89.6712 68.2089" fill="white"/>
</svg>
