<svg width="114" height="38" viewBox="0 0 114 38" fill="none" xmlns="http://www.w3.org/2000/svg">
<path d="M107.861 1.14526H6.06312C3.07268 1.14526 0.648438 3.5695 0.648438 6.55995V30.9804C0.648438 33.9708 3.07268 36.3951 6.06312 36.3951H107.861C110.851 36.3951 113.275 33.9708 113.275 30.9804V6.55995C113.275 3.5695 110.851 1.14526 107.861 1.14526Z" fill="white"/>
<path d="M107.858 37.0394H6.05948C2.71854 37.0394 0 34.3214 0 30.9799V6.55948C0 3.21854 2.718 0.5 6.05948 0.5H107.857C111.198 0.5 113.917 3.21799 113.917 6.55948V30.9799C113.917 34.3209 111.199 37.0394 107.857 37.0394H107.858ZM6.06003 1.79015C3.43001 1.79015 1.29015 3.93 1.29015 6.56002V30.9805C1.29015 33.6105 3.43001 35.7504 6.06003 35.7504H107.858C110.488 35.7504 112.627 33.6105 112.627 30.9805V6.56002C112.627 3.93 110.488 1.79015 107.858 1.79015H6.05948H6.06003Z" fill="black"/>
<path d="M25.3025 23.0391C25.1539 23.4085 25.0129 23.7904 24.8479 24.1615C24.3064 25.3784 23.5572 26.4609 22.6698 27.4478C22.2906 27.8696 21.8496 28.2183 21.3086 28.4215C20.7354 28.6368 20.1573 28.6128 19.584 28.4363C19.1879 28.3144 18.8015 28.1598 18.4086 28.0265C17.8644 27.8418 17.3076 27.7286 16.7289 27.7603C16.2027 27.7893 15.6967 27.9128 15.2054 28.0991C14.7502 28.2713 14.2978 28.4472 13.818 28.5467C13.0874 28.698 12.4464 28.504 11.8628 28.0691C11.265 27.6237 10.7995 27.0527 10.3508 26.4653C9.73498 25.6587 9.20986 24.7992 8.80276 23.8686C8.32899 22.7861 7.97872 21.6653 7.81261 20.4948C7.62736 19.1916 7.63174 17.8911 8.0443 16.6239C8.53336 15.1244 9.43827 13.9605 10.8694 13.2447C11.6355 12.8611 12.4481 12.6769 13.3049 12.725C13.8628 12.7567 14.3901 12.9332 14.9147 13.1157C15.348 13.2665 15.7846 13.4081 16.2169 13.5611C16.5731 13.6873 16.9092 13.6081 17.2485 13.4917C17.8513 13.2851 18.4524 13.0747 19.0605 12.8862C19.7573 12.6704 20.4665 12.6053 21.1966 12.7152C21.9337 12.8261 22.6337 13.0283 23.2796 13.4037C23.8605 13.7414 24.3397 14.1889 24.7348 14.7523C23.1146 15.7332 22.2813 17.1474 22.4162 19.0555C22.5512 20.9588 23.6184 22.2134 25.3031 23.0385L25.3025 23.0391Z" fill="black"/>
<path d="M20.8718 7.72057C20.8718 8.00418 20.8931 8.28231 20.868 8.55553C20.7811 9.51235 20.3642 10.3298 19.7522 11.0522C19.3052 11.5795 18.7899 12.0298 18.1604 12.3314C17.6473 12.5773 17.1074 12.6943 16.526 12.6456C16.4741 12.3571 16.4877 12.0664 16.5282 11.7763C16.6713 10.75 17.1462 9.88611 17.8489 9.14295C18.3096 8.65553 18.8729 8.31127 19.4893 8.05117C19.8931 7.88068 20.3101 7.7621 20.7478 7.72057C20.7827 7.71729 20.8183 7.72057 20.8718 7.72057Z" fill="black"/>
<path d="M33.6641 28.6134L38.2006 16.801H39.8847L44.7197 28.6134H42.9388L41.5607 25.0359H36.6214L35.3242 28.6134H33.6641ZM37.0728 23.7627H41.0776L39.8449 20.4911C39.4689 19.4972 39.1897 18.6808 39.0066 18.0414C38.8563 18.7988 38.6438 19.5507 38.37 20.2977L37.0728 23.7627Z" fill="black"/>
<path d="M45.7812 31.8929V20.0559H47.1025V21.1679C47.414 20.733 47.7659 20.4067 48.1583 20.1887C48.5506 19.9712 49.026 19.8625 49.5845 19.8625C50.3151 19.8625 50.9599 20.0505 51.5183 20.4264C52.0768 20.8024 52.4986 21.333 52.7833 22.0176C53.068 22.7023 53.2107 23.4532 53.2107 24.2695C53.2107 25.1449 53.0533 25.9334 52.7391 26.6345C52.4249 27.3356 51.9681 27.8728 51.3692 28.246C50.7703 28.6192 50.1402 28.8061 49.4796 28.8061C48.996 28.8061 48.5621 28.7039 48.1785 28.5001C47.7943 28.2957 47.479 28.0383 47.2315 27.7263V31.8924H45.7812V31.8929ZM47.0949 24.3832C47.0949 25.4843 47.3178 26.2985 47.7637 26.8247C48.2096 27.3509 48.7495 27.6143 49.3834 27.6143C50.0173 27.6143 50.5801 27.3416 51.0391 26.7963C51.4987 26.2509 51.7282 25.4061 51.7282 24.2619C51.7282 23.1176 51.5041 22.3548 51.0555 21.8122C50.6069 21.2696 50.0714 20.9985 49.4479 20.9985C48.8244 20.9985 48.2834 21.2871 47.808 21.8646C47.3326 22.4422 47.0949 23.2816 47.0949 24.3826V24.3832Z" fill="black"/>
<path d="M54.9609 31.8929V20.0559H56.2822V21.1679C56.5937 20.733 56.9456 20.4067 57.338 20.1887C57.7303 19.9712 58.2057 19.8625 58.7642 19.8625C59.4948 19.8625 60.1396 20.0505 60.698 20.4264C61.2565 20.8024 61.6783 21.333 61.963 22.0176C62.2477 22.7023 62.3903 23.4532 62.3903 24.2695C62.3903 25.1449 62.233 25.9334 61.9188 26.6345C61.6046 27.3356 61.1477 27.8728 60.5488 28.246C59.9499 28.6192 59.3199 28.8061 58.6593 28.8061C58.1757 28.8061 57.7418 28.7039 57.3582 28.5001C56.974 28.2957 56.6587 28.0383 56.4112 27.7263V31.8924H54.9609V31.8929ZM56.2746 24.3832C56.2746 25.4843 56.4975 26.2985 56.9434 26.8247C57.3893 27.3509 57.9292 27.6143 58.5631 27.6143C59.197 27.6143 59.7598 27.3416 60.2188 26.7963C60.6783 26.2509 60.9079 25.4061 60.9079 24.2619C60.9079 23.1176 60.6838 22.3548 60.2352 21.8122C59.7866 21.2696 59.251 20.9985 58.6276 20.9985C58.0041 20.9985 57.4631 21.2871 56.9877 21.8646C56.5123 22.4422 56.2746 23.2816 56.2746 24.3826V24.3832Z" fill="black"/>
<path d="M68.3755 24.8187L69.8504 24.6897C69.9203 25.2804 70.0826 25.7657 70.3378 26.1443C70.593 26.523 70.9892 26.829 71.5263 27.0629C72.0635 27.2968 72.6678 27.4132 73.3394 27.4132C73.9356 27.4132 74.4624 27.3247 74.9186 27.1471C75.3749 26.9695 75.7148 26.7269 75.9377 26.4176C76.1607 26.1088 76.2722 25.7717 76.2722 25.4061C76.2722 25.0405 76.1645 24.7116 75.9498 24.4351C75.735 24.1586 75.3804 23.9263 74.8864 23.7378C74.5695 23.6143 73.8684 23.422 72.7831 23.1619C71.6979 22.9012 70.9378 22.6553 70.5028 22.4247C69.9389 22.1291 69.5187 21.7624 69.2417 21.3247C68.9652 20.887 68.8269 20.3969 68.8269 19.8543C68.8269 19.2581 68.9963 18.7007 69.3346 18.1822C69.6728 17.6636 70.1673 17.2702 70.817 17.0018C71.4673 16.733 72.1897 16.5991 72.9848 16.5991C73.8602 16.5991 74.6328 16.7401 75.3011 17.0221C75.97 17.304 76.4842 17.7193 76.8443 18.2669C77.2044 18.8144 77.3978 19.4351 77.4246 20.128L75.9257 20.2406C75.8454 19.4942 75.5727 18.9297 75.1077 18.5483C74.6432 18.1669 73.9569 17.9761 73.0487 17.9761C72.1405 17.9761 71.4143 18.1494 70.9821 18.4958C70.5498 18.8423 70.3334 19.2597 70.3334 19.7488C70.3334 20.1734 70.4864 20.5226 70.793 20.7963C71.0941 21.0701 71.8793 21.351 73.1498 21.6384C74.4203 21.9258 75.2918 22.1772 75.7645 22.3919C76.4519 22.7089 76.9596 23.1105 77.2875 23.5968C77.6153 24.0832 77.7787 24.6433 77.7787 25.2771C77.7787 25.911 77.5989 26.4979 77.2388 27.0536C76.8787 27.6094 76.3618 28.0421 75.6875 28.3509C75.0132 28.6596 74.2547 28.8143 73.411 28.8143C72.3422 28.8143 71.446 28.6585 70.7236 28.3471C70.0012 28.0356 69.4345 27.5667 69.0236 26.9411C68.6127 26.3154 68.3963 25.6077 68.375 24.8176L68.3755 24.8187Z" fill="black"/>
<path d="M82.8936 27.3164L83.1028 28.5978C82.6947 28.6836 82.3291 28.7267 82.0072 28.7267C81.481 28.7267 81.0723 28.6437 80.7827 28.477C80.4925 28.3103 80.2887 28.0918 80.1701 27.8202C80.0521 27.5492 79.9931 26.9781 79.9931 26.1076V21.1842H78.9297V20.0564H79.9931V17.9373L81.4357 17.0668V20.0564H82.8941V21.1842H81.4357V26.188C81.4357 26.6016 81.4613 26.8677 81.5122 26.9858C81.563 27.1038 81.6466 27.1978 81.7619 27.2677C81.8772 27.3377 82.0428 27.3726 82.2575 27.3726C82.4187 27.3726 82.6307 27.3541 82.8941 27.3164H82.8936Z" fill="black"/>
<path d="M83.774 24.3346C83.774 22.7499 84.2144 21.5761 85.0953 20.8133C85.8313 20.1794 86.7281 19.8625 87.7865 19.8625C88.963 19.8625 89.9247 20.2477 90.6712 21.0188C91.4176 21.7898 91.7914 22.8548 91.7914 24.2138C91.7914 25.3149 91.6263 26.181 91.2958 26.8127C90.9652 27.4438 90.4848 27.934 89.8531 28.2831C89.222 28.6323 88.5329 28.8066 87.7865 28.8066C86.5887 28.8066 85.6204 28.4225 84.8816 27.6542C84.1428 26.8859 83.7734 25.7793 83.7734 24.3346H83.774ZM85.2647 24.3346C85.2647 25.4302 85.5035 26.2509 85.9816 26.7963C86.4597 27.3416 87.0614 27.6143 87.7865 27.6143C88.5116 27.6143 89.1051 27.3405 89.5832 26.7924C90.0613 26.2444 90.3001 25.4094 90.3001 24.2865C90.3001 23.228 90.0597 22.4264 89.5788 21.881C89.098 21.3357 88.5007 21.063 87.786 21.063C87.0712 21.063 86.4592 21.3341 85.9811 21.8767C85.5029 22.4193 85.2641 23.2384 85.2641 24.3346H85.2647Z" fill="black"/>
<path d="M93.4766 28.6132V20.0559H94.782V21.3532C95.1148 20.7461 95.4224 20.3461 95.7044 20.1526C95.9864 19.9592 96.2967 19.8625 96.635 19.8625C97.1241 19.8625 97.6208 20.0182 98.1257 20.3297L97.6262 21.6756C97.2716 21.4663 96.917 21.3614 96.5629 21.3614C96.2459 21.3614 95.9612 21.4565 95.7088 21.6472C95.4563 21.8379 95.2765 22.1023 95.1689 22.4406C95.0077 22.9564 94.9274 23.5204 94.9274 24.1329V28.6132H93.4771H93.4766Z" fill="black"/>
<path d="M104.85 25.8574L106.349 26.0427C106.112 26.9181 105.674 27.5978 105.035 28.0814C104.396 28.565 103.579 28.8066 102.585 28.8066C101.333 28.8066 100.341 28.4213 99.6078 27.6503C98.8745 26.8793 98.5078 25.7984 98.5078 24.4072C98.5078 23.0159 98.8783 21.8504 99.6198 21.0553C100.361 20.2602 101.323 19.863 102.504 19.863C103.686 19.863 104.583 20.2526 105.309 21.0313C106.034 21.8099 106.397 22.9061 106.397 24.3187C106.397 24.4044 106.394 24.5334 106.389 24.7055H100.007C100.06 25.6454 100.326 26.3656 100.805 26.8651C101.283 27.3645 101.879 27.6142 102.594 27.6142C103.125 27.6142 103.579 27.4743 103.955 27.1951C104.331 26.9159 104.63 26.47 104.85 25.8574ZM100.088 23.5127H104.866C104.801 22.793 104.619 22.2531 104.318 21.893C103.856 21.3345 103.256 21.0548 102.521 21.0548C101.855 21.0548 101.295 21.2777 100.841 21.7236C100.386 22.1695 100.136 22.7657 100.087 23.5127H100.088Z" fill="black"/>
<path d="M33.6641 15.1789V8.63092H35.9198C36.4291 8.63092 36.8176 8.66207 37.0853 8.72491C37.4607 8.81124 37.7804 8.96753 38.0454 9.19376C38.3908 9.48556 38.6492 9.85877 38.8203 10.3129C38.9913 10.767 39.0771 11.2861 39.0771 11.8697C39.0771 12.3669 39.0192 12.8079 38.9028 13.1915C38.7864 13.5757 38.6378 13.8937 38.4563 14.1451C38.2749 14.3964 38.076 14.5948 37.8602 14.739C37.6443 14.8833 37.3837 14.9931 37.0788 15.0674C36.7733 15.1418 36.423 15.1789 36.0269 15.1789H33.6641ZM34.5307 14.4063H35.9285C36.3602 14.4063 36.699 14.3658 36.9449 14.2855C37.1908 14.2052 37.3864 14.0921 37.5323 13.9462C37.7378 13.7407 37.8979 13.4647 38.0126 13.1177C38.1274 12.7708 38.1848 12.35 38.1848 11.856C38.1848 11.1713 38.0722 10.6446 37.8476 10.2768C37.623 9.90905 37.3498 9.66261 37.0279 9.53747C36.7957 9.4484 36.422 9.40359 35.9067 9.40359H34.5307V14.4063Z" fill="black"/>
<path d="M39.8677 12.8071C39.8677 11.9285 40.112 11.2782 40.6005 10.8553C41.0087 10.5039 41.506 10.3279 42.0923 10.3279C42.7442 10.3279 43.2775 10.5416 43.6912 10.9689C44.1048 11.3962 44.3119 11.9864 44.3119 12.7399C44.3119 13.3503 44.2201 13.8306 44.0371 14.1804C43.854 14.5301 43.5874 14.8022 43.2376 14.9956C42.8879 15.1891 42.5059 15.2858 42.0917 15.2858C41.4278 15.2858 40.8912 15.0727 40.4814 14.647C40.0721 14.2213 39.8672 13.6077 39.8672 12.8066L39.8677 12.8071ZM40.694 12.8071C40.694 13.4148 40.8262 13.8694 41.0912 14.1716C41.3562 14.4738 41.6896 14.6252 42.0917 14.6252C42.4939 14.6252 42.8229 14.4732 43.0879 14.1694C43.3529 13.8656 43.4852 13.4028 43.4852 12.7804C43.4852 12.1935 43.3518 11.7492 43.0852 11.4471C42.8185 11.1449 42.4874 10.9935 42.0912 10.9935C41.695 10.9935 41.3557 11.1438 41.0907 11.4449C40.8256 11.7454 40.6934 12.1995 40.6934 12.8071H40.694Z" fill="black"/>
<path d="M46.1316 15.1787L44.6797 10.4351H45.5103L46.2649 13.1733L46.5463 14.1918C46.5584 14.141 46.6403 13.8153 46.7922 13.2137L47.5469 10.4356H48.3731L49.0835 13.1869L49.3201 14.0935L49.5927 13.1776L50.4058 10.4351H51.1873L49.7042 15.1787H48.8687L48.1141 12.3378L47.931 11.5296L46.9709 15.1787H46.131H46.1316Z" fill="black"/>
<path d="M51.8594 15.1789V10.4352H52.5829V11.1095C52.9315 10.5882 53.4348 10.3281 54.0927 10.3281C54.3785 10.3281 54.6413 10.3795 54.8812 10.4822C55.1211 10.5849 55.3003 10.7199 55.4194 10.8866C55.5386 11.0533 55.6222 11.2516 55.6697 11.4806C55.6992 11.6292 55.7145 11.8899 55.7145 12.262V15.1789H54.9107V12.2937C54.9107 11.9664 54.8796 11.721 54.8167 11.5587C54.7544 11.3964 54.6435 11.2669 54.4839 11.1702C54.3244 11.0735 54.138 11.0248 53.9233 11.0248C53.5807 11.0248 53.285 11.1336 53.0364 11.3511C52.7878 11.5685 52.6632 11.9811 52.6632 12.5882V15.1789H51.8594Z" fill="black"/>
<path d="M56.9297 15.1794V8.63141H57.7335V15.1794H56.9297Z" fill="black"/>
<path d="M58.6802 12.8071C58.6802 11.9285 58.9245 11.2782 59.413 10.8553C59.8212 10.5039 60.3185 10.3279 60.9048 10.3279C61.5567 10.3279 62.09 10.5416 62.5037 10.9689C62.9173 11.3962 63.1244 11.9864 63.1244 12.7399C63.1244 13.3503 63.0326 13.8306 62.8496 14.1804C62.6665 14.5301 62.3999 14.8022 62.0501 14.9956C61.7004 15.1891 61.3185 15.2858 60.9043 15.2858C60.2403 15.2858 59.7037 15.0727 59.2939 14.647C58.8846 14.2213 58.6797 13.6077 58.6797 12.8066L58.6802 12.8071ZM59.5065 12.8071C59.5065 13.4148 59.6387 13.8694 59.9037 14.1716C60.1687 14.4738 60.5021 14.6252 60.9043 14.6252C61.3064 14.6252 61.6354 14.4732 61.9004 14.1694C62.1654 13.8656 62.2977 13.4028 62.2977 12.7804C62.2977 12.1935 62.1643 11.7492 61.8977 11.4471C61.631 11.1449 61.2999 10.9935 60.9037 10.9935C60.5075 10.9935 60.1682 11.1438 59.9032 11.4449C59.6381 11.7454 59.5059 12.1995 59.5059 12.8071H59.5065Z" fill="black"/>
<path d="M67.1651 14.5933C66.8673 14.8463 66.581 15.025 66.305 15.1293C66.0296 15.2337 65.734 15.2856 65.4182 15.2856C64.8969 15.2856 64.4963 15.1583 64.2165 14.9036C63.9368 14.649 63.7969 14.3239 63.7969 13.9277C63.7969 13.6955 63.8499 13.4834 63.9553 13.2911C64.0608 13.0993 64.1996 12.9452 64.3706 12.8288C64.5417 12.7124 64.7346 12.625 64.9493 12.5654C65.1072 12.5239 65.3455 12.4835 65.6641 12.4447C66.3132 12.3671 66.7914 12.2747 67.0979 12.1676C67.1007 12.0572 67.1023 11.9873 67.1023 11.9578C67.1023 11.6305 67.0263 11.3993 66.8744 11.2654C66.669 11.084 66.3635 10.9928 65.9586 10.9928C65.5805 10.9928 65.3012 11.0589 65.1209 11.1917C64.9406 11.3239 64.8072 11.5589 64.7209 11.8949L63.9346 11.7878C64.0062 11.4512 64.1236 11.1797 64.2876 10.9726C64.4515 10.7654 64.6881 10.6064 64.998 10.4944C65.3078 10.3824 65.6662 10.3267 66.0744 10.3267C66.4826 10.3267 66.8083 10.3742 67.0613 10.4698C67.3143 10.5649 67.5006 10.6851 67.6198 10.8294C67.7389 10.9736 67.8225 11.1562 67.87 11.3764C67.8968 11.5135 67.9105 11.7605 67.9105 12.1179V13.19C67.9105 13.9375 67.9274 14.4102 67.9618 14.608C67.9963 14.8058 68.064 14.996 68.1651 15.1774H67.3252C67.2416 15.0108 67.1881 14.8157 67.1646 14.5922L67.1651 14.5933ZM67.0979 12.7977C66.8061 12.9168 66.3684 13.0179 65.7848 13.1015C65.4542 13.149 65.2203 13.2026 65.0837 13.2621C64.9466 13.3217 64.8411 13.4086 64.7668 13.5233C64.6925 13.6381 64.6553 13.7654 64.6553 13.9053C64.6553 14.1195 64.7362 14.2982 64.8985 14.4414C65.0608 14.5845 65.2985 14.6556 65.6111 14.6556C65.9236 14.6556 66.1963 14.5878 66.4373 14.4523C66.6783 14.3168 66.8558 14.1315 66.969 13.896C67.0553 13.7146 67.0985 13.4463 67.0985 13.0922V12.7977H67.0979Z" fill="black"/>
<path d="M72.2355 15.1789V14.5806C71.9349 15.0511 71.4923 15.286 70.9087 15.286C70.5306 15.286 70.183 15.1817 69.8655 14.9735C69.5486 14.7653 69.3027 14.474 69.1284 14.1003C68.9541 13.7265 68.8672 13.297 68.8672 12.8117C68.8672 12.3265 68.9459 11.9085 69.1038 11.5232C69.2617 11.1374 69.4983 10.8418 69.8142 10.6364C70.13 10.4309 70.4825 10.3282 70.8726 10.3282C71.1584 10.3282 71.4131 10.3883 71.6366 10.509C71.86 10.6298 72.0415 10.7866 72.1814 10.9801V8.63037H72.9808V15.1784H72.2349L72.2355 15.1789ZM69.694 12.8117C69.694 13.4194 69.8218 13.8735 70.0781 14.174C70.3344 14.4746 70.6366 14.6254 70.9846 14.6254C71.3327 14.6254 71.6344 14.4817 71.8803 14.1942C72.1262 13.9068 72.2486 13.4686 72.2486 12.8789C72.2486 12.2298 72.1234 11.7533 71.8732 11.4495C71.6229 11.1456 71.3147 10.9937 70.9486 10.9937C70.5825 10.9937 70.2929 11.1396 70.053 11.4314C69.8131 11.7232 69.6934 12.1833 69.6934 12.8117H69.694Z" fill="black"/>
<path d="M76.4849 12.8073C76.4849 11.9287 76.7292 11.2784 77.2177 10.8554C77.6259 10.5041 78.1231 10.3281 78.7095 10.3281C79.3614 10.3281 79.8947 10.5418 80.3084 10.9691C80.722 11.3964 80.9291 11.9866 80.9291 12.7401C80.9291 13.3505 80.8373 13.8308 80.6543 14.1805C80.4712 14.5303 80.2045 14.8024 79.8548 14.9958C79.5051 15.1893 79.1231 15.286 78.7089 15.286C78.045 15.286 77.5084 15.0729 77.0986 14.6472C76.6893 14.2215 76.4844 13.6079 76.4844 12.8068L76.4849 12.8073ZM77.3111 12.8073C77.3111 13.415 77.4439 13.8696 77.7084 14.1718C77.9734 14.474 78.3068 14.6253 78.7089 14.6253C79.1111 14.6253 79.4401 14.4734 79.7051 14.1696C79.9701 13.8658 80.1024 13.4029 80.1024 12.7806C80.1024 12.1937 79.969 11.7494 79.7024 11.4472C79.4357 11.1451 79.1046 10.9937 78.7084 10.9937C78.3122 10.9937 77.9729 11.144 77.7079 11.445C77.4428 11.7456 77.3106 12.1997 77.3106 12.8073H77.3111Z" fill="black"/>
<path d="M81.875 15.1787V10.435H82.5985V11.1093C82.9471 10.588 83.4504 10.3279 84.1083 10.3279C84.3941 10.3279 84.6569 10.3793 84.8968 10.482C85.1367 10.5848 85.3159 10.7197 85.4351 10.8864C85.5542 11.0531 85.6378 11.2514 85.6853 11.4804C85.7154 11.629 85.7301 11.8897 85.7301 12.2618V15.1787H84.9263V12.2935C84.9263 11.9662 84.8952 11.7208 84.8323 11.5585C84.7695 11.3962 84.6591 11.2667 84.4995 11.17C84.34 11.0733 84.1537 11.0247 83.9389 11.0247C83.5963 11.0247 83.3007 11.1334 83.052 11.3509C82.8034 11.5684 82.6788 11.9809 82.6788 12.588V15.1787H81.875Z" fill="black"/>
<path d="M91.2598 14.4599L91.3761 15.1702C91.1499 15.2178 90.9472 15.2418 90.7685 15.2418C90.4767 15.2418 90.2505 15.1959 90.0898 15.1036C89.9292 15.0112 89.816 14.8899 89.7505 14.7396C89.6849 14.5894 89.6521 14.273 89.6521 13.7905V11.0615H89.0625V10.4364H89.6521V9.26156L90.4516 8.77905V10.4364H91.2598V11.0615H90.4516V13.8353C90.4516 14.0648 90.4658 14.2118 90.4942 14.2773C90.5226 14.3429 90.5685 14.3948 90.6324 14.4336C90.6964 14.4724 90.7882 14.4915 90.9073 14.4915C90.9964 14.4915 91.1144 14.4812 91.2603 14.4604L91.2598 14.4599Z" fill="black"/>
<path d="M92.0391 15.1794V8.63141H92.8429V10.9811C93.2183 10.5461 93.6915 10.3292 94.2631 10.3292C94.6144 10.3292 94.9199 10.3986 95.1789 10.5368C95.4379 10.6751 95.6232 10.8669 95.7352 11.1106C95.8467 11.3549 95.9029 11.709 95.9029 12.1734V15.1794H95.0991V12.1734C95.0991 11.7713 95.0122 11.4789 94.8379 11.2959C94.6636 11.1128 94.4172 11.021 94.0986 11.021C93.8603 11.021 93.6363 11.0827 93.4265 11.2062C93.2167 11.3297 93.0669 11.4975 92.9778 11.709C92.8888 11.9204 92.844 12.2122 92.844 12.5844V15.1794H92.0402H92.0391Z" fill="black"/>
<path d="M100.375 13.6508L101.205 13.7536C101.074 14.2388 100.831 14.6159 100.477 14.8836C100.123 15.1514 99.6703 15.2858 99.1195 15.2858C98.4255 15.2858 97.8758 15.0721 97.4692 14.6448C97.0627 14.2175 96.8594 13.6181 96.8594 12.847C96.8594 12.076 97.0648 11.4296 97.4758 10.9891C97.8867 10.5487 98.4195 10.3279 99.0746 10.3279C99.7298 10.3279 100.227 10.5438 100.629 10.9755C101.031 11.4072 101.232 12.0148 101.232 12.7979C101.232 12.8454 101.23 12.917 101.228 13.0121H97.69C97.72 13.5334 97.867 13.9323 98.132 14.2093C98.3971 14.4864 98.7277 14.6246 99.1238 14.6246C99.4184 14.6246 99.6703 14.547 99.8785 14.3924C100.087 14.2377 100.252 13.9902 100.374 13.6508H100.375ZM97.7348 12.3509H100.383C100.348 11.952 100.246 11.6525 100.08 11.4531C99.8233 11.1432 99.4916 10.9886 99.0834 10.9886C98.714 10.9886 98.4036 11.1121 98.1523 11.3591C97.9009 11.6061 97.7616 11.9367 97.7348 12.3509Z" fill="black"/>
</svg>
