<svg width="115" height="38" viewBox="0 0 115 38" fill="none" xmlns="http://www.w3.org/2000/svg">
<path d="M108.798 1.14526H7.00062C4.01018 1.14526 1.58594 3.5695 1.58594 6.55995V30.9804C1.58594 33.9708 4.01018 36.3951 7.00062 36.3951H108.798C111.789 36.3951 114.213 33.9708 114.213 30.9804V6.55995C114.213 3.5695 111.789 1.14526 108.798 1.14526Z" fill="white"/>
<path d="M108.795 37.0394H6.99698C3.65604 37.0394 0.9375 34.3214 0.9375 30.9799V6.55949C0.9375 3.21855 3.6555 0.5 6.99698 0.5H108.795C112.136 0.5 114.854 3.21801 114.854 6.55949V30.9799C114.854 34.3209 112.136 37.0394 108.795 37.0394H108.795ZM6.99753 1.78961C4.36751 1.78961 2.22765 3.92947 2.22765 6.55949V30.9799C2.22765 33.61 4.36751 35.7498 6.99753 35.7498H108.795C111.425 35.7498 113.565 33.61 113.565 30.9799V6.55949C113.565 3.92947 111.425 1.78961 108.795 1.78961H6.99698H6.99753Z" fill="black"/>
<path d="M38.9073 24.4336V22.8642H42.9608V26.5746C42.5668 26.956 41.9963 27.2915 41.2483 27.5817C40.5007 27.8718 39.7434 28.0166 38.9767 28.0166C38.0024 28.0166 37.1532 27.8123 36.4292 27.4035C35.7052 26.9948 35.1604 26.4101 34.7964 25.65C34.432 24.8899 34.25 24.0626 34.25 23.1692C34.25 22.1992 34.4533 21.3375 34.8598 20.5834C35.2664 19.8293 35.8615 19.2512 36.645 18.849C37.2423 18.5397 37.9855 18.3851 38.8751 18.3851C40.0313 18.3851 40.9346 18.6277 41.5849 19.1124C42.2351 19.5976 42.6532 20.2676 42.8395 21.1233L40.9718 21.4725C40.8406 21.0151 40.5936 20.6539 40.2313 20.3894C39.869 20.1249 39.4171 19.9922 38.8751 19.9922C38.0532 19.9922 37.4002 20.2528 36.915 20.7736C36.4298 21.2943 36.1877 22.0675 36.1877 23.0927C36.1877 24.1981 36.4336 25.0271 36.9248 25.5801C37.4161 26.1331 38.0598 26.409 38.8565 26.409C39.2505 26.409 39.6456 26.332 40.0412 26.1773C40.4373 26.0227 40.7772 25.8353 41.0608 25.615V24.4331H38.9068L38.9073 24.4336Z" fill="black"/>
<path d="M44.2734 24.3894C44.2734 23.7965 44.4193 23.2222 44.7117 22.6675C45.004 22.1129 45.4182 21.6888 45.9537 21.397C46.4898 21.1047 47.0876 20.9588 47.7488 20.9588C48.7696 20.9588 49.6062 21.2905 50.2586 21.9533C50.9111 22.6162 51.2373 23.4538 51.2373 24.4664C51.2373 25.479 50.9078 26.333 50.2493 27.0046C49.5909 27.6762 48.7614 28.0117 47.7619 28.0117C47.1433 28.0117 46.5537 27.8718 45.9925 27.5926C45.4314 27.3128 45.0046 26.903 44.7122 26.3631C44.4199 25.8232 44.274 25.1653 44.274 24.3905L44.2734 24.3894ZM46.1035 24.4844C46.1035 25.1538 46.2625 25.6664 46.58 26.0221C46.8975 26.3779 47.2892 26.556 47.7554 26.556C48.2215 26.556 48.6122 26.3779 48.9275 26.0221C49.2428 25.6664 49.4007 25.1495 49.4007 24.4719C49.4007 23.7943 49.2428 23.303 48.9275 22.9467C48.6122 22.591 48.2209 22.4129 47.7554 22.4129C47.2898 22.4129 46.8975 22.591 46.58 22.9467C46.2625 23.3025 46.1035 23.815 46.1035 24.4844Z" fill="black"/>
<path d="M52.2188 24.3894C52.2188 23.7965 52.3646 23.2222 52.657 22.6675C52.9493 22.1129 53.3635 21.6888 53.8991 21.397C54.4351 21.1047 55.0329 20.9588 55.6941 20.9588C56.7149 20.9588 57.5515 21.2905 58.2039 21.9533C58.8564 22.6162 59.1826 23.4538 59.1826 24.4664C59.1826 25.479 58.8531 26.333 58.1946 27.0046C57.5362 27.6762 56.7067 28.0117 55.7072 28.0117C55.0887 28.0117 54.499 27.8718 53.9379 27.5926C53.3767 27.3128 52.9499 26.903 52.6575 26.3631C52.3652 25.8232 52.2193 25.1653 52.2193 24.3905L52.2188 24.3894ZM54.0488 24.4844C54.0488 25.1538 54.2078 25.6664 54.5253 26.0221C54.8428 26.3779 55.2346 26.556 55.7007 26.556C56.1668 26.556 56.5575 26.3779 56.8728 26.0221C57.1881 25.6664 57.346 25.1495 57.346 24.4719C57.346 23.7943 57.1881 23.303 56.8728 22.9467C56.5575 22.591 56.1662 22.4129 55.7007 22.4129C55.2351 22.4129 54.8428 22.591 54.5253 22.9467C54.2078 23.3025 54.0488 23.815 54.0488 24.4844Z" fill="black"/>
<path d="M60.4152 28.303L62.4545 28.5505C62.4884 28.7877 62.5665 28.951 62.6895 29.0396C62.8589 29.1669 63.1255 29.2303 63.49 29.2303C63.9561 29.2303 64.3053 29.1603 64.5381 29.0204C64.6949 28.927 64.8135 28.7767 64.8938 28.5691C64.949 28.421 64.9763 28.1478 64.9763 27.7494V26.7647C64.4425 27.4931 63.7693 27.8576 62.9562 27.8576C62.0496 27.8576 61.3316 27.474 60.8021 26.7074C60.3868 26.1019 60.1797 25.3478 60.1797 24.4456C60.1797 23.3145 60.4518 22.4506 60.9961 21.8533C61.5403 21.2561 62.2168 20.9577 63.0261 20.9577C63.8354 20.9577 64.549 21.3244 65.0911 22.0571V21.1107H66.7621V27.1658C66.7621 27.962 66.6965 28.5571 66.5654 28.951C66.4342 29.345 66.2501 29.6543 66.0124 29.8789C65.7752 30.1035 65.4589 30.2794 65.0627 30.4062C64.6665 30.533 64.166 30.5969 63.56 30.5969C62.4163 30.5969 61.6053 30.4013 61.1267 30.0089C60.648 29.6171 60.4086 29.1204 60.4086 28.5188C60.4086 28.4592 60.4108 28.3877 60.4152 28.303ZM62.0097 24.3445C62.0097 25.0604 62.1485 25.5844 62.4261 25.9172C62.7037 26.2494 63.0458 26.4161 63.4523 26.4161C63.8884 26.4161 64.2572 26.2456 64.5578 25.9046C64.8583 25.5637 65.0091 25.0587 65.0091 24.3894C65.0091 23.72 64.8649 23.1713 64.5769 22.8325C64.2889 22.4938 63.9244 22.3244 63.484 22.3244C63.0436 22.3244 62.7037 22.4905 62.4261 22.8232C62.1485 23.1555 62.0097 23.6631 62.0097 24.3451V24.3445Z" fill="black"/>
<path d="M68.5234 27.8588V18.5447H70.3087V27.8588H68.5234Z" fill="black"/>
<path d="M76.0528 25.7106L77.832 26.009C77.6031 26.6614 77.2424 27.1582 76.749 27.4991C76.2555 27.8401 75.6381 28.0106 74.8971 28.0106C73.7239 28.0106 72.8556 27.6276 72.2922 26.8604C71.8474 26.2462 71.625 25.4713 71.625 24.5347C71.625 23.4167 71.9173 22.5407 72.502 21.9074C73.0867 21.2741 73.8255 20.9577 74.7195 20.9577C75.7233 20.9577 76.5156 21.2894 77.096 21.9522C77.6763 22.6151 77.9539 23.6303 77.9282 24.9986H73.4556C73.4681 25.5281 73.6124 25.9402 73.8878 26.2341C74.1632 26.5281 74.5064 26.6757 74.9173 26.6757C75.1971 26.6757 75.432 26.5992 75.6228 26.4467C75.8135 26.2942 75.9572 26.0483 76.055 25.7096L76.0528 25.7106ZM76.1544 23.9063C76.1419 23.3894 76.0085 22.9965 75.7539 22.7276C75.4998 22.4588 75.1905 22.3244 74.826 22.3244C74.4364 22.3244 74.1146 22.4664 73.8605 22.75C73.6064 23.0336 73.4813 23.4194 73.4856 23.9063H76.1539H76.1544Z" fill="black"/>
<path d="M83.0089 27.8588V18.5447H86.0269C87.1706 18.5447 87.9159 18.5912 88.2635 18.6846C88.7974 18.8245 89.2438 19.1283 89.6039 19.5961C89.964 20.0644 90.1438 20.6688 90.1438 21.4103C90.1438 21.9818 90.04 22.4627 89.8323 22.8523C89.6247 23.2419 89.3613 23.5479 89.0411 23.7703C88.7214 23.9927 88.3963 24.1397 88.0657 24.2119C87.6165 24.3009 86.9662 24.3452 86.1149 24.3452H84.8887V27.8588H83.0078H83.0089ZM84.8898 20.1201V22.7633H85.9193C86.6602 22.7633 87.1558 22.7146 87.4061 22.6174C87.6558 22.5201 87.852 22.3676 87.9941 22.16C88.1362 21.9523 88.2072 21.7108 88.2072 21.436C88.2072 21.0972 88.1077 20.8174 87.9088 20.5972C87.7099 20.3769 87.4575 20.2393 87.1526 20.1841C86.928 20.1414 86.4772 20.1207 85.799 20.1207H84.8903L84.8898 20.1201Z" fill="black"/>
<path d="M91.6719 27.8588V18.5447H93.4571V27.8588H91.6719Z" fill="black"/>
<path d="M96.6247 23.1686L95.0045 22.8762C95.1864 22.2238 95.5001 21.7413 95.9449 21.4276C96.3897 21.114 97.0503 20.9577 97.9274 20.9577C98.7235 20.9577 99.3164 21.0517 99.7066 21.2402C100.096 21.4287 100.371 21.6681 100.53 21.9582C100.689 22.2484 100.768 22.7812 100.768 23.556L100.749 25.6402C100.749 26.233 100.777 26.6707 100.834 26.9522C100.892 27.2336 100.998 27.5358 101.155 27.8576H99.3891C99.3427 27.739 99.2853 27.5631 99.2175 27.3303C99.188 27.2243 99.1667 27.1543 99.1541 27.1205C98.8492 27.4172 98.523 27.6396 98.1755 27.7877C97.8279 27.9358 97.4574 28.0101 97.0635 28.0101C96.3689 28.0101 95.8214 27.8215 95.4209 27.4445C95.0203 27.0675 94.8203 26.591 94.8203 26.015C94.8203 25.6336 94.9116 25.2937 95.0935 24.9953C95.2755 24.697 95.5307 24.468 95.8591 24.309C96.1875 24.15 96.6607 24.0112 97.2793 23.8926C98.1137 23.7358 98.6918 23.5899 99.0137 23.4544V23.2762C99.0137 22.9331 98.929 22.6883 98.7596 22.5424C98.5902 22.3965 98.2705 22.3233 97.8001 22.3233C97.4826 22.3233 97.2345 22.3855 97.0569 22.5107C96.8788 22.6358 96.735 22.8549 96.6247 23.1681V23.1686ZM99.0137 24.6172C98.7847 24.6937 98.423 24.7844 97.9274 24.8904C97.4318 24.9964 97.1077 25.1003 96.9553 25.2019C96.7225 25.3669 96.6061 25.5768 96.6061 25.8309C96.6061 26.085 96.6995 26.297 96.8859 26.4789C97.0722 26.6609 97.3094 26.7522 97.5973 26.7522C97.9192 26.7522 98.2263 26.6462 98.5186 26.4347C98.7345 26.2735 98.8765 26.0768 98.9443 25.844C98.9907 25.6915 99.0142 25.4014 99.0142 24.9735V24.6178L99.0137 24.6172Z" fill="black"/>
<path d="M101.68 21.1101H103.58L105.193 25.9007L106.769 21.1101H108.618L106.235 27.6035L105.81 28.7788C105.653 29.1728 105.504 29.4734 105.362 29.681C105.22 29.8887 105.057 30.057 104.873 30.1859C104.688 30.3149 104.462 30.416 104.193 30.4876C103.924 30.5597 103.62 30.5958 103.281 30.5958C102.943 30.5958 102.602 30.5597 102.271 30.4876L102.112 29.0898C102.392 29.145 102.644 29.1723 102.868 29.1723C103.283 29.1723 103.591 29.0504 103.79 28.8067C103.988 28.563 104.141 28.2526 104.247 27.8761L101.68 21.1096L101.68 21.1101Z" fill="black"/>
<path d="M36.9303 12.6235V11.8546L39.192 11.8503V14.2721C38.8456 14.6098 38.4871 14.8639 38.1166 15.0344C37.7461 15.2049 37.3658 15.2901 36.9746 15.2901C36.4532 15.2901 35.9882 15.1595 35.5789 14.8988C35.1702 14.6382 34.8467 14.2573 34.6079 13.7562C34.3697 13.2551 34.25 12.6535 34.25 11.9508C34.25 11.2481 34.3702 10.6197 34.6101 10.0923C34.85 9.56448 35.1642 9.17542 35.5522 8.92515C35.9401 8.67434 36.3997 8.54919 36.9297 8.54919C37.321 8.54919 37.6631 8.62187 37.9565 8.76668C38.25 8.91203 38.4915 9.11749 38.6811 9.38416C38.8707 9.65082 39.0128 10.0164 39.1079 10.482L38.4724 10.6951C38.3866 10.3279 38.2784 10.053 38.1478 9.8705C38.0172 9.68853 37.8456 9.54536 37.6325 9.44154C37.4194 9.33771 37.1795 9.2858 36.9128 9.2858C36.5248 9.2858 36.191 9.37979 35.9106 9.56831C35.6309 9.75629 35.4057 10.0492 35.2352 10.4464C35.0647 10.8437 34.9795 11.3284 34.9795 11.9005C34.9795 12.7721 35.1615 13.4256 35.5259 13.8595C35.8904 14.2945 36.3642 14.5114 36.9478 14.5114C37.2265 14.5114 37.5112 14.4447 37.803 14.3114C38.0948 14.1781 38.3264 14.0196 38.4986 13.836V12.6229H36.9297L36.9303 12.6235Z" fill="black"/>
<path d="M40.2344 15.1787V8.66406H44.0961V9.43291H40.9409V11.4236H43.8961V12.1924H40.9409V14.4099H44.2207V15.1787H40.2344Z" fill="black"/>
<path d="M46.572 15.1787V9.43291H44.8125V8.66406H49.0474V9.43291H47.2786V15.1787H46.572Z" fill="black"/>
<path d="M51.8359 15.1787V8.66406H52.5425V15.1787H51.8359Z" fill="black"/>
<path d="M55.1502 15.1787V9.43291H53.3906V8.66406H57.6255V9.43291H55.8567V15.1787H55.1502Z" fill="black"/>
<path d="M60.0865 12.0059C60.0865 10.895 60.3307 10.0409 60.8198 9.44421C61.3089 8.84749 61.9176 8.54858 62.646 8.54858C63.117 8.54858 63.5465 8.68192 63.9345 8.94858C64.3225 9.21525 64.6301 9.60267 64.8564 10.1109C65.0831 10.6191 65.1963 11.224 65.1963 11.9261C65.1963 12.8917 64.9771 13.6786 64.5383 14.2857C64.0553 14.9551 63.4231 15.29 62.6411 15.29C61.8591 15.29 61.2193 14.9463 60.7389 14.2589C60.3034 13.6365 60.0859 12.8857 60.0859 12.0059H60.0865ZM60.8154 12.0168C60.8154 12.8207 60.9925 13.4442 61.3466 13.8868C61.7007 14.3305 62.1307 14.5518 62.6373 14.5518C63.1438 14.5518 63.5903 14.3283 63.9416 13.8802C64.2924 13.4327 64.4684 12.7742 64.4684 11.9059C64.4684 11.3458 64.3782 10.8447 64.1974 10.4027C64.058 10.0644 63.8487 9.79393 63.5684 9.59065C63.2886 9.38737 62.9826 9.28573 62.6509 9.28573C62.1176 9.28573 61.6783 9.50815 61.3335 9.95295C60.9881 10.3978 60.816 11.0852 60.816 12.0163L60.8154 12.0168Z" fill="black"/>
<path d="M66.0703 15.1787V8.66406H66.7949L69.6036 13.7891V8.66406H70.279V15.1787H69.5544L66.7506 10.0526V15.1787H66.0709H66.0703Z" fill="black"/>
<path d="M19.1821 18.7606L13.4991 13.9951L7.80469 9.21923V8.73673C7.80469 7.93401 8.66643 7.42636 9.36915 7.81542L18.469 12.8591L22.7247 15.2181L19.1821 18.7606Z" fill="#00F076"/>
<path d="M7.80469 28.8031V28.3212L13.4992 23.5453L19.1592 18.7989L22.6968 22.3365L18.469 24.6802L9.36915 29.725C8.66643 30.114 7.80469 29.6059 7.80469 28.8031Z" fill="#F1314B"/>
<path d="M7.80469 28.3211V9.21918L13.4997 13.9945L19.1827 18.7606L19.1942 18.7699L19.1592 18.7994L13.4997 23.5458L7.80469 28.3211Z" fill="white"/>
<path d="M7.80469 28.3211V9.21918L13.4997 13.9945L19.1827 18.7606L19.1942 18.7699L19.1592 18.7994L13.4997 23.5458L7.80469 28.3211Z" fill="#00D3FF"/>
<path d="M22.7017 22.3372L19.1641 18.7996L19.199 18.7701L19.1876 18.7608L22.7301 15.2182L27.4754 17.8488C28.1989 18.2499 28.1989 19.2908 27.4754 19.6914L22.7017 22.3372Z" fill="#FFC400"/>
<path d="M19.156 18.7987L19.1484 18.7912L19.1792 18.7604L19.1905 18.7696L19.156 18.7987Z" fill="white"/>
</svg>
