<svg width="77" height="17" viewBox="0 0 77 17" fill="none" xmlns="http://www.w3.org/2000/svg">
<path d="M25.935 10.3915H26.472V13.0466H25.6309C23.7805 13.0466 22.4251 12.3438 21.5646 10.9366L19.8808 8.49981L18.8068 9.71821V13.045H16.0312V0.499756H18.8068V5.84626L23.0154 0.499756H26.4008L21.7619 6.24528L23.9471 9.26336C24.4728 10.0154 25.1359 10.3915 25.935 10.3915Z" fill="#0052CC"/>
<path d="M37.0675 8.44549C37.0675 8.79689 37.0432 9.06947 36.9963 9.26323H30.0105C30.1544 9.7854 30.4197 10.1976 30.8079 10.4997C31.1961 10.8035 31.6651 10.9545 32.2135 10.9545C33.0966 10.9545 33.7355 10.6705 34.1302 10.1007H36.9251C36.579 11.0465 35.9757 11.81 35.1168 12.3913C34.2579 12.9726 33.2713 13.2633 32.1617 13.2633C30.7529 13.2633 29.577 12.8002 28.634 11.8724C27.691 10.9447 27.2188 9.79033 27.2188 8.40937C27.2188 7.02841 27.6878 5.8724 28.6243 4.94465C29.5608 4.01689 30.7351 3.55383 32.1439 3.55383C33.5527 3.55383 34.7108 4.01689 35.6538 4.94465C36.5968 5.8724 37.0691 7.03826 37.0691 8.44549H37.0675ZM32.1423 5.84449C31.6279 5.84449 31.1864 5.99227 30.8176 6.28948C30.4472 6.58669 30.1852 6.989 30.0299 7.49803H34.2563C34.1253 6.989 33.8649 6.58669 33.4767 6.28948C33.0885 5.99227 32.6437 5.84449 32.1423 5.84449Z" fill="#0052CC"/>
<path d="M48.0238 8.44549C48.0238 8.79689 47.9996 9.06947 47.9527 9.26323H40.9668C41.1108 9.7854 41.3761 10.1976 41.7643 10.4997C42.1524 10.8035 42.6215 10.9545 43.1698 10.9545C44.053 10.9545 44.6919 10.6705 45.0865 10.1007H47.8799C47.5337 11.0465 46.9304 11.81 46.0715 12.3913C45.2127 12.9726 44.226 13.2633 43.1164 13.2633C41.7076 13.2633 40.5301 12.8002 39.5872 11.8724C38.6442 10.9447 38.1719 9.79033 38.1719 8.40937C38.1719 7.02841 38.6409 5.8724 39.5774 4.94465C40.514 4.01689 41.6882 3.55383 43.097 3.55383C44.5058 3.55383 45.664 4.01689 46.6069 4.94465C47.5499 5.8724 48.0222 7.03826 48.0222 8.44549H48.0238ZM43.0987 5.84449C42.5843 5.84449 42.1427 5.99227 41.774 6.28948C41.4036 6.58669 41.1415 6.989 40.9863 7.49803H45.2127C45.0817 6.989 44.8213 6.58669 44.4331 6.28948C44.0449 5.99227 43.6001 5.84449 43.0987 5.84449Z" fill="#0052CC"/>
<path d="M54.6232 3.55383C55.8881 3.55383 56.9394 4.01689 57.7756 4.94465C58.6119 5.8724 59.0292 7.02676 59.0292 8.40937C59.0292 9.79197 58.6119 10.9463 57.7756 11.8724C56.9394 12.8002 55.8881 13.2633 54.6232 13.2633C53.512 13.2633 52.5933 12.8445 51.8654 12.0087V16.4997H49.25V3.77223H51.8654V4.80836C52.5933 3.97256 53.5136 3.55383 54.6232 3.55383ZM52.5011 10.0448C52.9249 10.4816 53.4586 10.7 54.104 10.7C54.7494 10.7 55.2831 10.4816 55.7069 10.0448C56.1307 9.60806 56.3426 9.0629 56.3426 8.40773C56.3426 7.75255 56.1307 7.20739 55.7069 6.7706C55.2831 6.33382 54.7494 6.11543 54.104 6.11543C53.4586 6.11543 52.9249 6.33382 52.5011 6.7706C52.0773 7.20739 51.8654 7.75255 51.8654 8.40773C51.8654 9.0629 52.0773 9.60806 52.5011 10.0448Z" fill="#0052CC"/>
<path d="M69.7878 8.44549C69.7878 8.79689 69.7636 9.06947 69.7167 9.26323H62.7309C62.8748 9.7854 63.1401 10.1976 63.5283 10.4997C63.9164 10.8035 64.3855 10.9545 64.9338 10.9545C65.817 10.9545 66.4559 10.6705 66.8505 10.1007H69.6439C69.2977 11.0465 68.6944 11.81 67.8356 12.3913C66.9767 12.9726 65.99 13.2633 64.8805 13.2633C63.4717 13.2633 62.2958 12.8002 61.3528 11.8724C60.4098 10.9447 59.9375 9.79033 59.9375 8.40937C59.9375 7.02841 60.4066 5.8724 61.3431 4.94465C62.2796 4.01689 63.4539 3.55383 64.8627 3.55383C66.2715 3.55383 67.4296 4.01689 68.3726 4.94465C69.3155 5.8724 69.7878 7.03826 69.7878 8.44549ZM64.8627 5.84449C64.3483 5.84449 63.9067 5.99227 63.538 6.28948C63.1676 6.58669 62.9055 6.989 62.7503 7.49803H66.9767C66.8457 6.989 66.5853 6.58669 66.1971 6.28948C65.8089 5.99227 65.3641 5.84449 64.8627 5.84449Z" fill="#0052CC"/>
<path d="M73.7717 5.08291C74.5125 4.11246 75.4312 3.62805 76.5295 3.62805V6.35549C75.6576 6.35549 74.9799 6.56732 74.4963 6.99261C74.0127 7.41626 73.7717 7.99261 73.7717 8.72004V13.0468H71.1562V3.77255H73.7717V5.08126V5.08291Z" fill="#0052CC"/>
<path d="M7.70396 12.9766H0.896073C0.40113 12.9766 0 12.5694 0 12.0669V1.45437C0 0.951906 0.40113 0.544678 0.896073 0.544678H7.70396L3.81235 6.12436C3.54709 6.50531 3.54709 7.01599 3.81235 7.39694L7.70396 12.9766Z" fill="#0052CC"/>
<path d="M13.0947 1.81234L10.1364 6.05375H5.57031L9.41178 0.544678H12.4655C12.4866 0.544678 12.506 0.544678 12.5254 0.54632C13.1319 0.587371 13.4441 1.30823 13.0931 1.81234H13.0947Z" fill="#0052CC"/>
<path d="M13.0947 11.7091C13.4457 12.2116 13.1336 12.9324 12.527 12.9735C12.5076 12.9735 12.4866 12.9751 12.4672 12.9751H9.4134L5.57031 7.46606H10.1364L13.0947 11.7091Z" fill="#0052CC"/>
</svg>
