<svg width="192" height="40" viewBox="0 0 192 40" fill="none" xmlns="http://www.w3.org/2000/svg">
<path d="M64.8372 24.7291H66.1797V31.367H64.077C59.4511 31.367 56.0626 29.61 53.9114 26.092L49.702 20L47.017 23.046V31.3629H40.0781V0H47.017V13.3662L57.5385 0H66.0018L54.4047 14.3637L59.8676 21.9089C61.1818 23.789 62.8397 24.7291 64.8372 24.7291Z" fill="white"/>
<path d="M92.6685 19.8643C92.6685 20.7428 92.6079 21.4243 92.4906 21.9087H75.0262C75.3861 23.2141 76.0492 24.2445 77.0197 24.9998C77.9901 25.7592 79.1628 26.1369 80.5336 26.1369C82.7414 26.1369 84.3386 25.4267 85.3253 24.0023H92.3127C91.4473 26.3668 89.9391 28.2757 87.7919 29.7289C85.6447 31.1821 83.1781 31.9087 80.4042 31.9087C76.8822 31.9087 73.9425 30.751 71.585 28.4317C69.2276 26.1123 68.0469 23.2264 68.0469 19.774C68.0469 16.3216 69.2195 13.4316 71.5608 11.1123C73.902 8.79289 76.8377 7.63525 80.3597 7.63525C83.8817 7.63525 86.7769 8.79289 89.1344 11.1123C91.4918 13.4316 92.6726 16.3463 92.6726 19.8643H92.6685ZM80.3557 13.3619C79.0698 13.3619 77.9659 13.7313 77.0439 14.4743C76.1179 15.2174 75.4629 16.2231 75.0747 17.4957H85.6407C85.3132 16.2231 84.6621 15.2174 83.6917 14.4743C82.7212 13.7313 81.6092 13.3619 80.3557 13.3619Z" fill="white"/>
<path d="M120.052 19.8643C120.052 20.7428 119.991 21.4243 119.874 21.9087H102.409C102.769 23.2141 103.432 24.2445 104.403 24.9998C105.373 25.7592 106.546 26.1369 107.917 26.1369C110.124 26.1369 111.722 25.4267 112.708 24.0023H119.692C118.826 26.3668 117.318 28.2757 115.171 29.7289C113.024 31.1821 110.557 31.9087 107.783 31.9087C104.261 31.9087 101.317 30.751 98.96 28.4317C96.6026 26.1123 95.4219 23.2264 95.4219 19.774C95.4219 16.3216 96.5945 13.4316 98.9358 11.1123C101.277 8.79289 104.213 7.63525 107.735 7.63525C111.257 7.63525 114.152 8.79289 116.509 11.1123C118.867 13.4316 120.048 16.3463 120.048 19.8643H120.052ZM107.739 13.3619C106.453 13.3619 105.349 13.7313 104.427 14.4743C103.501 15.2174 102.846 16.2231 102.458 17.4957H113.024C112.696 16.2231 112.045 15.2174 111.075 14.4743C110.104 13.7313 108.992 13.3619 107.739 13.3619Z" fill="white"/>
<path d="M136.566 7.63574C139.728 7.63574 142.356 8.79338 144.447 11.1128C146.537 13.4321 147.581 16.318 147.581 19.7745C147.581 23.231 146.537 26.1169 144.447 28.4321C142.356 30.7515 139.728 31.9092 136.566 31.9092C133.788 31.9092 131.491 30.8624 129.671 28.7729V40.0003H123.133V8.18172H129.671V10.772C131.491 8.68254 133.792 7.63574 136.566 7.63574ZM131.261 23.8632C132.32 24.9551 133.654 25.5011 135.268 25.5011C136.881 25.5011 138.216 24.9551 139.275 23.8632C140.334 22.7712 140.864 21.4083 140.864 19.7704C140.864 18.1325 140.334 16.7696 139.275 15.6776C138.216 14.5857 136.881 14.0397 135.268 14.0397C133.654 14.0397 132.32 14.5857 131.261 15.6776C130.201 16.7696 129.671 18.1325 129.671 19.7704C129.671 21.4083 130.201 22.7712 131.261 23.8632Z" fill="white"/>
<path d="M174.469 19.8648C174.469 20.7433 174.409 21.4247 174.292 21.9091H156.827C157.187 23.2146 157.85 24.2449 158.821 25.0003C159.791 25.7597 160.964 26.1374 162.335 26.1374C164.542 26.1374 166.14 25.4272 167.126 24.0027H174.11C173.244 26.3673 171.736 28.2761 169.589 29.7294C167.442 31.1826 164.975 31.9092 162.201 31.9092C158.679 31.9092 155.739 30.7515 153.382 28.4321C151.024 26.1128 149.844 23.2269 149.844 19.7745C149.844 16.3221 151.016 13.4321 153.358 11.1128C155.699 8.79338 158.635 7.63574 162.157 7.63574C165.679 7.63574 168.574 8.79338 170.931 11.1128C173.289 13.4321 174.469 16.3467 174.469 19.8648ZM162.157 13.3623C160.871 13.3623 159.767 13.7318 158.845 14.4748C157.919 15.2178 157.264 16.2236 156.876 17.4962H167.442C167.114 16.2236 166.463 15.2178 165.493 14.4748C164.522 13.7318 163.41 13.3623 162.157 13.3623Z" fill="white"/>
<path d="M184.429 11.4574C186.281 9.03132 188.578 7.82031 191.324 7.82031V14.6389C189.144 14.6389 187.45 15.1684 186.241 16.2316C185.032 17.2908 184.429 18.7317 184.429 20.5502V31.3671H177.891V8.18156H184.429V11.4533V11.4574Z" fill="white"/>
<path d="M19.2598 31.1905H2.24017C1.00282 31.1905 0 30.1724 0 28.9163V2.38506C0 1.1289 1.00282 0.11084 2.24017 0.11084H19.2598L9.53082 14.0599C8.86767 15.0123 8.86767 16.289 9.53082 17.2414L19.2598 31.1905Z" fill="white"/>
<path d="M32.7328 3.27997L25.337 13.8834H13.9219L23.5255 0.11084H31.1598C31.2124 0.11084 31.2609 0.11084 31.3095 0.114945C32.8258 0.217572 33.6062 2.01971 32.7288 3.27997H32.7328Z" fill="white"/>
<path d="M32.7328 28.0216C33.6103 29.2778 32.8299 31.0799 31.3135 31.1825C31.265 31.1825 31.2124 31.1867 31.1639 31.1867H23.5295L13.9219 17.4141H25.337L32.7328 28.0216Z" fill="white"/>
</svg>
