<svg width="32" height="16" viewBox="0 0 32 16" fill="none" xmlns="http://www.w3.org/2000/svg">
<path d="M31.1371 9.42433C24.613 8.50783 18.0537 7.81916 11.4995 7.06835C14.8597 9.02045 17.8321 11.5784 20.1797 15.0062C20.5273 15.5188 19.817 16.2851 19.3182 15.8916C14.0134 11.6871 8.01831 7.9745 1.31796 6.89748C-0.208515 6.64894 -0.480559 4.13245 0.879664 3.46449C3.57492 2.14411 6.50695 1.16548 9.42891 0.528588C11.7161 0.0315034 14.6935 -0.512185 16.7489 0.92211C16.9353 1.05156 16.9807 1.31046 16.8195 1.48133C15.2275 3.16417 12.5322 3.59394 10.4012 4.15316C9.55486 4.37581 8.72361 4.62953 7.90244 4.89879C15.9328 4.17387 23.6861 5.36998 31.5048 8.05216C32.3764 8.35249 31.9985 9.5486 31.1371 9.42433Z" fill="white"/>
</svg>
