<svg width="32" height="16" viewBox="0 0 32 16" fill="none" xmlns="http://www.w3.org/2000/svg">
<path d="M0.862949 9.42433C7.38698 8.50783 13.9463 7.81916 20.5005 7.06835C17.1403 9.02045 14.1679 11.5784 11.8203 15.0062C11.4727 15.5188 12.183 16.2851 12.6818 15.8916C17.9866 11.6871 23.9817 7.9745 30.682 6.89748C32.2085 6.64894 32.4806 4.13245 31.1203 3.46449C28.4251 2.14411 25.493 1.16548 22.5711 0.528588C20.2839 0.0315034 17.3065 -0.512185 15.2511 0.92211C15.0647 1.05156 15.0193 1.31046 15.1805 1.48133C16.7725 3.16417 19.4678 3.59394 21.5988 4.15316C22.4451 4.37581 23.2764 4.62953 24.0976 4.89879C16.0672 4.17387 8.31394 5.36998 0.495184 8.05216C-0.376366 8.35249 0.0014749 9.5486 0.862949 9.42433Z" fill="white"/>
</svg>
